{
date = "2013-03-12 15:09:32 +0200";
familyName = "Open Sans Hebrew";
fontMaster = (
{
alignmentZones = (
"{1567, 16}",
"{1462, 24}",
"{1290, 30}",
"{1096, 15}",
"{0, -31}",
"{-492, -46}"
);
ascender = 1567;
capHeight = 1462;
descender = "-492";
id = UUID0;
italicAngle = 12;
xHeight = 1096;
}
);
glyphs = (
{
glyphname = A;
lastChange = "2013-03-10 15:35:19 +0200";
layers = (
{
layerId = UUID0;
name = "Regular Italic";
paths = (
{
closed = 1;
nodes = (
"870 0 LINE",
"1040 0 LINE",
"856 1462 LINE",
"682 1462 LINE",
"-117 0 LINE",
"72 0 LINE",
"317 465 LINE",
"813 465 LINE"
);
},
{
closed = 1;
nodes = (
"401 621 LINE",
"538 879 OFFCURVE",
"621 1037 OFFCURVE",
"650 1095 CURVE SMOOTH",
"679 1153 OFFCURVE",
"706 1211 OFFCURVE",
"731 1270 CURVE",
"734 1156 OFFCURVE",
"744 1039 OFFCURVE",
"760 920 CURVE",
"795 621 LINE"
);
}
);
width = 1137;
}
);
unicode = 0041;
},
{
glyphname = AE;
lastChange = "2013-03-10 15:35:19 +0200";
layers = (
{
layerId = UUID0;
name = "Regular Italic";
paths = (
{
closed = 1;
nodes = (
"1481 152 LINE",
"915 152 LINE",
"1030 690 LINE",
"1559 690 LINE",
"1587 840 LINE",
"1059 840 LINE",
"1159 1309 LINE",
"1724 1309 LINE",
"1757 1462 LINE",
"819 1462 LINE",
"-119 0 LINE",
"78 0 LINE",
"371 465 LINE",
"809 465 LINE",
"711 0 LINE",
"1448 0 LINE"
);
},
{
closed = 1;
nodes = (
"469 621 LINE",
"903 1309 LINE",
"987 1309 LINE",
"840 621 LINE"
);
}
);
width = 1673;
}
);
unicode = 00C6;
},
{
glyphname = B;
lastChange = "2013-03-10 15:35:19 +0200";
layers = (
{
layerId = UUID0;
name = "Regular Italic";
paths = (
{
closed = 1;
nodes = (
"395 1462 LINE",
"86 0 LINE",
"549 0 LINE SMOOTH",
"719 0 OFFCURVE",
"855 40 OFFCURVE",
"956 120 CURVE SMOOTH",
"1057 201 OFFCURVE",
"1108 312 OFFCURVE",
"1108 453 CURVE SMOOTH",
"1108 600 OFFCURVE",
"1023 709 OFFCURVE",
"870 752 CURVE",
"870 762 LINE",
"975 781 OFFCURVE",
"1057 823 OFFCURVE",
"1115 888 CURVE SMOOTH",
"1173 953 OFFCURVE",
"1202 1032 OFFCURVE",
"1202 1126 CURVE SMOOTH",
"1202 1350 OFFCURVE",
"1058 1462 OFFCURVE",
"770 1462 CURVE SMOOTH"
);
},
{
closed = 1;
nodes = (
"537 1315 LINE",
"748 1315 LINE SMOOTH",
"939 1315 OFFCURVE",
"1024 1247 OFFCURVE",
"1024 1108 CURVE SMOOTH",
"1024 1024 OFFCURVE",
"993 958 OFFCURVE",
"931 909 CURVE SMOOTH",
"869 860 OFFCURVE",
"786 836 OFFCURVE",
"682 836 CURVE SMOOTH",
"434 836 LINE"
);
},
{
closed = 1;
nodes = (
"403 692 LINE",
"639 692 LINE SMOOTH",
"826 692 OFFCURVE",
"928 608 OFFCURVE",
"928 453 CURVE SMOOTH",
"928 257 OFFCURVE",
"794 145 OFFCURVE",
"553 145 CURVE SMOOTH",
"287 145 LINE"
);
}
);
width = 1225;
}
);
unicode = 0042;
},
{
glyphname = C;
lastChange = "2013-03-10 15:35:19 +0200";
layers = (
{
layerId = UUID0;
name = "Regular Italic";
paths = (
{
closed = 1;
nodes = (
"1036 1331 OFFCURVE",
"1129 1308 OFFCURVE",
"1221 1262 CURVE",
"1290 1403 LINE",
"1189 1456 OFFCURVE",
"1073 1483 OFFCURVE",
"942 1483 CURVE SMOOTH",
"792 1483 OFFCURVE",
"658 1444 OFFCURVE",
"539 1365 CURVE SMOOTH",
"420 1286 OFFCURVE",
"326 1172 OFFCURVE",
"255 1022 CURVE SMOOTH",
"185 873 OFFCURVE",
"150 711 OFFCURVE",
"150 537 CURVE SMOOTH",
"150 365 OFFCURVE",
"196 229 OFFCURVE",
"288 129 CURVE SMOOTH",
"380 30 OFFCURVE",
"507 -20 OFFCURVE",
"668 -20 CURVE SMOOTH",
"741 -20 OFFCURVE",
"804 -15 OFFCURVE",
"856 -6 CURVE SMOOTH",
"908 3 OFFCURVE",
"963 18 OFFCURVE",
"1020 39 CURVE",
"1020 188 LINE",
"898 150 OFFCURVE",
"791 131 OFFCURVE",
"698 131 CURVE SMOOTH",
"584 131 OFFCURVE",
"494 168 OFFCURVE",
"429 242 CURVE SMOOTH",
"364 317 OFFCURVE",
"332 416 OFFCURVE",
"332 541 CURVE SMOOTH",
"332 688 OFFCURVE",
"359 824 OFFCURVE",
"412 949 CURVE SMOOTH",
"466 1074 OFFCURVE",
"539 1169 OFFCURVE",
"630 1234 CURVE SMOOTH",
"722 1299 OFFCURVE",
"826 1331 OFFCURVE",
"942 1331 CURVE SMOOTH"
);
}
);
width = 1198;
}
);
unicode = 0043;
},
{
glyphname = D;
lastChange = "2013-03-10 15:35:19 +0200";
layers = (
{
layerId = UUID0;
name = "Regular Italic";
paths = (
{
closed = 1;
nodes = (
"1300 1258 OFFCURVE",
"1105 1462 OFFCURVE",
"737 1462 CURVE SMOOTH",
"395 1462 LINE",
"86 0 LINE",
"438 0 LINE SMOOTH",
"613 0 OFFCURVE",
"765 36 OFFCURVE",
"895 108 CURVE SMOOTH",
"1025 180 OFFCURVE",
"1125 283 OFFCURVE",
"1195 416 CURVE SMOOTH",
"1265 549 OFFCURVE",
"1300 703 OFFCURVE",
"1300 877 CURVE SMOOTH"
);
},
{
closed = 1;
nodes = (
"287 147 LINE",
"537 1315 LINE",
"715 1315 LINE SMOOTH",
"980 1315 OFFCURVE",
"1120 1166 OFFCURVE",
"1120 879 CURVE SMOOTH",
"1120 736 OFFCURVE",
"1093 608 OFFCURVE",
"1038 497 CURVE SMOOTH",
"984 386 OFFCURVE",
"906 299 OFFCURVE",
"804 238 CURVE SMOOTH",
"702 177 OFFCURVE",
"584 147 OFFCURVE",
"449 147 CURVE SMOOTH"
);
}
);
width = 1364;
}
);
unicode = 0044;
},
{
glyphname = E;
lastChange = "2013-03-10 15:35:19 +0200";
layers = (
{
layerId = UUID0;
name = "Regular Italic";
paths = (
{
closed = 1;
nodes = (
"854 152 LINE",
"289 152 LINE",
"403 688 LINE",
"932 688 LINE",
"961 840 LINE",
"434 840 LINE",
"532 1309 LINE",
"1098 1309 LINE",
"1130 1462 LINE",
"395 1462 LINE",
"86 0 LINE",
"821 0 LINE"
);
}
);
width = 1047;
}
);
unicode = 0045;
},
{
glyphname = F;
lastChange = "2013-03-10 15:35:19 +0200";
layers = (
{
layerId = UUID0;
name = "Regular Italic";
paths = (
{
closed = 1;
nodes = (
"389 623 LINE",
"918 623 LINE",
"950 776 LINE",
"422 776 LINE",
"532 1309 LINE",
"1100 1309 LINE",
"1130 1462 LINE",
"395 1462 LINE",
"86 0 LINE",
"258 0 LINE"
);
}
);
width = 967;
}
);
unicode = 0046;
},
{
glyphname = G;
lastChange = "2013-03-10 15:35:19 +0200";
layers = (
{
layerId = UUID0;
name = "Regular Italic";
paths = (
{
closed = 1;
nodes = (
"788 614 LINE",
"1077 614 LINE",
"981 170 LINE",
"910 144 OFFCURVE",
"824 131 OFFCURVE",
"721 131 CURVE SMOOTH",
"598 131 OFFCURVE",
"503 167 OFFCURVE",
"434 240 CURVE SMOOTH",
"366 313 OFFCURVE",
"332 412 OFFCURVE",
"332 539 CURVE SMOOTH",
"332 689 OFFCURVE",
"358 825 OFFCURVE",
"409 946 CURVE SMOOTH",
"460 1067 OFFCURVE",
"532 1162 OFFCURVE",
"624 1229 CURVE SMOOTH",
"717 1297 OFFCURVE",
"819 1331 OFFCURVE",
"932 1331 CURVE SMOOTH",
"1073 1331 OFFCURVE",
"1189 1292 OFFCURVE",
"1292 1247 CURVE",
"1358 1399 LINE",
"1219 1458 OFFCURVE",
"1088 1483 OFFCURVE",
"932 1483 CURVE SMOOTH",
"786 1483 OFFCURVE",
"653 1442 OFFCURVE",
"533 1360 CURVE SMOOTH",
"413 1279 OFFCURVE",
"319 1164 OFFCURVE",
"251 1017 CURVE SMOOTH",
"184 870 OFFCURVE",
"150 707 OFFCURVE",
"150 528 CURVE SMOOTH",
"150 355 OFFCURVE",
"199 221 OFFCURVE",
"296 124 CURVE",
"394 28 OFFCURVE",
"531 -20 OFFCURVE",
"707 -20 CURVE SMOOTH",
"842 -20 OFFCURVE",
"982 5 OFFCURVE",
"1126 55 CURVE",
"1280 766 LINE",
"821 766 LINE"
);
}
);
width = 1386;
}
);
unicode = 0047;
},
{
glyphname = H;
lastChange = "2013-03-10 15:35:19 +0200";
layers = (
{
layerId = UUID0;
name = "Regular Italic";
paths = (
{
closed = 1;
nodes = (
"1395 1462 LINE",
"1227 1462 LINE",
"1094 840 LINE",
"434 840 LINE",
"565 1462 LINE",
"395 1462 LINE",
"86 0 LINE",
"256 0 LINE",
"401 688 LINE",
"1061 688 LINE",
"918 0 LINE",
"1085 0 LINE"
);
}
);
width = 1389;
}
);
unicode = 0048;
},
{
glyphname = I;
lastChange = "2013-03-10 15:35:20 +0200";
layers = (
{
layerId = UUID0;
name = "Regular Italic";
paths = (
{
closed = 1;
nodes = (
"254 0 LINE",
"565 1462 LINE",
"397 1462 LINE",
"86 0 LINE"
);
}
);
width = 559;
}
);
unicode = 0049;
},
{
glyphname = J;
lastChange = "2013-03-10 15:35:19 +0200";
layers = (
{
layerId = UUID0;
name = "Regular Italic";
paths = (
{
closed = 1;
nodes = (
"63 -385 OFFCURVE",
"203 -259 OFFCURVE",
"256 -6 CURVE SMOOTH",
"565 1462 LINE",
"395 1462 LINE",
"88 12 LINE",
"55 -148 OFFCURVE",
"-35 -233 OFFCURVE",
"-168 -233 CURVE SMOOTH",
"-219 -233 OFFCURVE",
"-267 -226 OFFCURVE",
"-313 -213 CURVE",
"-319 -360 LINE",
"-287 -377 OFFCURVE",
"-236 -385 OFFCURVE",
"-166 -385 CURVE SMOOTH"
);
}
);
width = 547;
}
);
unicode = 004A;
},
{
glyphname = K;
lastChange = "2013-03-10 15:35:19 +0200";
layers = (
{
layerId = UUID0;
name = "Regular Italic";
paths = (
{
closed = 1;
nodes = (
"684 825 LINE",
"1323 1462 LINE",
"1114 1462 LINE",
"414 752 LINE",
"565 1462 LINE",
"395 1462 LINE",
"86 0 LINE",
"256 0 LINE",
"381 590 LINE",
"555 721 LINE",
"651 477 OFFCURVE",
"752 241 OFFCURVE",
"848 0 CURVE",
"1034 0 LINE"
);
}
);
width = 1141;
}
);
unicode = 004B;
},
{
glyphname = L;
lastChange = "2013-03-10 15:35:19 +0200";
layers = (
{
layerId = UUID0;
name = "Regular Italic";
paths = (
{
closed = 1;
nodes = (
"821 0 LINE",
"854 154 LINE",
"289 154 LINE",
"565 1462 LINE",
"395 1462 LINE",
"86 0 LINE"
);
}
);
width = 971;
}
);
unicode = 004C;
},
{
glyphname = M;
lastChange = "2013-03-10 15:35:19 +0200";
layers = (
{
layerId = UUID0;
name = "Regular Italic";
paths = (
{
closed = 1;
nodes = (
"807 0 LINE",
"1524 1298 LINE",
"1530 1298 LINE",
"1512 1247 OFFCURVE",
"1481 1116 OFFCURVE",
"1436 905 CURVE SMOOTH",
"1243 0 LINE",
"1417 0 LINE",
"1720 1462 LINE",
"1454 1462 LINE",
"795 258 LINE",
"786 258 LINE",
"637 1462 LINE",
"393 1462 LINE",
"84 0 LINE",
"246 0 LINE",
"436 899 LINE",
"447 948 OFFCURVE",
"459 1015 OFFCURVE",
"473 1098 CURVE SMOOTH",
"488 1182 OFFCURVE",
"497 1248 OFFCURVE",
"502 1296 CURVE",
"510 1296 LINE",
"676 0 LINE"
);
}
);
width = 1714;
}
);
unicode = 004D;
},
{
glyphname = N;
lastChange = "2013-03-10 15:35:19 +0200";
layers = (
{
layerId = UUID0;
name = "Regular Italic";
paths = (
{
closed = 1;
nodes = (
"1448 1462 LINE",
"1284 1462 LINE",
"1110 647 LINE",
"1082 526 OFFCURVE",
"1058 391 OFFCURVE",
"1038 242 CURVE",
"1032 242 LINE",
"573 1462 LINE",
"393 1462 LINE",
"84 0 LINE",
"246 0 LINE",
"418 805 LINE SMOOTH",
"446 936 OFFCURVE",
"471 1076 OFFCURVE",
"492 1223 CURVE",
"498 1223 LINE",
"958 0 LINE",
"1139 0 LINE"
);
}
);
width = 1438;
}
);
unicode = 004E;
},
{
glyphname = O;
lastChange = "2013-03-10 15:35:19 +0200";
layers = (
{
layerId = UUID0;
name = "Regular Italic";
paths = (
{
closed = 1;
nodes = (
"1411 1087 OFFCURVE",
"1364 1228 OFFCURVE",
"1271 1331 CURVE SMOOTH",
"1178 1434 OFFCURVE",
"1050 1485 OFFCURVE",
"887 1485 CURVE SMOOTH",
"747 1485 OFFCURVE",
"621 1446 OFFCURVE",
"509 1367 CURVE SMOOTH",
"398 1288 OFFCURVE",
"310 1176 OFFCURVE",
"246 1031 CURVE SMOOTH",
"182 886 OFFCURVE",
"150 725 OFFCURVE",
"150 549 CURVE SMOOTH",
"150 369 OFFCURVE",
"198 229 OFFCURVE",
"293 129 CURVE SMOOTH",
"388 30 OFFCURVE",
"521 -20 OFFCURVE",
"692 -20 CURVE SMOOTH",
"835 -20 OFFCURVE",
"962 19 OFFCURVE",
"1071 96 CURVE SMOOTH",
"1180 174 OFFCURVE",
"1264 284 OFFCURVE",
"1323 425 CURVE SMOOTH",
"1382 567 OFFCURVE",
"1411 728 OFFCURVE",
"1411 907 CURVE SMOOTH"
);
},
{
closed = 1;
nodes = (
"985 1333 OFFCURVE",
"1072 1296 OFFCURVE",
"1135 1221 CURVE SMOOTH",
"1198 1147 OFFCURVE",
"1229 1044 OFFCURVE",
"1229 911 CURVE SMOOTH",
"1229 764 OFFCURVE",
"1206 629 OFFCURVE",
"1159 508 CURVE SMOOTH",
"1112 387 OFFCURVE",
"1049 293 OFFCURVE",
"968 228 CURVE SMOOTH",
"888 163 OFFCURVE",
"797 131 OFFCURVE",
"696 131 CURVE SMOOTH",
"584 131 OFFCURVE",
"495 168 OFFCURVE",
"430 242 CURVE SMOOTH",
"365 317 OFFCURVE",
"332 420 OFFCURVE",
"332 553 CURVE SMOOTH",
"332 698 OFFCURVE",
"355 831 OFFCURVE",
"400 951 CURVE SMOOTH",
"446 1071 OFFCURVE",
"510 1165 OFFCURVE",
"593 1232 CURVE SMOOTH",
"676 1299 OFFCURVE",
"769 1333 OFFCURVE",
"874 1333 CURVE SMOOTH"
);
}
);
width = 1475;
}
);
unicode = 004F;
},
{
glyphname = Oslash;
lastChange = "2013-03-10 15:35:19 +0200";
layers = (
{
layerId = UUID0;
name = "Regular Italic";
paths = (
{
closed = 1;
nodes = (
"1411 1050 OFFCURVE",
"1377 1181 OFFCURVE",
"1313 1264 CURVE",
"1462 1448 LINE",
"1348 1540 LINE",
"1217 1374 LINE",
"1121 1450 OFFCURVE",
"1019 1485 OFFCURVE",
"887 1485 CURVE SMOOTH",
"747 1485 OFFCURVE",
"621 1446 OFFCURVE",
"509 1367 CURVE SMOOTH",
"398 1288 OFFCURVE",
"310 1176 OFFCURVE",
"246 1031 CURVE SMOOTH",
"182 886 OFFCURVE",
"150 725 OFFCURVE",
"150 549 CURVE SMOOTH",
"150 392 OFFCURVE",
"185 269 OFFCURVE",
"256 178 CURVE",
"119 8 LINE",
"231 -84 LINE",
"360 76 LINE",
"448 12 OFFCURVE",
"559 -20 OFFCURVE",
"692 -20 CURVE SMOOTH",
"835 -20 OFFCURVE",
"962 19 OFFCURVE",
"1071 96 CURVE SMOOTH",
"1180 174 OFFCURVE",
"1264 284 OFFCURVE",
"1323 425 CURVE SMOOTH",
"1382 567 OFFCURVE",
"1411 728 OFFCURVE",
"1411 907 CURVE SMOOTH"
);
},
{
closed = 1;
nodes = (
"971 1333 OFFCURVE",
"1050 1304 OFFCURVE",
"1110 1245 CURVE",
"373 326 LINE",
"346 387 OFFCURVE",
"332 463 OFFCURVE",
"332 553 CURVE SMOOTH",
"332 698 OFFCURVE",
"355 831 OFFCURVE",
"400 951 CURVE SMOOTH",
"446 1071 OFFCURVE",
"510 1165 OFFCURVE",
"593 1232 CURVE SMOOTH",
"676 1299 OFFCURVE",
"769 1333 OFFCURVE",
"874 1333 CURVE SMOOTH"
);
},
{
closed = 1;
nodes = (
"1229 764 OFFCURVE",
"1206 629 OFFCURVE",
"1159 508 CURVE SMOOTH",
"1112 387 OFFCURVE",
"1049 293 OFFCURVE",
"968 228 CURVE SMOOTH",
"888 163 OFFCURVE",
"797 131 OFFCURVE",
"696 131 CURVE SMOOTH",
"601 131 OFFCURVE",
"524 156 OFFCURVE",
"463 205 CURVE",
"1196 1116 LINE",
"1218 1058 OFFCURVE",
"1229 990 OFFCURVE",
"1229 911 CURVE SMOOTH"
);
}
);
width = 1475;
}
);
unicode = 00D8;
},
{
glyphname = OE;
lastChange = "2013-03-10 15:35:20 +0200";
layers = (
{
layerId = UUID0;
name = "Regular Italic";
paths = (
{
closed = 1;
nodes = (
"1556 152 LINE",
"991 152 LINE",
"1106 690 LINE",
"1634 690 LINE",
"1665 840 LINE",
"1137 840 LINE",
"1237 1309 LINE",
"1802 1309 LINE",
"1833 1462 LINE",
"1124 1462 LINE",
"1067 1477 OFFCURVE",
"988 1485 OFFCURVE",
"887 1485 CURVE SMOOTH",
"747 1485 OFFCURVE",
"621 1446 OFFCURVE",
"509 1367 CURVE SMOOTH",
"398 1288 OFFCURVE",
"310 1176 OFFCURVE",
"246 1031 CURVE SMOOTH",
"182 886 OFFCURVE",
"150 725 OFFCURVE",
"150 549 CURVE SMOOTH",
"150 369 OFFCURVE",
"198 229 OFFCURVE",
"293 129 CURVE SMOOTH",
"388 30 OFFCURVE",
"521 -20 OFFCURVE",
"692 -20 CURVE SMOOTH",
"745 -20 OFFCURVE",
"798 -13 OFFCURVE",
"850 0 CURVE",
"1524 0 LINE"
);
},
{
closed = 1;
nodes = (
"584 131 OFFCURVE",
"495 168 OFFCURVE",
"430 242 CURVE SMOOTH",
"365 317 OFFCURVE",
"332 420 OFFCURVE",
"332 553 CURVE SMOOTH",
"332 698 OFFCURVE",
"355 831 OFFCURVE",
"400 951 CURVE SMOOTH",
"446 1071 OFFCURVE",
"510 1165 OFFCURVE",
"593 1232 CURVE SMOOTH",
"676 1299 OFFCURVE",
"769 1333 OFFCURVE",
"874 1333 CURVE SMOOTH",
"951 1333 OFFCURVE",
"1014 1326 OFFCURVE",
"1065 1311 CURVE",
"819 150 LINE",
"783 137 OFFCURVE",
"742 131 OFFCURVE",
"696 131 CURVE SMOOTH"
);
}
);
width = 1751;
}
);
unicode = 0152;
},
{
glyphname = P;
lastChange = "2013-03-10 15:35:19 +0200";
layers = (
{
layerId = UUID0;
name = "Regular Italic";
paths = (
{
closed = 1;
nodes = (
"1159 1336 OFFCURVE",
"1010 1462 OFFCURVE",
"725 1462 CURVE SMOOTH",
"395 1462 LINE",
"86 0 LINE",
"256 0 LINE",
"379 575 LINE",
"514 575 LINE SMOOTH",
"937 575 OFFCURVE",
"1159 754 OFFCURVE",
"1159 1085 CURVE SMOOTH"
);
},
{
closed = 1;
nodes = (
"537 1315 LINE",
"700 1315 LINE SMOOTH",
"892 1315 OFFCURVE",
"983 1246 OFFCURVE",
"983 1079 CURVE SMOOTH",
"983 844 OFFCURVE",
"831 721 OFFCURVE",
"543 721 CURVE SMOOTH",
"410 721 LINE"
);
}
);
width = 1159;
}
);
unicode = 0050;
},
{
glyphname = Q;
lastChange = "2013-03-10 15:35:19 +0200";
layers = (
{
layerId = UUID0;
name = "Regular Italic";
paths = (
{
closed = 1;
nodes = (
"985 1333 OFFCURVE",
"1072 1296 OFFCURVE",
"1135 1221 CURVE SMOOTH",
"1198 1147 OFFCURVE",
"1229 1044 OFFCURVE",
"1229 911 CURVE SMOOTH",
"1229 765 OFFCURVE",
"1207 632 OFFCURVE",
"1162 511 CURVE SMOOTH",
"1118 391 OFFCURVE",
"1056 298 OFFCURVE",
"975 231 CURVE SMOOTH",
"894 164 OFFCURVE",
"801 131 OFFCURVE",
"696 131 CURVE SMOOTH",
"584 131 OFFCURVE",
"495 168 OFFCURVE",
"430 242 CURVE SMOOTH",
"365 317 OFFCURVE",
"332 420 OFFCURVE",
"332 553 CURVE SMOOTH",
"332 698 OFFCURVE",
"355 831 OFFCURVE",
"400 951 CURVE SMOOTH",
"446 1071 OFFCURVE",
"510 1165 OFFCURVE",
"593 1232 CURVE SMOOTH",
"676 1299 OFFCURVE",
"769 1333 OFFCURVE",
"874 1333 CURVE SMOOTH"
);
},
{
closed = 1;
nodes = (
"952 -348 LINE",
"1171 -348 LINE",
"897 10 LINE",
"1054 62 OFFCURVE",
"1179 169 OFFCURVE",
"1272 331 CURVE SMOOTH",
"1365 493 OFFCURVE",
"1411 685 OFFCURVE",
"1411 907 CURVE SMOOTH",
"1411 1087 OFFCURVE",
"1364 1228 OFFCURVE",
"1271 1331 CURVE SMOOTH",
"1178 1434 OFFCURVE",
"1050 1485 OFFCURVE",
"887 1485 CURVE SMOOTH",
"747 1485 OFFCURVE",
"621 1446 OFFCURVE",
"509 1367 CURVE SMOOTH",
"398 1288 OFFCURVE",
"310 1176 OFFCURVE",
"246 1031 CURVE SMOOTH",
"182 886 OFFCURVE",
"150 725 OFFCURVE",
"150 549 CURVE SMOOTH",
"150 369 OFFCURVE",
"198 229 OFFCURVE",
"293 129 CURVE SMOOTH",
"388 30 OFFCURVE",
"521 -20 OFFCURVE",
"692 -20 CURVE SMOOTH",
"708 -20 LINE",
"725 -18 LINE"
);
}
);
width = 1475;
}
);
unicode = 0051;
},
{
glyphname = R;
lastChange = "2013-03-10 15:35:19 +0200";
layers = (
{
layerId = UUID0;
name = "Regular Italic";
paths = (
{
closed = 1;
nodes = (
"637 608 LINE",
"846 0 LINE",
"1032 0 LINE",
"793 647 LINE",
"1038 714 OFFCURVE",
"1161 864 OFFCURVE",
"1161 1096 CURVE SMOOTH",
"1161 1340 OFFCURVE",
"1012 1462 OFFCURVE",
"715 1462 CURVE SMOOTH",
"395 1462 LINE",
"86 0 LINE",
"256 0 LINE",
"385 608 LINE"
);
},
{
closed = 1;
nodes = (
"698 1313 LINE",
"901 1313 OFFCURVE",
"985 1244 OFFCURVE",
"985 1083 CURVE SMOOTH",
"985 871 OFFCURVE",
"841 754 OFFCURVE",
"584 754 CURVE SMOOTH",
"416 754 LINE",
"532 1313 LINE"
);
}
);
width = 1165;
}
);
unicode = 0052;
},
{
glyphname = S;
lastChange = "2013-03-10 15:35:19 +0200";
layers = (
{
layerId = UUID0;
name = "Regular Italic";
paths = (
{
closed = 1;
nodes = (
"913 531 OFFCURVE",
"877 608 OFFCURVE",
"808 675 CURVE SMOOTH",
"774 708 OFFCURVE",
"708 754 OFFCURVE",
"610 813 CURVE SMOOTH",
"540 854 OFFCURVE",
"493 885 OFFCURVE",
"468 908 CURVE SMOOTH",
"443 931 OFFCURVE",
"425 955 OFFCURVE",
"414 980 CURVE SMOOTH",
"403 1006 OFFCURVE",
"397 1037 OFFCURVE",
"397 1073 CURVE SMOOTH",
"397 1152 OFFCURVE",
"424 1215 OFFCURVE",
"478 1261 CURVE SMOOTH",
"533 1308 OFFCURVE",
"605 1331 OFFCURVE",
"694 1331 CURVE SMOOTH",
"740 1331 OFFCURVE",
"790 1324 OFFCURVE",
"845 1309 CURVE SMOOTH",
"900 1294 OFFCURVE",
"949 1274 OFFCURVE",
"993 1249 CURVE",
"1059 1399 LINE",
"932 1460 OFFCURVE",
"826 1483 OFFCURVE",
"694 1483 CURVE SMOOTH",
"551 1483 OFFCURVE",
"435 1444 OFFCURVE",
"347 1365 CURVE SMOOTH",
"259 1287 OFFCURVE",
"215 1186 OFFCURVE",
"215 1061 CURVE SMOOTH",
"215 984 OFFCURVE",
"234 917 OFFCURVE",
"273 860 CURVE SMOOTH",
"312 803 OFFCURVE",
"382 747 OFFCURVE",
"483 690 CURVE SMOOTH",
"578 636 OFFCURVE",
"643 589 OFFCURVE",
"678 549 CURVE SMOOTH",
"713 510 OFFCURVE",
"731 464 OFFCURVE",
"731 412 CURVE SMOOTH",
"731 324 OFFCURVE",
"699 255 OFFCURVE",
"636 204 CURVE SMOOTH",
"573 154 OFFCURVE",
"487 129 OFFCURVE",
"379 129 CURVE SMOOTH",
"260 129 OFFCURVE",
"147 157 OFFCURVE",
"39 213 CURVE",
"39 43 LINE",
"134 -2 OFFCURVE",
"236 -20 OFFCURVE",
"377 -20 CURVE SMOOTH",
"547 -20 OFFCURVE",
"679 19 OFFCURVE",
"772 96 CURVE SMOOTH",
"866 174 OFFCURVE",
"913 283 OFFCURVE",
"913 424 CURVE SMOOTH"
);
}
);
width = 1028;
}
);
unicode = 0053;
},
{
glyphname = T;
lastChange = "2013-03-10 15:35:19 +0200";
layers = (
{
layerId = UUID0;
name = "Regular Italic";
paths = (
{
closed = 1;
nodes = (
"766 1311 LINE",
"1174 1311 LINE",
"1204 1462 LINE",
"219 1462 LINE",
"186 1311 LINE",
"592 1311 LINE",
"315 0 LINE",
"487 0 LINE"
);
}
);
width = 1020;
}
);
unicode = 0054;
},
{
glyphname = U;
lastChange = "2013-03-10 15:35:19 +0200";
layers = (
{
layerId = UUID0;
name = "Regular Italic";
paths = (
{
closed = 1;
nodes = (
"1237 1462 LINE",
"1032 508 LINE SMOOTH",
"1003 373 OFFCURVE",
"956 277 OFFCURVE",
"892 218 CURVE SMOOTH",
"829 160 OFFCURVE",
"740 131 OFFCURVE",
"625 131 CURVE SMOOTH",
"432 131 OFFCURVE",
"334 227 OFFCURVE",
"334 383 CURVE SMOOTH",
"334 438 OFFCURVE",
"341 500 OFFCURVE",
"356 571 CURVE SMOOTH",
"547 1462 LINE",
"377 1462 LINE",
"188 584 LINE",
"172 504 OFFCURVE",
"164 437 OFFCURVE",
"164 383 CURVE SMOOTH",
"164 123 OFFCURVE",
"309 -20 OFFCURVE",
"616 -20 CURVE SMOOTH",
"944 -20 OFFCURVE",
"1129 145 OFFCURVE",
"1202 496 CURVE",
"1407 1462 LINE"
);
}
);
width = 1384;
}
);
unicode = 0055;
},
{
glyphname = V;
lastChange = "2013-03-10 15:35:19 +0200";
layers = (
{
layerId = UUID0;
name = "Regular Italic";
paths = (
{
closed = 1;
nodes = (
"475 197 LINE",
"475 290 OFFCURVE",
"468 401 OFFCURVE",
"455 532 CURVE",
"358 1462 LINE",
"188 1462 LINE",
"350 0 LINE",
"530 0 LINE",
"1311 1462 LINE",
"1120 1462 LINE",
"641 535 LINE SMOOTH",
"574 406 OFFCURVE",
"520 293 OFFCURVE",
"479 197 CURVE"
);
}
);
width = 1122;
}
);
unicode = 0056;
},
{
glyphname = W;
lastChange = "2013-03-10 15:35:19 +0200";
layers = (
{
layerId = UUID0;
name = "Regular Italic";
paths = (
{
closed = 1;
nodes = (
"1921 1462 LINE",
"1739 1462 LINE",
"1352 569 LINE SMOOTH",
"1315 482 OFFCURVE",
"1271 364 OFFCURVE",
"1221 215 CURVE",
"1212 215 LINE",
"1213 298 LINE",
"1213 399 OFFCURVE",
"1210 500 OFFCURVE",
"1204 602 CURVE",
"1161 1462 LINE",
"983 1462 LINE",
"578 598 LINE",
"533 505 OFFCURVE",
"481 377 OFFCURVE",
"422 215 CURVE",
"416 215 LINE",
"423 322 OFFCURVE",
"426 408 OFFCURVE",
"426 473 CURVE",
"424 561 LINE",
"393 1462 LINE",
"223 1462 LINE",
"285 0 LINE",
"459 0 LINE",
"771 673 OFFCURVE",
"939 1037 OFFCURVE",
"963 1092 CURVE SMOOTH",
"987 1147 OFFCURVE",
"1007 1199 OFFCURVE",
"1024 1247 CURVE",
"1030 1247 LINE",
"1030 1150 OFFCURVE",
"1033 1056 OFFCURVE",
"1038 965 CURVE SMOOTH",
"1087 0 LINE",
"1257 0 LINE"
);
}
);
width = 1745;
}
);
unicode = 0057;
},
{
glyphname = X;
lastChange = "2013-03-10 15:35:19 +0200";
layers = (
{
layerId = UUID0;
name = "Regular Italic";
paths = (
{
closed = 1;
nodes = (
"678 768 LINE",
"1233 1462 LINE",
"1047 1462 LINE",
"604 899 LINE",
"401 1462 LINE",
"229 1462 LINE",
"492 776 LINE",
"-104 0 LINE",
"82 0 LINE",
"563 641 LINE",
"776 0 LINE",
"956 0 LINE"
);
}
);
width = 1063;
}
);
unicode = 0058;
},
{
glyphname = Y;
lastChange = "2013-03-10 15:35:19 +0200";
layers = (
{
layerId = UUID0;
name = "Regular Italic";
paths = (
{
closed = 1;
nodes = (
"358 1462 LINE",
"188 1462 LINE",
"426 549 LINE",
"307 0 LINE",
"479 0 LINE",
"592 541 LINE",
"1219 1462 LINE",
"1026 1462 LINE",
"537 715 LINE"
);
}
);
width = 1030;
}
);
unicode = 0059;
},
{
glyphname = Z;
lastChange = "2013-03-10 15:35:19 +0200";
layers = (
{
layerId = UUID0;
name = "Regular Italic";
paths = (
{
closed = 1;
nodes = (
"918 154 LINE",
"221 154 LINE",
"1145 1323 LINE",
"1171 1462 LINE",
"313 1462 LINE",
"281 1307 LINE",
"936 1307 LINE",
"12 137 LINE",
"-16 0 LINE",
"885 0 LINE"
);
}
);
width = 1087;
}
);
unicode = 005A;
},
{
glyphname = a;
lastChange = "2013-03-10 15:35:19 +0200";
layers = (
{
layerId = UUID0;
name = "Regular Italic";
paths = (
{
closed = 1;
nodes = (
"540 1116 OFFCURVE",
"448 1082 OFFCURVE",
"365 1015 CURVE SMOOTH",
"282 948 OFFCURVE",
"216 855 OFFCURVE",
"169 736 CURVE SMOOTH",
"122 617 OFFCURVE",
"98 489 OFFCURVE",
"98 350 CURVE SMOOTH",
"98 235 OFFCURVE",
"124 145 OFFCURVE",
"177 79 CURVE SMOOTH",
"230 13 OFFCURVE",
"302 -20 OFFCURVE",
"395 -20 CURVE SMOOTH",
"527 -20 OFFCURVE",
"653 56 OFFCURVE",
"772 209 CURVE",
"780 209 LINE",
"754 0 LINE",
"887 0 LINE",
"1120 1096 LINE",
"993 1096 LINE",
"926 924 LINE",
"915 924 LINE",
"862 1048 OFFCURVE",
"762 1116 OFFCURVE",
"639 1116 CURVE SMOOTH"
);
},
{
closed = 1;
nodes = (
"336 119 OFFCURVE",
"270 194 OFFCURVE",
"270 346 CURVE SMOOTH",
"270 455 OFFCURVE",
"287 558 OFFCURVE",
"321 656 CURVE SMOOTH",
"355 754 OFFCURVE",
"402 832 OFFCURVE",
"461 889 CURVE SMOOTH",
"521 946 OFFCURVE",
"586 975 OFFCURVE",
"655 975 CURVE SMOOTH",
"716 975 OFFCURVE",
"765 955 OFFCURVE",
"802 914 CURVE SMOOTH",
"839 873 OFFCURVE",
"858 819 OFFCURVE",
"858 750 CURVE SMOOTH",
"858 651 OFFCURVE",
"838 551 OFFCURVE",
"798 452 CURVE SMOOTH",
"758 353 OFFCURVE",
"706 273 OFFCURVE",
"642 211 CURVE SMOOTH",
"578 150 OFFCURVE",
"514 119 OFFCURVE",
"449 119 CURVE SMOOTH"
);
}
);
width = 1157;
}
);
unicode = 0061;
},
{
glyphname = ae;
lastChange = "2013-03-10 15:35:20 +0200";
layers = (
{
layerId = UUID0;
name = "Regular Italic";
paths = (
{
closed = 1;
nodes = (
"1274 -20 OFFCURVE",
"1384 5 OFFCURVE",
"1493 55 CURVE",
"1493 205 LINE",
"1415 171 OFFCURVE",
"1355 148 OFFCURVE",
"1314 137 CURVE SMOOTH",
"1273 126 OFFCURVE",
"1235 121 OFFCURVE",
"1198 121 CURVE SMOOTH",
"1023 121 OFFCURVE",
"942 224 OFFCURVE",
"942 399 CURVE",
"946 479 LINE",
"985 479 LINE SMOOTH",
"1189 479 OFFCURVE",
"1346 513 OFFCURVE",
"1457 580 CURVE SMOOTH",
"1568 648 OFFCURVE",
"1624 743 OFFCURVE",
"1624 864 CURVE SMOOTH",
"1624 941 OFFCURVE",
"1599 1003 OFFCURVE",
"1550 1048 CURVE SMOOTH",
"1501 1093 OFFCURVE",
"1437 1116 OFFCURVE",
"1358 1116 CURVE SMOOTH",
"1219 1116 OFFCURVE",
"1108 1061 OFFCURVE",
"1026 950 CURVE",
"1057 1096 LINE",
"948 1096 LINE",
"881 924 LINE",
"870 924 LINE",
"818 1051 OFFCURVE",
"732 1116 OFFCURVE",
"623 1116 CURVE SMOOTH",
"528 1116 OFFCURVE",
"441 1082 OFFCURVE",
"360 1014 CURVE SMOOTH",
"279 946 OFFCURVE",
"215 852 OFFCURVE",
"168 733 CURVE SMOOTH",
"121 614 OFFCURVE",
"98 485 OFFCURVE",
"98 348 CURVE SMOOTH",
"98 235 OFFCURVE",
"121 145 OFFCURVE",
"167 79 CURVE SMOOTH",
"213 13 OFFCURVE",
"277 -20 OFFCURVE",
"358 -20 CURVE SMOOTH",
"421 -20 OFFCURVE",
"480 -4 OFFCURVE",
"535 28 CURVE SMOOTH",
"590 61 OFFCURVE",
"654 121 OFFCURVE",
"727 209 CURVE",
"735 209 LINE",
"709 0 LINE",
"823 0 LINE",
"854 139 LINE",
"907 32 OFFCURVE",
"1021 -20 OFFCURVE",
"1165 -20 CURVE SMOOTH"
);
},
{
closed = 1;
nodes = (
"321 119 OFFCURVE",
"270 196 OFFCURVE",
"270 348 CURVE SMOOTH",
"270 457 OFFCURVE",
"287 560 OFFCURVE",
"320 657 CURVE SMOOTH",
"353 754 OFFCURVE",
"399 831 OFFCURVE",
"458 888 CURVE SMOOTH",
"517 946 OFFCURVE",
"579 975 OFFCURVE",
"645 975 CURVE SMOOTH",
"748 975 OFFCURVE",
"813 887 OFFCURVE",
"813 750 CURVE SMOOTH",
"813 650 OFFCURVE",
"793 550 OFFCURVE",
"753 451 CURVE SMOOTH",
"714 352 OFFCURVE",
"663 271 OFFCURVE",
"600 210 CURVE SMOOTH",
"538 149 OFFCURVE",
"475 119 OFFCURVE",
"412 119 CURVE SMOOTH"
);
},
{
closed = 1;
nodes = (
"1409 973 OFFCURVE",
"1458 927 OFFCURVE",
"1458 846 CURVE SMOOTH",
"1458 698 OFFCURVE",
"1288 618 OFFCURVE",
"987 618 CURVE SMOOTH",
"973 618 LINE",
"1004 729 OFFCURVE",
"1051 815 OFFCURVE",
"1114 878 CURVE SMOOTH",
"1177 941 OFFCURVE",
"1247 973 OFFCURVE",
"1325 973 CURVE SMOOTH"
);
}
);
width = 1669;
}
);
unicode = 00E6;
},
{
glyphname = b;
lastChange = "2013-03-10 15:35:19 +0200";
layers = (
{
layerId = UUID0;
name = "Regular Italic";
paths = (
{
closed = 1;
nodes = (
"648 -20 OFFCURVE",
"740 13 OFFCURVE",
"821 79 CURVE SMOOTH",
"903 146 OFFCURVE",
"967 238 OFFCURVE",
"1012 356 CURVE SMOOTH",
"1058 475 OFFCURVE",
"1081 604 OFFCURVE",
"1081 743 CURVE SMOOTH",
"1081 858 OFFCURVE",
"1055 949 OFFCURVE",
"1002 1015 CURVE SMOOTH",
"949 1081 OFFCURVE",
"876 1114 OFFCURVE",
"782 1114 CURVE SMOOTH",
"654 1114 OFFCURVE",
"536 1042 OFFCURVE",
"412 885 CURVE",
"403 885 LINE",
"435 1000 OFFCURVE",
"460 1100 OFFCURVE",
"478 1185 CURVE SMOOTH",
"497 1271 OFFCURVE",
"523 1395 OFFCURVE",
"557 1556 CURVE",
"389 1556 LINE",
"59 0 LINE",
"184 0 LINE",
"254 170 LINE",
"264 170 LINE",
"313 53 OFFCURVE",
"416 -20 OFFCURVE",
"545 -20 CURVE SMOOTH"
);
},
{
closed = 1;
nodes = (
"850 975 OFFCURVE",
"909 899 OFFCURVE",
"909 748 CURVE SMOOTH",
"909 636 OFFCURVE",
"892 530 OFFCURVE",
"857 430 CURVE SMOOTH",
"822 331 OFFCURVE",
"776 254 OFFCURVE",
"719 200 CURVE SMOOTH",
"662 146 OFFCURVE",
"601 119 OFFCURVE",
"535 119 CURVE SMOOTH",
"395 119 OFFCURVE",
"319 199 OFFCURVE",
"319 346 CURVE SMOOTH",
"319 447 OFFCURVE",
"338 545 OFFCURVE",
"377 641 CURVE SMOOTH",
"416 737 OFFCURVE",
"469 817 OFFCURVE",
"535 880 CURVE SMOOTH",
"602 943 OFFCURVE",
"667 975 OFFCURVE",
"731 975 CURVE SMOOTH"
);
}
);
width = 1182;
}
);
unicode = 0062;
},
{
glyphname = c;
lastChange = "2013-03-10 15:35:19 +0200";
layers = (
{
layerId = UUID0;
name = "Regular Italic";
paths = (
{
closed = 1;
nodes = (
"607 -20 OFFCURVE",
"699 1 OFFCURVE",
"782 43 CURVE",
"782 186 LINE",
"699 150 OFFCURVE",
"616 119 OFFCURVE",
"520 119 CURVE SMOOTH",
"364 119 OFFCURVE",
"270 218 OFFCURVE",
"270 389 CURVE SMOOTH",
"270 496 OFFCURVE",
"287 594 OFFCURVE",
"322 685 CURVE SMOOTH",
"357 776 OFFCURVE",
"406 847 OFFCURVE",
"467 898 CURVE SMOOTH",
"529 949 OFFCURVE",
"597 975 OFFCURVE",
"672 975 CURVE SMOOTH",
"738 975 OFFCURVE",
"811 958 OFFCURVE",
"891 924 CURVE",
"938 1065 LINE",
"851 1099 OFFCURVE",
"761 1116 OFFCURVE",
"670 1116 CURVE SMOOTH",
"561 1116 OFFCURVE",
"463 1084 OFFCURVE",
"376 1021 CURVE SMOOTH",
"289 958 OFFCURVE",
"221 871 OFFCURVE",
"172 758 CURVE SMOOTH",
"123 645 OFFCURVE",
"98 522 OFFCURVE",
"98 389 CURVE SMOOTH",
"98 259 OFFCURVE",
"134 158 OFFCURVE",
"205 87 CURVE SMOOTH",
"276 16 OFFCURVE",
"377 -20 OFFCURVE",
"506 -20 CURVE SMOOTH"
);
}
);
width = 922;
}
);
unicode = 0063;
},
{
glyphname = d;
lastChange = "2013-03-10 15:35:19 +0200";
layers = (
{
layerId = UUID0;
name = "Regular Italic";
paths = (
{
closed = 1;
nodes = (
"538 1114 OFFCURVE",
"446 1082 OFFCURVE",
"364 1017 CURVE SMOOTH",
"283 952 OFFCURVE",
"218 861 OFFCURVE",
"170 742 CURVE SMOOTH",
"122 623 OFFCURVE",
"98 493 OFFCURVE",
"98 350 CURVE SMOOTH",
"98 234 OFFCURVE",
"124 143 OFFCURVE",
"176 78 CURVE SMOOTH",
"228 13 OFFCURVE",
"300 -20 OFFCURVE",
"393 -20 CURVE SMOOTH",
"456 -20 OFFCURVE",
"516 -3 OFFCURVE",
"575 32 CURVE SMOOTH",
"634 67 OFFCURVE",
"697 126 OFFCURVE",
"764 209 CURVE",
"772 209 LINE",
"750 0 LINE",
"889 0 LINE",
"1219 1556 LINE",
"1053 1556 LINE",
"975 1198 LINE",
"956 1119 OFFCURVE",
"941 1027 OFFCURVE",
"930 924 CURVE",
"920 924 LINE",
"862 1051 OFFCURVE",
"768 1114 OFFCURVE",
"639 1114 CURVE SMOOTH"
);
},
{
closed = 1;
nodes = (
"330 119 OFFCURVE",
"270 195 OFFCURVE",
"270 346 CURVE SMOOTH",
"270 456 OFFCURVE",
"287 561 OFFCURVE",
"322 660 CURVE SMOOTH",
"357 760 OFFCURVE",
"404 837 OFFCURVE",
"461 892 CURVE SMOOTH",
"519 947 OFFCURVE",
"582 975 OFFCURVE",
"649 975 CURVE SMOOTH",
"786 975 OFFCURVE",
"860 896 OFFCURVE",
"860 748 CURVE SMOOTH",
"860 647 OFFCURVE",
"840 548 OFFCURVE",
"801 451 CURVE SMOOTH",
"762 354 OFFCURVE",
"710 275 OFFCURVE",
"643 212 CURVE SMOOTH",
"576 150 OFFCURVE",
"512 119 OFFCURVE",
"449 119 CURVE SMOOTH"
);
}
);
width = 1182;
}
);
unicode = 0064;
},
{
glyphname = e;
lastChange = "2013-03-10 15:35:19 +0200";
layers = (
{
layerId = UUID0;
name = "Regular Italic";
paths = (
{
closed = 1;
nodes = (
"550 -20 OFFCURVE",
"603 -14 OFFCURVE",
"651 -2 CURVE SMOOTH",
"699 9 OFFCURVE",
"754 30 OFFCURVE",
"817 59 CURVE",
"817 205 LINE",
"751 173 OFFCURVE",
"696 151 OFFCURVE",
"651 139 CURVE SMOOTH",
"607 127 OFFCURVE",
"564 121 OFFCURVE",
"522 121 CURVE SMOOTH",
"350 121 OFFCURVE",
"270 224 OFFCURVE",
"270 399 CURVE",
"274 479 LINE",
"307 479 LINE SMOOTH",
"513 479 OFFCURVE",
"671 513 OFFCURVE",
"782 581 CURVE SMOOTH",
"893 650 OFFCURVE",
"948 744 OFFCURVE",
"948 864 CURVE SMOOTH",
"948 1023 OFFCURVE",
"845 1116 OFFCURVE",
"641 1116 CURVE SMOOTH",
"542 1116 OFFCURVE",
"452 1084 OFFCURVE",
"370 1020 CURVE SMOOTH",
"288 956 OFFCURVE",
"222 866 OFFCURVE",
"172 751 CURVE SMOOTH",
"123 636 OFFCURVE",
"98 516 OFFCURVE",
"98 391 CURVE SMOOTH",
"98 262 OFFCURVE",
"133 162 OFFCURVE",
"203 89 CURVE SMOOTH",
"273 16 OFFCURVE",
"369 -20 OFFCURVE",
"492 -20 CURVE SMOOTH"
);
},
{
closed = 1;
nodes = (
"735 973 OFFCURVE",
"782 921 OFFCURVE",
"782 850 CURVE SMOOTH",
"782 699 OFFCURVE",
"615 618 OFFCURVE",
"311 618 CURVE SMOOTH",
"299 618 LINE",
"331 729 OFFCURVE",
"377 816 OFFCURVE",
"437 879 CURVE SMOOTH",
"498 942 OFFCURVE",
"562 973 OFFCURVE",
"631 973 CURVE SMOOTH"
);
}
);
width = 1010;
}
);
unicode = 0065;
},
{
glyphname = f;
lastChange = "2013-03-10 15:35:19 +0200";
layers = (
{
layerId = UUID0;
name = "Regular Italic";
paths = (
{
closed = 1;
nodes = (
"72 -492 OFFCURVE",
"177 -381 OFFCURVE",
"229 -129 CURVE",
"461 969 LINE",
"698 969 LINE",
"723 1096 LINE",
"485 1096 LINE",
"510 1204 LINE SMOOTH",
"529 1290 OFFCURVE",
"554 1349 OFFCURVE",
"585 1381 CURVE SMOOTH",
"616 1414 OFFCURVE",
"661 1430 OFFCURVE",
"719 1430 CURVE SMOOTH",
"760 1430 OFFCURVE",
"805 1420 OFFCURVE",
"856 1401 CURVE",
"899 1530 LINE",
"878 1539 OFFCURVE",
"848 1548 OFFCURVE",
"809 1555 CURVE SMOOTH",
"770 1563 OFFCURVE",
"738 1567 OFFCURVE",
"711 1567 CURVE SMOOTH",
"604 1567 OFFCURVE",
"524 1539 OFFCURVE",
"469 1484 CURVE SMOOTH",
"415 1429 OFFCURVE",
"373 1335 OFFCURVE",
"342 1202 CURVE SMOOTH",
"319 1102 LINE",
"113 1036 LINE",
"100 969 LINE",
"293 969 LINE",
"66 -113 LINE",
"33 -266 OFFCURVE",
"-16 -352 OFFCURVE",
"-117 -352 CURVE SMOOTH",
"-149 -352 OFFCURVE",
"-186 -345 OFFCURVE",
"-229 -330 CURVE",
"-229 -471 LINE",
"-192 -485 OFFCURVE",
"-150 -492 OFFCURVE",
"-104 -492 CURVE SMOOTH"
);
}
);
width = 641;
}
);
unicode = 0066;
},
{
glyphname = g;
lastChange = "2013-03-10 15:35:19 +0200";
layers = (
{
layerId = UUID0;
name = "Regular Italic";
paths = (
{
closed = 1;
nodes = (
"729 1096 LINE",
"678 1109 OFFCURVE",
"627 1116 OFFCURVE",
"575 1116 CURVE SMOOTH",
"451 1116 OFFCURVE",
"349 1075 OFFCURVE",
"269 992 CURVE SMOOTH",
"190 909 OFFCURVE",
"150 803 OFFCURVE",
"150 674 CURVE SMOOTH",
"150 563 OFFCURVE",
"209 477 OFFCURVE",
"293 434 CURVE",
"172 377 OFFCURVE",
"100 315 OFFCURVE",
"100 223 CURVE SMOOTH",
"100 170 OFFCURVE",
"126 129 OFFCURVE",
"178 102 CURVE",
"-37 30 OFFCURVE",
"-127 -71 OFFCURVE",
"-127 -211 CURVE SMOOTH",
"-127 -300 OFFCURVE",
"-90 -369 OFFCURVE",
"-17 -418 CURVE SMOOTH",
"56 -467 OFFCURVE",
"158 -492 OFFCURVE",
"287 -492 CURVE SMOOTH",
"464 -492 OFFCURVE",
"601 -458 OFFCURVE",
"698 -391 CURVE SMOOTH",
"795 -324 OFFCURVE",
"844 -229 OFFCURVE",
"844 -106 CURVE SMOOTH",
"844 -21 OFFCURVE",
"817 44 OFFCURVE",
"762 88 CURVE SMOOTH",
"708 132 OFFCURVE",
"621 161 OFFCURVE",
"500 176 CURVE SMOOTH",
"383 190 LINE SMOOTH",
"299 201 OFFCURVE",
"254 211 OFFCURVE",
"254 266 CURVE SMOOTH",
"254 318 OFFCURVE",
"300 362 OFFCURVE",
"393 397 CURVE",
"412 392 OFFCURVE",
"440 389 OFFCURVE",
"477 389 CURVE SMOOTH",
"607 389 OFFCURVE",
"711 427 OFFCURVE",
"788 502 CURVE SMOOTH",
"866 578 OFFCURVE",
"905 680 OFFCURVE",
"905 807 CURVE SMOOTH",
"905 871 OFFCURVE",
"891 924 OFFCURVE",
"864 965 CURVE",
"1075 989 LINE",
"1100 1096 LINE"
);
},
{
closed = 1;
nodes = (
"35 -76 OFFCURVE",
"123 12 OFFCURVE",
"283 45 CURVE",
"442 29 LINE",
"615 10 OFFCURVE",
"680 -36 OFFCURVE",
"680 -119 CURVE SMOOTH",
"680 -274 OFFCURVE",
"536 -362 OFFCURVE",
"293 -362 CURVE SMOOTH",
"122 -362 OFFCURVE",
"35 -298 OFFCURVE",
"35 -195 CURVE SMOOTH"
);
},
{
closed = 1;
nodes = (
"312 850 OFFCURVE",
"418 996 OFFCURVE",
"573 991 CURVE",
"682 991 OFFCURVE",
"743 932 OFFCURVE",
"743 823 CURVE",
"745 651 OFFCURVE",
"641 501 OFFCURVE",
"483 506 CURVE",
"376 506 OFFCURVE",
"313 567 OFFCURVE",
"313 680 CURVE SMOOTH"
);
}
);
width = 1026;
}
);
unicode = 0067;
},
{
glyphname = h;
lastChange = "2013-03-10 15:35:19 +0200";
layers = (
{
layerId = UUID0;
name = "Regular Italic";
paths = (
{
closed = 1;
nodes = (
"897 0 LINE",
"968 319 OFFCURVE",
"1016 543 OFFCURVE",
"1042 672 CURVE",
"1057 741 OFFCURVE",
"1065 797 OFFCURVE",
"1065 838 CURVE SMOOTH",
"1065 1014 OFFCURVE",
"966 1114 OFFCURVE",
"791 1114 CURVE SMOOTH",
"658 1114 OFFCURVE",
"539 1049 OFFCURVE",
"414 885 CURVE",
"403 885 LINE",
"475 1157 OFFCURVE",
"509 1337 OFFCURVE",
"557 1556 CURVE",
"389 1556 LINE",
"59 0 LINE",
"227 0 LINE",
"328 473 LINE",
"394 791 OFFCURVE",
"569 975 OFFCURVE",
"748 975 CURVE SMOOTH",
"846 975 OFFCURVE",
"895 926 OFFCURVE",
"895 827 CURVE SMOOTH",
"895 800 OFFCURVE",
"889 755 OFFCURVE",
"877 692 CURVE",
"729 0 LINE"
);
}
);
width = 1182;
}
);
unicode = 0068;
},
{
glyphname = i;
lastChange = "2013-03-10 15:35:19 +0200";
layers = (
{
layerId = UUID0;
name = "Regular Italic";
paths = (
{
closed = 1;
nodes = (
"461 1096 LINE",
"293 1096 LINE",
"59 0 LINE",
"227 0 LINE"
);
},
{
closed = 1;
nodes = (
"340 1316 OFFCURVE",
"379 1282 OFFCURVE",
"432 1282 CURVE SMOOTH",
"461 1282 OFFCURVE",
"487 1295 OFFCURVE",
"509 1320 CURVE SMOOTH",
"532 1345 OFFCURVE",
"543 1376 OFFCURVE",
"543 1413 CURVE SMOOTH",
"543 1473 OFFCURVE",
"514 1503 OFFCURVE",
"455 1503 CURVE SMOOTH",
"387 1503 OFFCURVE",
"340 1451 OFFCURVE",
"340 1376 CURVE SMOOTH"
);
}
);
width = 520;
}
);
unicode = 0069;
},
{
glyphname = dotlessi;
lastChange = "2013-03-10 15:35:20 +0200";
layers = (
{
layerId = UUID0;
name = "Regular Italic";
paths = (
{
closed = 1;
nodes = (
"461 1096 LINE",
"293 1096 LINE",
"59 0 LINE",
"227 0 LINE"
);
}
);
width = 520;
}
);
unicode = 0131;
},
{
glyphname = j;
lastChange = "2013-03-10 15:35:19 +0200";
layers = (
{
layerId = UUID0;
name = "Regular Italic";
paths = (
{
closed = 1;
nodes = (
"45 -492 OFFCURVE",
"145 -390 OFFCURVE",
"193 -162 CURVE SMOOTH",
"459 1096 LINE",
"293 1096 LINE",
"29 -147 LINE SMOOTH",
"0 -284 OFFCURVE",
"-56 -352 OFFCURVE",
"-139 -352 CURVE SMOOTH",
"-178 -352 OFFCURVE",
"-217 -345 OFFCURVE",
"-258 -330 CURVE",
"-258 -471 LINE",
"-222 -485 OFFCURVE",
"-181 -492 OFFCURVE",
"-135 -492 CURVE SMOOTH"
);
},
{
closed = 1;
nodes = (
"340 1316 OFFCURVE",
"379 1282 OFFCURVE",
"430 1282 CURVE SMOOTH",
"459 1282 OFFCURVE",
"485 1295 OFFCURVE",
"507 1320 CURVE SMOOTH",
"530 1345 OFFCURVE",
"541 1376 OFFCURVE",
"541 1413 CURVE SMOOTH",
"541 1473 OFFCURVE",
"512 1503 OFFCURVE",
"455 1503 CURVE SMOOTH",
"387 1503 OFFCURVE",
"340 1451 OFFCURVE",
"340 1376 CURVE SMOOTH"
);
}
);
width = 520;
}
);
unicode = 006A;
},
{
glyphname = k;
lastChange = "2013-03-10 15:35:19 +0200";
layers = (
{
layerId = UUID0;
name = "Regular Italic";
paths = (
{
closed = 1;
nodes = (
"326 559 LINE",
"356 645 OFFCURVE",
"390 777 OFFCURVE",
"428 954 CURVE SMOOTH",
"557 1556 LINE",
"387 1556 LINE",
"57 0 LINE",
"227 0 LINE",
"309 401 LINE",
"461 524 LINE",
"696 0 LINE",
"883 0 LINE",
"588 629 LINE",
"1057 1096 LINE",
"856 1096 LINE",
"330 559 LINE"
);
}
);
width = 999;
}
);
unicode = 006B;
},
{
glyphname = l;
lastChange = "2013-03-10 15:35:19 +0200";
layers = (
{
layerId = UUID0;
name = "Regular Italic";
paths = (
{
closed = 1;
nodes = (
"557 1556 LINE",
"389 1556 LINE",
"57 0 LINE",
"225 0 LINE"
);
}
);
width = 520;
}
);
unicode = 006C;
},
{
glyphname = m;
lastChange = "2013-03-10 15:35:19 +0200";
layers = (
{
layerId = UUID0;
name = "Regular Italic";
paths = (
{
closed = 1;
nodes = (
"864 0 LINE",
"971 500 LINE",
"1029 790 OFFCURVE",
"1198 976 OFFCURVE",
"1360 975 CURVE SMOOTH",
"1459 975 OFFCURVE",
"1503 921 OFFCURVE",
"1503 838 CURVE SMOOTH",
"1503 810 OFFCURVE",
"1496 761 OFFCURVE",
"1483 692 CURVE",
"1335 0 LINE",
"1505 0 LINE",
"1649 672 LINE SMOOTH",
"1664 745 OFFCURVE",
"1671 805 OFFCURVE",
"1671 850 CURVE SMOOTH",
"1671 1023 OFFCURVE",
"1574 1116 OFFCURVE",
"1405 1116 CURVE SMOOTH",
"1273 1116 OFFCURVE",
"1141 1037 OFFCURVE",
"1026 870 CURVE",
"1018 870 LINE",
"1003 1025 OFFCURVE",
"923 1116 OFFCURVE",
"772 1116 CURVE SMOOTH",
"649 1116 OFFCURVE",
"536 1052 OFFCURVE",
"420 893 CURVE",
"410 893 LINE",
"432 1096 LINE",
"293 1096 LINE",
"59 0 LINE",
"227 0 LINE",
"328 475 LINE SMOOTH",
"394 787 OFFCURVE",
"555 975 OFFCURVE",
"725 975 CURVE SMOOTH",
"825 975 OFFCURVE",
"862 920 OFFCURVE",
"862 827 CURVE SMOOTH",
"862 800 OFFCURVE",
"856 755 OFFCURVE",
"844 692 CURVE",
"696 0 LINE"
);
}
);
width = 1786;
}
);
unicode = 006D;
},
{
glyphname = n;
lastChange = "2013-03-10 15:35:19 +0200";
layers = (
{
layerId = UUID0;
name = "Regular Italic";
paths = (
{
closed = 1;
nodes = (
"899 0 LINE",
"1042 672 LINE",
"1057 739 OFFCURVE",
"1065 799 OFFCURVE",
"1065 852 CURVE SMOOTH",
"1065 1019 OFFCURVE",
"960 1116 OFFCURVE",
"791 1116 CURVE SMOOTH",
"663 1116 OFFCURVE",
"548 1056 OFFCURVE",
"420 893 CURVE",
"410 893 LINE",
"432 1096 LINE",
"293 1096 LINE",
"59 0 LINE",
"227 0 LINE",
"328 475 LINE",
"393 788 OFFCURVE",
"569 975 OFFCURVE",
"748 975 CURVE SMOOTH",
"852 975 OFFCURVE",
"897 920 OFFCURVE",
"897 836 CURVE SMOOTH",
"897 809 OFFCURVE",
"890 761 OFFCURVE",
"877 692 CURVE",
"729 0 LINE"
);
}
);
width = 1182;
}
);
unicode = 006E;
},
{
glyphname = o;
lastChange = "2013-03-10 15:35:19 +0200";
layers = (
{
layerId = UUID0;
name = "Regular Italic";
paths = (
{
closed = 1;
nodes = (
"442 1110 OFFCURVE",
"268 987 OFFCURVE",
"171 763 CURVE SMOOTH",
"122 652 OFFCURVE",
"98 533 OFFCURVE",
"98 406 CURVE SMOOTH",
"98 275 OFFCURVE",
"134 172 OFFCURVE",
"207 97 CURVE SMOOTH",
"280 22 OFFCURVE",
"380 -16 OFFCURVE",
"508 -16 CURVE SMOOTH",
"715 -16 OFFCURVE",
"885 110 OFFCURVE",
"981 333 CURVE SMOOTH",
"1029 444 OFFCURVE",
"1053 563 OFFCURVE",
"1053 688 CURVE SMOOTH",
"1053 819 OFFCURVE",
"1016 922 OFFCURVE",
"943 997 CURVE SMOOTH",
"870 1072 OFFCURVE",
"770 1110 OFFCURVE",
"643 1110 CURVE SMOOTH"
);
},
{
closed = 1;
nodes = (
"882 365 OFFCURVE",
"723 117 OFFCURVE",
"516 123 CURVE",
"357 123 OFFCURVE",
"270 222 OFFCURVE",
"270 397 CURVE SMOOTH",
"270 504 OFFCURVE",
"286 602 OFFCURVE",
"317 689 CURVE SMOOTH",
"349 777 OFFCURVE",
"394 846 OFFCURVE",
"451 895 CURVE SMOOTH",
"509 944 OFFCURVE",
"574 969 OFFCURVE",
"647 969 CURVE SMOOTH",
"718 969 OFFCURVE",
"775 945 OFFCURVE",
"816 897 CURVE",
"858 850 OFFCURVE",
"879 788 OFFCURVE",
"879 711 CURVE"
);
}
);
width = 1149;
}
);
unicode = 006F;
},
{
glyphname = oslash;
lastChange = "2013-03-10 15:35:20 +0200";
layers = (
{
layerId = UUID0;
name = "Regular Italic";
paths = (
{
closed = 1;
nodes = (
"1047 812 OFFCURVE",
"1026 898 OFFCURVE",
"985 963 CURVE",
"1104 1092 LINE",
"999 1171 LINE",
"895 1042 LINE",
"824 1087 OFFCURVE",
"740 1110 OFFCURVE",
"643 1110 CURVE SMOOTH",
"443 1110 OFFCURVE",
"274 990 OFFCURVE",
"175 767 CURVE SMOOTH",
"126 656 OFFCURVE",
"102 535 OFFCURVE",
"102 406 CURVE SMOOTH",
"102 298 OFFCURVE",
"125 210 OFFCURVE",
"170 141 CURVE",
"61 6 LINE",
"166 -76 LINE",
"264 49 LINE",
"331 6 OFFCURVE",
"413 -16 OFFCURVE",
"510 -16 CURVE SMOOTH",
"613 -16 OFFCURVE",
"705 16 OFFCURVE",
"786 79 CURVE SMOOTH",
"867 142 OFFCURVE",
"931 231 OFFCURVE",
"977 345 CURVE SMOOTH",
"1024 459 OFFCURVE",
"1047 579 OFFCURVE",
"1047 705 CURVE SMOOTH"
);
},
{
closed = 1;
nodes = (
"712 971 OFFCURVE",
"763 955 OFFCURVE",
"799 924 CURVE",
"281 279 LINE",
"270 309 OFFCURVE",
"264 355 OFFCURVE",
"264 416 CURVE SMOOTH",
"264 517 OFFCURVE",
"281 610 OFFCURVE",
"314 696 CURVE SMOOTH",
"347 782 OFFCURVE",
"393 849 OFFCURVE",
"451 898 CURVE SMOOTH",
"510 947 OFFCURVE",
"575 971 OFFCURVE",
"647 971 CURVE SMOOTH"
);
},
{
closed = 1;
nodes = (
"890 357 OFFCURVE",
"722 116 OFFCURVE",
"516 121 CURVE",
"449 121 OFFCURVE",
"396 136 OFFCURVE",
"358 166 CURVE",
"872 807 LINE",
"881 784 OFFCURVE",
"885 744 OFFCURVE",
"885 688 CURVE"
);
}
);
width = 1149;
}
);
unicode = 00F8;
},
{
glyphname = oe;
lastChange = "2013-03-10 15:35:20 +0200";
layers = (
{
layerId = UUID0;
name = "Regular Italic";
paths = (
{
closed = 1;
nodes = (
"1360 -20 OFFCURVE",
"1469 5 OFFCURVE",
"1577 55 CURVE",
"1577 205 LINE",
"1470 158 OFFCURVE",
"1382 121 OFFCURVE",
"1282 121 CURVE SMOOTH",
"1110 121 OFFCURVE",
"1030 224 OFFCURVE",
"1030 399 CURVE",
"1034 479 LINE",
"1075 479 LINE SMOOTH",
"1278 479 OFFCURVE",
"1434 513 OFFCURVE",
"1543 580 CURVE SMOOTH",
"1653 647 OFFCURVE",
"1708 742 OFFCURVE",
"1708 864 CURVE SMOOTH",
"1708 1025 OFFCURVE",
"1598 1116 OFFCURVE",
"1413 1116 CURVE SMOOTH",
"1254 1116 OFFCURVE",
"1114 1030 OFFCURVE",
"1014 885 CURVE",
"955 1035 OFFCURVE",
"835 1110 OFFCURVE",
"655 1110 CURVE SMOOTH",
"448 1110 OFFCURVE",
"273 989 OFFCURVE",
"173 766 CURVE SMOOTH",
"123 655 OFFCURVE",
"98 535 OFFCURVE",
"98 406 CURVE SMOOTH",
"98 277 OFFCURVE",
"134 174 OFFCURVE",
"206 98 CURVE SMOOTH",
"278 22 OFFCURVE",
"375 -16 OFFCURVE",
"498 -16 CURVE SMOOTH",
"662 -16 OFFCURVE",
"803 62 OFFCURVE",
"895 205 CURVE",
"952 55 OFFCURVE",
"1071 -20 OFFCURVE",
"1251 -20 CURVE SMOOTH"
);
},
{
closed = 1;
nodes = (
"802 969 OFFCURVE",
"883 876 OFFCURVE",
"883 711 CURVE SMOOTH",
"883 533 OFFCURVE",
"849 390 OFFCURVE",
"782 283 CURVE SMOOTH",
"715 176 OFFCURVE",
"622 123 OFFCURVE",
"504 123 CURVE SMOOTH",
"357 123 OFFCURVE",
"270 222 OFFCURVE",
"270 410 CURVE SMOOTH",
"270 513 OFFCURVE",
"286 608 OFFCURVE",
"318 694 CURVE SMOOTH",
"350 780 OFFCURVE",
"395 847 OFFCURVE",
"453 896 CURVE SMOOTH",
"511 945 OFFCURVE",
"576 969 OFFCURVE",
"649 969 CURVE SMOOTH"
);
},
{
closed = 1;
nodes = (
"1500 973 OFFCURVE",
"1542 920 OFFCURVE",
"1542 856 CURVE SMOOTH",
"1542 701 OFFCURVE",
"1379 618 OFFCURVE",
"1071 618 CURVE SMOOTH",
"1053 618 LINE",
"1082 729 OFFCURVE",
"1129 815 OFFCURVE",
"1192 878 CURVE SMOOTH",
"1256 941 OFFCURVE",
"1330 973 OFFCURVE",
"1413 973 CURVE SMOOTH"
);
}
);
width = 1769;
}
);
unicode = 0153;
},
{
glyphname = p;
lastChange = "2013-03-10 15:35:19 +0200";
layers = (
{
layerId = UUID0;
name = "Regular Italic";
paths = (
{
closed = 1;
nodes = (
"648 -20 OFFCURVE",
"740 13 OFFCURVE",
"821 78 CURVE SMOOTH",
"902 144 OFFCURVE",
"966 236 OFFCURVE",
"1012 354 CURVE SMOOTH",
"1058 472 OFFCURVE",
"1081 602 OFFCURVE",
"1081 743 CURVE SMOOTH",
"1081 860 OFFCURVE",
"1055 951 OFFCURVE",
"1002 1016 CURVE SMOOTH",
"949 1081 OFFCURVE",
"877 1114 OFFCURVE",
"786 1114 CURVE SMOOTH",
"657 1114 OFFCURVE",
"533 1038 OFFCURVE",
"414 887 CURVE",
"406 887 LINE",
"432 1096 LINE",
"293 1096 LINE",
"-43 -492 LINE",
"123 -492 LINE",
"194 -153 OFFCURVE",
"232 32 OFFCURVE",
"237 62 CURVE SMOOTH",
"242 92 OFFCURVE",
"246 115 OFFCURVE",
"248 132 CURVE SMOOTH",
"252 170 LINE",
"262 170 LINE",
"315 50 OFFCURVE",
"416 -20 OFFCURVE",
"545 -20 CURVE SMOOTH"
);
},
{
closed = 1;
nodes = (
"850 975 OFFCURVE",
"909 899 OFFCURVE",
"909 748 CURVE SMOOTH",
"909 636 OFFCURVE",
"892 530 OFFCURVE",
"857 430 CURVE SMOOTH",
"822 331 OFFCURVE",
"776 254 OFFCURVE",
"719 200 CURVE SMOOTH",
"662 146 OFFCURVE",
"601 119 OFFCURVE",
"535 119 CURVE SMOOTH",
"395 119 OFFCURVE",
"319 199 OFFCURVE",
"319 346 CURVE SMOOTH",
"319 447 OFFCURVE",
"338 545 OFFCURVE",
"377 641 CURVE SMOOTH",
"416 737 OFFCURVE",
"469 817 OFFCURVE",
"535 880 CURVE SMOOTH",
"602 943 OFFCURVE",
"667 975 OFFCURVE",
"731 975 CURVE SMOOTH"
);
}
);
width = 1182;
}
);
unicode = 0070;
},
{
glyphname = q;
lastChange = "2013-03-10 15:35:19 +0200";
layers = (
{
layerId = UUID0;
name = "Regular Italic";
paths = (
{
closed = 1;
nodes = (
"440 1116 OFFCURVE",
"267 982 OFFCURVE",
"170 742 CURVE SMOOTH",
"122 622 OFFCURVE",
"98 491 OFFCURVE",
"98 350 CURVE SMOOTH",
"98 233 OFFCURVE",
"124 142 OFFCURVE",
"177 77 CURVE SMOOTH",
"230 12 OFFCURVE",
"304 -20 OFFCURVE",
"397 -20 CURVE SMOOTH",
"525 -20 OFFCURVE",
"641 48 OFFCURVE",
"768 209 CURVE",
"776 209 LINE",
"744 92 OFFCURVE",
"725 18 OFFCURVE",
"719 -12 CURVE SMOOTH",
"618 -492 LINE",
"784 -492 LINE",
"1120 1096 LINE",
"995 1096 LINE",
"928 924 LINE",
"915 924 LINE",
"866 1045 OFFCURVE",
"766 1116 OFFCURVE",
"641 1116 CURVE SMOOTH"
);
},
{
closed = 1;
nodes = (
"330 119 OFFCURVE",
"270 195 OFFCURVE",
"270 346 CURVE SMOOTH",
"270 455 OFFCURVE",
"287 558 OFFCURVE",
"322 657 CURVE SMOOTH",
"357 756 OFFCURVE",
"403 834 OFFCURVE",
"462 890 CURVE SMOOTH",
"521 947 OFFCURVE",
"584 975 OFFCURVE",
"651 975 CURVE SMOOTH",
"782 975 OFFCURVE",
"858 888 OFFCURVE",
"858 748 CURVE SMOOTH",
"858 645 OFFCURVE",
"838 545 OFFCURVE",
"797 448 CURVE SMOOTH",
"757 351 OFFCURVE",
"704 272 OFFCURVE",
"639 211 CURVE SMOOTH",
"574 150 OFFCURVE",
"510 119 OFFCURVE",
"449 119 CURVE SMOOTH"
);
}
);
width = 1182;
}
);
unicode = 0071;
},
{
glyphname = r;
lastChange = "2013-03-10 15:35:19 +0200";
layers = (
{
layerId = UUID0;
name = "Regular Italic";
paths = (
{
closed = 1;
nodes = (
"668 1116 OFFCURVE",
"602 1085 OFFCURVE",
"539 1029 CURVE SMOOTH",
"508 1002 OFFCURVE",
"468 956 OFFCURVE",
"420 893 CURVE",
"410 893 LINE",
"432 1096 LINE",
"293 1096 LINE",
"59 0 LINE",
"227 0 LINE",
"334 502 LINE SMOOTH",
"371 675 OFFCURVE",
"455 825 OFFCURVE",
"560 905 CURVE SMOOTH",
"613 945 OFFCURVE",
"670 965 OFFCURVE",
"731 965 CURVE SMOOTH",
"766 965 OFFCURVE",
"801 961 OFFCURVE",
"836 952 CURVE",
"872 1102 LINE",
"838 1111 OFFCURVE",
"798 1116 OFFCURVE",
"752 1116 CURVE SMOOTH"
);
}
);
width = 811;
}
);
unicode = 0072;
},
{
glyphname = s;
lastChange = "2013-03-10 15:35:19 +0200";
layers = (
{
layerId = UUID0;
name = "Regular Italic";
paths = (
{
closed = 1;
nodes = (
"735 394 OFFCURVE",
"705 458 OFFCURVE",
"642 515 CURVE SMOOTH",
"611 544 OFFCURVE",
"560 578 OFFCURVE",
"489 618 CURVE SMOOTH",
"415 660 OFFCURVE",
"366 694 OFFCURVE",
"342 721 CURVE SMOOTH",
"319 748 OFFCURVE",
"307 780 OFFCURVE",
"307 817 CURVE SMOOTH",
"307 909 OFFCURVE",
"382 973 OFFCURVE",
"506 973 CURVE SMOOTH",
"585 973 OFFCURVE",
"659 959 OFFCURVE",
"726 930 CURVE SMOOTH",
"782 905 LINE",
"836 1042 LINE",
"730 1091 OFFCURVE",
"620 1116 OFFCURVE",
"506 1116 CURVE SMOOTH",
"396 1116 OFFCURVE",
"307 1088 OFFCURVE",
"240 1031 CURVE SMOOTH",
"173 975 OFFCURVE",
"139 901 OFFCURVE",
"139 809 CURVE SMOOTH",
"139 745 OFFCURVE",
"157 690 OFFCURVE",
"193 643 CURVE SMOOTH",
"229 596 OFFCURVE",
"290 549 OFFCURVE",
"377 500 CURVE",
"454 455 OFFCURVE",
"505 419 OFFCURVE",
"528 393 CURVE SMOOTH",
"551 367 OFFCURVE",
"563 335 OFFCURVE",
"563 297 CURVE SMOOTH",
"563 193 OFFCURVE",
"477 119 OFFCURVE",
"309 119 CURVE SMOOTH",
"217 119 OFFCURVE",
"101 151 OFFCURVE",
"8 207 CURVE",
"8 49 LINE",
"99 3 OFFCURVE",
"200 -20 OFFCURVE",
"313 -20 CURVE SMOOTH",
"581 -20 OFFCURVE",
"735 103 OFFCURVE",
"735 311 CURVE SMOOTH"
);
}
);
width = 877;
}
);
unicode = 0073;
},
{
glyphname = germandbls;
lastChange = "2013-03-10 15:35:19 +0200";
layers = (
{
layerId = UUID0;
name = "Regular Italic";
paths = (
{
closed = 1;
nodes = (
"40 -492 OFFCURVE",
"146 -381 OFFCURVE",
"199 -129 CURVE SMOOTH",
"473 1174 LINE",
"510 1345 OFFCURVE",
"595 1427 OFFCURVE",
"754 1427 CURVE SMOOTH",
"873 1427 OFFCURVE",
"948 1375 OFFCURVE",
"948 1290 CURVE SMOOTH",
"948 1241 OFFCURVE",
"924 1197 OFFCURVE",
"883 1154 CURVE SMOOTH",
"862 1133 OFFCURVE",
"825 1104 OFFCURVE",
"772 1067 CURVE",
"710 1021 OFFCURVE",
"669 986 OFFCURVE",
"648 962 CURVE SMOOTH",
"627 939 OFFCURVE",
"611 913 OFFCURVE",
"598 884 CURVE SMOOTH",
"586 855 OFFCURVE",
"580 823 OFFCURVE",
"580 788 CURVE SMOOTH",
"580 748 OFFCURVE",
"591 710 OFFCURVE",
"614 673 CURVE SMOOTH",
"637 636 OFFCURVE",
"678 595 OFFCURVE",
"737 549 CURVE",
"781 512 OFFCURVE",
"811 485 OFFCURVE",
"826 466 CURVE SMOOTH",
"841 447 OFFCURVE",
"852 428 OFFCURVE",
"859 407 CURVE SMOOTH",
"866 386 OFFCURVE",
"870 363 OFFCURVE",
"870 336 CURVE SMOOTH",
"870 269 OFFCURVE",
"847 216 OFFCURVE",
"802 177 CURVE SMOOTH",
"757 138 OFFCURVE",
"696 119 OFFCURVE",
"621 119 CURVE SMOOTH",
"538 119 OFFCURVE",
"441 156 OFFCURVE",
"373 211 CURVE",
"373 51 LINE",
"435 4 OFFCURVE",
"524 -20 OFFCURVE",
"641 -20 CURVE SMOOTH",
"764 -20 OFFCURVE",
"861 13 OFFCURVE",
"933 79 CURVE SMOOTH",
"1006 146 OFFCURVE",
"1042 237 OFFCURVE",
"1042 354 CURVE SMOOTH",
"1042 443 OFFCURVE",
"1009 516 OFFCURVE",
"937 587 CURVE SMOOTH",
"901 623 OFFCURVE",
"867 652 OFFCURVE",
"836 675 CURVE",
"773 719 OFFCURVE",
"741 760 OFFCURVE",
"741 797 CURVE SMOOTH",
"741 842 OFFCURVE",
"778 893 OFFCURVE",
"851 948 CURVE SMOOTH",
"943 1018 OFFCURVE",
"1002 1068 OFFCURVE",
"1029 1098 CURVE SMOOTH",
"1056 1129 OFFCURVE",
"1077 1160 OFFCURVE",
"1091 1193 CURVE SMOOTH",
"1105 1226 OFFCURVE",
"1112 1262 OFFCURVE",
"1112 1300 CURVE SMOOTH",
"1112 1467 OFFCURVE",
"986 1567 OFFCURVE",
"770 1567 CURVE SMOOTH",
"511 1567 OFFCURVE",
"364 1436 OFFCURVE",
"307 1169 CURVE SMOOTH",
"27 -145 LINE SMOOTH",
"-4 -292 OFFCURVE",
"-58 -350 OFFCURVE",
"-145 -350 CURVE SMOOTH",
"-178 -350 OFFCURVE",
"-215 -343 OFFCURVE",
"-256 -328 CURVE",
"-256 -471 LINE",
"-220 -485 OFFCURVE",
"-179 -492 OFFCURVE",
"-133 -492 CURVE SMOOTH"
);
}
);
width = 1182;
}
);
unicode = 00DF;
},
{
glyphname = t;
lastChange = "2013-03-10 15:35:19 +0200";
layers = (
{
layerId = UUID0;
name = "Regular Italic";
paths = (
{
closed = 1;
nodes = (
"326 117 OFFCURVE",
"285 158 OFFCURVE",
"285 233 CURVE SMOOTH",
"285 263 OFFCURVE",
"291 307 OFFCURVE",
"303 365 CURVE SMOOTH",
"432 969 LINE",
"705 969 LINE",
"731 1096 LINE",
"457 1096 LINE",
"512 1348 LINE",
"414 1348 LINE",
"289 1120 LINE",
"104 1042 LINE",
"90 969 LINE",
"262 969 LINE",
"135 367 LINE SMOOTH",
"123 311 OFFCURVE",
"117 261 OFFCURVE",
"117 217 CURVE SMOOTH",
"117 60 OFFCURVE",
"208 -20 OFFCURVE",
"375 -20 CURVE SMOOTH",
"395 -20 OFFCURVE",
"422 -17 OFFCURVE",
"455 -10 CURVE SMOOTH",
"488 -3 OFFCURVE",
"516 5 OFFCURVE",
"539 14 CURVE",
"539 143 LINE",
"480 126 OFFCURVE",
"432 117 OFFCURVE",
"395 117 CURVE SMOOTH"
);
}
);
width = 664;
}
);
unicode = 0074;
},
{
glyphname = u;
lastChange = "2013-03-10 15:35:19 +0200";
layers = (
{
layerId = UUID0;
name = "Regular Italic";
paths = (
{
closed = 1;
nodes = (
"281 1096 LINE",
"135 420 LINE",
"120 347 OFFCURVE",
"113 289 OFFCURVE",
"113 248 CURVE SMOOTH",
"113 76 OFFCURVE",
"216 -20 OFFCURVE",
"387 -20 CURVE SMOOTH",
"450 -20 OFFCURVE",
"512 -4 OFFCURVE",
"571 29 CURVE SMOOTH",
"630 62 OFFCURVE",
"693 120 OFFCURVE",
"758 203 CURVE",
"770 203 LINE",
"748 0 LINE",
"887 0 LINE",
"1118 1096 LINE",
"952 1096 LINE",
"852 621 LINE",
"788 307 OFFCURVE",
"605 118 OFFCURVE",
"430 119 CURVE SMOOTH",
"332 119 OFFCURVE",
"283 167 OFFCURVE",
"283 262 CURVE SMOOTH",
"283 295 OFFCURVE",
"289 342 OFFCURVE",
"301 401 CURVE",
"451 1096 LINE"
);
}
);
width = 1182;
}
);
unicode = 0075;
},
{
glyphname = v;
lastChange = "2013-03-10 15:35:19 +0200";
layers = (
{
layerId = UUID0;
name = "Regular Italic";
paths = (
{
closed = 1;
nodes = (
"451 0 LINE",
"1042 1096 LINE",
"864 1096 LINE",
"539 492 LINE SMOOTH",
"504 428 OFFCURVE",
"445 304 OFFCURVE",
"360 121 CURVE",
"354 121 LINE",
"354 190 OFFCURVE",
"346 311 OFFCURVE",
"330 483 CURVE",
"266 1096 LINE",
"98 1096 LINE",
"223 0 LINE"
);
}
);
width = 946;
}
);
unicode = 0076;
},
{
glyphname = w;
lastChange = "2013-03-10 15:35:19 +0200";
layers = (
{
layerId = UUID0;
name = "Regular Italic";
paths = (
{
closed = 1;
nodes = (
"1036 0 LINE",
"1542 1096 LINE",
"1364 1096 LINE",
"1185 696 OFFCURVE",
"1078 452 OFFCURVE",
"1041 363 CURVE SMOOTH",
"1004 275 OFFCURVE",
"977 202 OFFCURVE",
"958 145 CURVE",
"952 145 LINE",
"954 187 LINE",
"954 240 LINE SMOOTH",
"954 303 OFFCURVE",
"952 390 OFFCURVE",
"948 502 CURVE",
"911 1096 LINE",
"729 1096 LINE",
"434 467 LINE",
"374 335 OFFCURVE",
"328 228 OFFCURVE",
"297 145 CURVE",
"291 145 LINE",
"296 226 OFFCURVE",
"299 316 OFFCURVE",
"299 414 CURVE SMOOTH",
"299 502 LINE",
"281 1096 LINE",
"117 1096 LINE",
"160 0 LINE",
"362 0 LINE",
"653 623 LINE",
"736 812 LINE",
"786 930 LINE",
"795 930 LINE",
"795 774 LINE SMOOTH",
"795 722 OFFCURVE",
"796 665 OFFCURVE",
"799 602 CURVE SMOOTH",
"831 0 LINE"
);
}
);
width = 1468;
}
);
unicode = 0077;
},
{
glyphname = x;
lastChange = "2013-03-10 15:35:19 +0200";
layers = (
{
layerId = UUID0;
name = "Regular Italic";
paths = (
{
closed = 1;
nodes = (
"659 0 LINE",
"827 0 LINE",
"575 557 LINE",
"1030 1096 LINE",
"836 1096 LINE",
"506 684 LINE",
"332 1096 LINE",
"162 1096 LINE",
"401 565 LINE",
"-74 0 LINE",
"121 0 LINE",
"467 434 LINE"
);
}
);
width = 979;
}
);
unicode = 0078;
},
{
glyphname = y;
lastChange = "2013-03-10 15:35:19 +0200";
layers = (
{
layerId = UUID0;
name = "Regular Italic";
paths = (
{
closed = 1;
nodes = (
"264 -18 LINE",
"188 -154 LINE SMOOTH",
"115 -286 OFFCURVE",
"43 -354 OFFCURVE",
"-66 -354 CURVE SMOOTH",
"-111 -354 OFFCURVE",
"-155 -348 OFFCURVE",
"-197 -336 CURVE",
"-197 -471 LINE",
"-152 -485 OFFCURVE",
"-105 -492 OFFCURVE",
"-57 -492 CURVE SMOOTH",
"28 -492 OFFCURVE",
"101 -470 OFFCURVE",
"162 -425 CURVE SMOOTH",
"223 -380 OFFCURVE",
"284 -301 OFFCURVE",
"346 -186 CURVE SMOOTH",
"1042 1096 LINE",
"864 1096 LINE",
"539 487 LINE",
"522 458 OFFCURVE",
"497 406 OFFCURVE",
"462 331 CURVE SMOOTH",
"427 256 OFFCURVE",
"398 189 OFFCURVE",
"375 131 CURVE",
"369 131 LINE",
"369 186 OFFCURVE",
"366 258 OFFCURVE",
"359 347 CURVE",
"353 437 OFFCURVE",
"347 505 OFFCURVE",
"340 551 CURVE",
"266 1096 LINE",
"98 1096 LINE"
);
}
);
width = 946;
}
);
unicode = 0079;
},
{
glyphname = z;
lastChange = "2013-03-10 15:35:19 +0200";
layers = (
{
layerId = UUID0;
name = "Regular Italic";
paths = (
{
closed = 1;
nodes = (
"715 125 LINE",
"184 125 LINE",
"864 956 LINE",
"893 1096 LINE",
"236 1096 LINE",
"209 971 LINE",
"688 971 LINE",
"-6 117 LINE",
"-29 0 LINE",
"690 0 LINE"
);
}
);
width = 909;
}
);
unicode = 007A;
},
{
glyphname = ordfeminine;
lastChange = "2013-03-10 15:35:19 +0200";
layers = (
{
layerId = UUID0;
name = "Regular Italic";
paths = (
{
closed = 1;
nodes = (
"371 1479 OFFCURVE",
"267 1392 OFFCURVE",
"211 1248 CURVE SMOOTH",
"184 1177 OFFCURVE",
"170 1099 OFFCURVE",
"170 1014 CURVE SMOOTH",
"170 943 OFFCURVE",
"186 888 OFFCURVE",
"219 848 CURVE SMOOTH",
"252 808 OFFCURVE",
"295 788 OFFCURVE",
"346 788 CURVE SMOOTH",
"443 788 OFFCURVE",
"506 843 OFFCURVE",
"559 918 CURVE",
"563 918 LINE",
"549 801 LINE",
"641 801 LINE",
"780 1466 LINE",
"694 1466 LINE",
"657 1376 LINE",
"651 1376 LINE",
"625 1445 OFFCURVE",
"574 1479 OFFCURVE",
"498 1479 CURVE SMOOTH"
);
},
{
closed = 1;
nodes = (
"316 891 OFFCURVE",
"283 937 OFFCURVE",
"283 1030 CURVE SMOOTH",
"283 1123 OFFCURVE",
"304 1204 OFFCURVE",
"345 1273 CURVE SMOOTH",
"387 1342 OFFCURVE",
"439 1376 OFFCURVE",
"500 1376 CURVE SMOOTH",
"576 1376 OFFCURVE",
"614 1328 OFFCURVE",
"614 1245 CURVE SMOOTH",
"614 1192 OFFCURVE",
"602 1136 OFFCURVE",
"579 1077 CURVE SMOOTH",
"556 1018 OFFCURVE",
"528 973 OFFCURVE",
"493 940 CURVE SMOOTH",
"459 907 OFFCURVE",
"422 891 OFFCURVE",
"381 891 CURVE SMOOTH"
);
}
);
width = 686;
}
);
unicode = 00AA;
},
{
glyphname = ordmasculine;
lastChange = "2013-03-10 15:35:19 +0200";
layers = (
{
layerId = UUID0;
name = "Regular Italic";
paths = (
{
closed = 1;
nodes = (
"745 1387 OFFCURVE",
"658 1479 OFFCURVE",
"502 1479 CURVE SMOOTH",
"370 1479 OFFCURVE",
"266 1402 OFFCURVE",
"210 1270 CURVE SMOOTH",
"182 1205 OFFCURVE",
"168 1133 OFFCURVE",
"168 1055 CURVE SMOOTH",
"168 972 OFFCURVE",
"190 906 OFFCURVE",
"235 859 CURVE SMOOTH",
"280 812 OFFCURVE",
"341 788 OFFCURVE",
"416 788 CURVE SMOOTH",
"517 788 OFFCURVE",
"597 828 OFFCURVE",
"656 908 CURVE SMOOTH",
"715 988 OFFCURVE",
"745 1092 OFFCURVE",
"745 1219 CURVE SMOOTH"
);
},
{
closed = 1;
nodes = (
"591 1376 OFFCURVE",
"637 1321 OFFCURVE",
"637 1210 CURVE SMOOTH",
"637 1114 OFFCURVE",
"617 1036 OFFCURVE",
"578 977 CURVE SMOOTH",
"539 918 OFFCURVE",
"489 889 OFFCURVE",
"426 889 CURVE SMOOTH",
"334 889 OFFCURVE",
"281 946 OFFCURVE",
"281 1059 CURVE SMOOTH",
"281 1154 OFFCURVE",
"300 1230 OFFCURVE",
"339 1288 CURVE SMOOTH",
"378 1347 OFFCURVE",
"432 1376 OFFCURVE",
"500 1376 CURVE SMOOTH"
);
}
);
width = 688;
}
);
unicode = 00BA;
},
{
glyphname = "alef-hb";
lastChange = "2013-03-10 15:58:08 +0200";
layers = (
{
anchors = (
{
name = bottom;
position = "{410, -152}";
},
{
name = bottomleft;
position = "{-117, 0}";
},
{
name = center;
position = "{409, 374}";
},
{
name = top;
position = "{680, 1118}";
},
{
name = topleft;
position = "{254, 1160}";
}
);
layerId = UUID0;
name = "Regular Italic";
paths = (
{
closed = 1;
nodes = (
"1014 1290 LINE",
"912 811 LINE SMOOTH",
"878 650 OFFCURVE",
"812 591 OFFCURVE",
"761 556 CURVE SMOOTH",
"745 545 OFFCURVE",
"720 532 OFFCURVE",
"720 532 CURVE",
"608 791 LINE",
"418 1290 LINE",
"230 1290 LINE",
"392 884 LINE",
"153 809 OFFCURVE",
"85 613 OFFCURVE",
"44 419 CURVE SMOOTH",
"-45 0 LINE",
"121 0 LINE",
"223 479 LINE SMOOTH",
"257 640 OFFCURVE",
"322 702 OFFCURVE",
"373 737 CURVE SMOOTH",
"394 752 OFFCURVE",
"437 767 OFFCURVE",
"437 767 CURVE",
"540 539 LINE",
"741 0 LINE",
"928 0 LINE",
"767 413 LINE",
"989 493 OFFCURVE",
"1051 683 OFFCURVE",
"1091 871 CURVE SMOOTH",
"1180 1290 LINE"
);
}
);
width = 1157;
}
);
unicode = 05D0;
},
{
glyphname = "bet-hb";
lastChange = "2013-03-10 15:58:08 +0200";
layers = (
{
anchors = (
{
name = bottom;
position = "{375, -152}";
},
{
name = bottomleft;
position = "{-119, 0}";
},
{
name = center;
position = "{399, 665}";
},
{
name = top;
position = "{645, 1118}";
},
{
name = topleft;
position = "{259, 1160}";
}
);
layerId = UUID0;
name = "Regular Italic";
paths = (
{
closed = 1;
nodes = (
"401 1310 OFFCURVE",
"238 1295 OFFCURVE",
"238 1295 CURVE",
"208 1154 LINE",
"208 1154 OFFCURVE",
"398 1169 OFFCURVE",
"557 1169 CURVE SMOOTH",
"735 1169 OFFCURVE",
"831 1119 OFFCURVE",
"785 902 CURVE SMOOTH",
"620 129 LINE",
"-10 129 LINE",
"-37 0 LINE",
"906 0 LINE",
"933 129 LINE",
"786 129 LINE",
"950 900 LINE SMOOTH",
"1015 1204 OFFCURVE",
"897 1310 OFFCURVE",
"610 1310 CURVE SMOOTH"
);
}
);
width = 1093;
}
);
unicode = 05D1;
},
{
glyphname = "gimel-hb";
lastChange = "2013-03-10 15:58:08 +0200";
layers = (
{
anchors = (
{
name = bottom;
position = "{260, -152}";
},
{
name = bottomleft;
position = "{-117, 0}";
},
{
name = center;
position = "{337, 665}";
},
{
name = top;
position = "{530, 1118}";
},
{
name = topleft;
position = "{364, 1160}";
}
);
layerId = UUID0;
name = "Regular Italic";
paths = (
{
closed = 1;
nodes = (
"433 1310 OFFCURVE",
"349 1289 OFFCURVE",
"349 1289 CURVE",
"321 1158 LINE",
"321 1158 OFFCURVE",
"385 1176 OFFCURVE",
"451 1176 CURVE SMOOTH",
"626 1176 OFFCURVE",
"624 1053 OFFCURVE",
"602 953 CURVE SMOOTH",
"513 530 LINE SMOOTH",
"452 246 OFFCURVE",
"217 132 OFFCURVE",
"122 132 CURVE SMOOTH",
"27 132 OFFCURVE",
"-12 145 OFFCURVE",
"-12 145 CURVE",
"-69 -7 LINE",
"-69 -7 OFFCURVE",
"-32 -20 OFFCURVE",
"69 -20 CURVE SMOOTH",
"289 -20 OFFCURVE",
"448 218 OFFCURVE",
"448 218 CURVE",
"456 218 LINE",
"429 0 LINE",
"566 0 LINE",
"771 967 LINE SMOOTH",
"808 1140 OFFCURVE",
"788 1310 OFFCURVE",
"532 1310 CURVE SMOOTH"
);
}
);
width = 857;
}
);
unicode = 05D2;
},
{
glyphname = "dalet-hb";
lastChange = "2013-03-10 15:58:08 +0200";
layers = (
{
anchors = (
{
name = bottom;
position = "{522, -152}";
},
{
name = bottomleft;
position = "{-117, 0}";
},
{
name = center;
position = "{343, 665}";
},
{
name = top;
position = "{618, 1118}";
},
{
name = topleft;
position = "{202, 1160}";
}
);
layerId = UUID0;
name = "Regular Italic";
paths = (
{
closed = 1;
nodes = (
"180 1290 LINE",
"153 1161 LINE",
"859 1161 LINE",
"858 1156 LINE",
"858 1156 OFFCURVE",
"710 1100 OFFCURVE",
"665 888 CURVE SMOOTH",
"476 0 LINE",
"642 0 LINE",
"831 888 LINE SMOOTH",
"872 1083 OFFCURVE",
"998 1149 OFFCURVE",
"1098 1176 CURVE",
"1122 1290 LINE"
);
}
);
width = 1033;
}
);
unicode = 05D3;
},
{
glyphname = "he-hb";
lastChange = "2013-03-10 15:58:08 +0200";
layers = (
{
anchors = (
{
name = bottom;
position = "{457, -152}";
},
{
name = bottomleft;
position = "{-119, 0}";
},
{
name = center;
position = "{631, 665}";
},
{
name = top;
position = "{727, 1118}";
},
{
name = topleft;
position = "{319, 1160}";
}
);
layerId = UUID0;
name = "Regular Italic";
paths = (
{
closed = 1;
nodes = (
"532 1310 OFFCURVE",
"296 1295 OFFCURVE",
"296 1295 CURVE",
"266 1154 LINE",
"266 1154 OFFCURVE",
"529 1169 OFFCURVE",
"688 1169 CURVE SMOOTH",
"866 1169 OFFCURVE",
"1036 1119 OFFCURVE",
"990 902 CURVE SMOOTH",
"798 0 LINE",
"964 0 LINE",
"1155 900 LINE SMOOTH",
"1220 1204 OFFCURVE",
"1028 1310 OFFCURVE",
"741 1310 CURVE SMOOTH"
);
},
{
closed = 1;
nodes = (
"196 823 LINE",
"21 0 LINE",
"187 0 LINE",
"362 823 LINE"
);
}
);
width = 1257;
}
);
unicode = 05D4;
},
{
glyphname = "vav-hb";
lastChange = "2013-03-10 15:58:08 +0200";
layers = (
{
anchors = (
{
name = bottom;
position = "{74, -152}";
},
{
name = bottomleft;
position = "{-117, 0}";
},
{
name = center;
position = "{-15, 714}";
},
{
name = top;
position = "{344, 1118}";
},
{
name = topleft;
position = "{315, 1160}";
}
);
layerId = UUID0;
name = "Regular Italic";
paths = (
{
closed = 1;
nodes = (
"297 1290 LINE",
"23 0 LINE",
"189 0 LINE",
"463 1290 LINE"
);
}
);
width = 486;
}
);
unicode = 05D5;
},
{
glyphname = "zayin-hb";
lastChange = "2013-03-10 15:58:08 +0200";
layers = (
{
anchors = (
{
name = bottom;
position = "{161, -152}";
},
{
name = bottomleft;
position = "{-117, 0}";
},
{
name = center;
position = "{52, 665}";
},
{
name = top;
position = "{407, 1118}";
},
{
name = topleft;
position = "{268, 1160}";
}
);
layerId = UUID0;
name = "Regular Italic";
paths = (
{
closed = 1;
nodes = (
"249 1290 LINE",
"222 1161 LINE",
"531 1161 LINE",
"530 1156 LINE",
"530 1156 OFFCURVE",
"330 1018 OFFCURVE",
"276 763 CURVE SMOOTH",
"114 0 LINE",
"280 0 LINE",
"443 765 LINE SMOOTH",
"512 1091 OFFCURVE",
"675 1161 OFFCURVE",
"675 1161 CURVE",
"702 1290 LINE"
);
}
);
width = 612;
}
);
unicode = 05D6;
},
{
glyphname = "het-hb";
lastChange = "2013-03-10 15:58:08 +0200";
layers = (
{
anchors = (
{
name = bottom;
position = "{457, -152}";
},
{
name = bottomleft;
position = "{-119, 0}";
},
{
name = center;
position = "{631, 665}";
},
{
name = top;
position = "{727, 1118}";
},
{
name = topleft;
position = "{319, 1160}";
}
);
layerId = UUID0;
name = "Regular Italic";
paths = (
{
closed = 1;
nodes = (
"532 1310 OFFCURVE",
"296 1295 OFFCURVE",
"296 1295 CURVE",
"21 0 LINE",
"187 0 LINE",
"433 1160 LINE",
"433 1160 OFFCURVE",
"612 1169 OFFCURVE",
"688 1169 CURVE SMOOTH",
"866 1169 OFFCURVE",
"1036 1119 OFFCURVE",
"990 902 CURVE SMOOTH",
"798 0 LINE",
"964 0 LINE",
"1155 900 LINE SMOOTH",
"1220 1204 OFFCURVE",
"1028 1310 OFFCURVE",
"741 1310 CURVE SMOOTH"
);
}
);
width = 1257;
}
);
unicode = 05D7;
},
{
glyphname = "tet-hb";
lastChange = "2013-03-10 15:58:08 +0200";
layers = (
{
anchors = (
{
name = bottom;
position = "{486, -152}";
},
{
name = bottomleft;
position = "{-117, 0}";
},
{
name = center;
position = "{652, 665}";
},
{
name = top;
position = "{727, 1118}";
},
{
name = topleft;
position = "{309, 1160}";
}
);
layerId = UUID0;
name = "Regular Italic";
paths = (
{
closed = 1;
nodes = (
"732 1310 OFFCURVE",
"671 1297 OFFCURVE",
"671 1297 CURVE",
"642 1161 LINE",
"642 1161 OFFCURVE",
"693 1171 OFFCURVE",
"786 1171 CURVE SMOOTH",
"1047 1171 OFFCURVE",
"1044 911 OFFCURVE",
"987 645 CURVE SMOOTH",
"930 379 OFFCURVE",
"806 119 OFFCURVE",
"545 119 CURVE SMOOTH",
"284 119 OFFCURVE",
"269 379 OFFCURVE",
"326 645 CURVE SMOOTH",
"463 1290 LINE",
"291 1290 LINE",
"154 645 LINE SMOOTH",
"55 180 OFFCURVE",
"241 -20 OFFCURVE",
"516 -20 CURVE SMOOTH",
"791 -20 OFFCURVE",
"1061 180 OFFCURVE",
"1160 645 CURVE SMOOTH",
"1259 1110 OFFCURVE",
"1090 1310 OFFCURVE",
"815 1310 CURVE SMOOTH"
);
}
);
width = 1252;
}
);
unicode = 05D8;
},
{
glyphname = "yod-hb";
lastChange = "2013-03-12 15:08:46 +0200";
layers = (
{
anchors = (
{
name = bottom;
position = "{63, -152}";
},
{
name = bottomleft;
position = "{-110, 0}";
},
{
name = center;
position = "{27, 911}";
},
{
name = top;
position = "{334, 1118}";
},
{
name = topleft;
position = "{313, 1160}";
}
);
layerId = UUID0;
name = "Regular Italic";
paths = (
{
closed = 1;
nodes = (
"291 1290 LINE",
"109 436 LINE",
"143 436 LINE",
"311 606 LINE",
"457 1290 LINE"
);
}
);
width = 453;
}
);
unicode = 05D9;
},
{
glyphname = "finalkaf-hb";
lastChange = "2013-03-12 07:19:43 +0200";
layers = (
{
anchors = (
{
name = bottom;
position = "{103, 250}";
},
{
name = bottomleft;
position = "{-106, 0}";
},
{
name = center;
position = "{333, 665}";
},
{
name = top;
position = "{598, 1118}";
},
{
name = topleft;
position = "{224, 1160}";
}
);
layerId = UUID0;
name = "Regular Italic";
paths = (
{
closed = 1;
nodes = (
"292 1310 OFFCURVE",
"185 1260 OFFCURVE",
"185 1260 CURVE",
"153 1112 LINE",
"153 1112 OFFCURVE",
"263 1163 OFFCURVE",
"448 1163 CURVE SMOOTH",
"764 1163 OFFCURVE",
"705 840 OFFCURVE",
"683 736 CURVE SMOOTH",
"421 -492 LINE",
"587 -492 LINE",
"853 756 LINE SMOOTH",
"896 961 OFFCURVE",
"886 1310 OFFCURVE",
"480 1310 CURVE SMOOTH"
);
}
);
width = 971;
}
);
unicode = 05DA;
},
{
glyphname = "kaf-hb";
lastChange = "2013-03-10 15:58:08 +0200";
layers = (
{
anchors = (
{
name = bottom;
position = "{179, -152}";
},
{
name = bottomleft;
position = "{-117, 0}";
},
{
name = center;
position = "{346, 665}";
},
{
name = top;
position = "{568, 1118}";
},
{
name = topleft;
position = "{225, 1160}";
}
);
layerId = UUID0;
name = "Regular Italic";
paths = (
{
closed = 1;
nodes = (
"303 1310 OFFCURVE",
"197 1260 OFFCURVE",
"197 1260 CURVE",
"165 1112 LINE",
"165 1112 OFFCURVE",
"275 1163 OFFCURVE",
"460 1163 CURVE SMOOTH",
"776 1163 OFFCURVE",
"716 840 OFFCURVE",
"694 736 CURVE SMOOTH",
"653 540 LINE SMOOTH",
"629 427 OFFCURVE",
"536 125 OFFCURVE",
"242 125 CURVE SMOOTH",
"86 125 OFFCURVE",
"-36 167 OFFCURVE",
"-36 167 CURVE",
"-67 17 LINE",
"-67 17 OFFCURVE",
"19 -20 OFFCURVE",
"202 -20 CURVE SMOOTH",
"697 -20 OFFCURVE",
"804 470 OFFCURVE",
"818 537 CURVE SMOOTH",
"865 756 LINE SMOOTH",
"908 961 OFFCURVE",
"897 1310 OFFCURVE",
"491 1310 CURVE SMOOTH"
);
}
);
width = 934;
}
);
unicode = 05DB;
},
{
glyphname = "lamed-hb";
lastChange = "2013-03-12 07:21:15 +0200";
layers = (
{
anchors = (
{
name = bottom;
position = "{383, -152}";
},
{
name = bottomleft;
position = "{-113, 0}";
},
{
name = center;
position = "{302, 665}";
},
{
name = top;
position = "{592, 1118}";
},
{
name = topleft;
position = "{40, 1160}";
}
);
layerId = UUID0;
name = "Regular Italic";
paths = (
{
closed = 1;
nodes = (
"267 1554 LINE",
"184 1161 LINE",
"863 1161 LINE",
"547 501 LINE",
"337 0 LINE",
"505 0 LINE",
"715 501 LINE",
"1029 1161 LINE",
"1056 1290 LINE",
"377 1290 LINE",
"433 1554 LINE"
);
}
);
width = 975;
}
);
unicode = 05DC;
},
{
glyphname = "finalmem-hb";
lastChange = "2013-03-10 15:58:08 +0200";
layers = (
{
anchors = (
{
name = bottom;
position = "{457, -152}";
},
{
name = bottomleft;
position = "{-119, 0}";
},
{
name = center;
position = "{631, 665}";
},
{
name = top;
position = "{727, 1118}";
},
{
name = topleft;
position = "{316, 1160}";
}
);
layerId = UUID0;
name = "Regular Italic";
paths = (
{
closed = 1;
nodes = (
"473 1310 OFFCURVE",
"293 1283 OFFCURVE",
"293 1283 CURVE",
"21 0 LINE",
"964 0 LINE",
"1167 958 LINE SMOOTH",
"1228 1242 OFFCURVE",
"992 1310 OFFCURVE",
"741 1310 CURVE SMOOTH"
);
},
{
closed = 1;
nodes = (
"866 1169 OFFCURVE",
"1042 1151 OFFCURVE",
"996 934 CURVE SMOOTH",
"825 129 LINE",
"214 129 LINE",
"433 1158 LINE",
"433 1158 OFFCURVE",
"569 1169 OFFCURVE",
"688 1169 CURVE SMOOTH"
);
}
);
width = 1257;
}
);
unicode = 05DD;
},
{
glyphname = "mem-hb";
lastChange = "2013-03-10 15:58:08 +0200";
layers = (
{
anchors = (
{
name = bottom;
position = "{442, -152}";
},
{
name = bottomleft;
position = "{-119, 0}";
},
{
name = center;
position = "{616, 665}";
},
{
name = top;
position = "{712, 1118}";
},
{
name = topleft;
position = "{265, 1160}";
}
);
layerId = UUID0;
name = "Regular Italic";
paths = (
{
closed = 1;
nodes = (
"592 1310 OFFCURVE",
"447 1154 OFFCURVE",
"447 1154 CURVE SMOOTH",
"440 1154 LINE",
"440 1216 OFFCURVE",
"431 1270 OFFCURVE",
"423 1290 CURVE",
"256 1290 LINE",
"269 1228 LINE SMOOTH",
"283 1160 OFFCURVE",
"279 1030 OFFCURVE",
"268 992 CURVE SMOOTH",
"-37 0 LINE",
"130 0 LINE",
"439 1010 LINE",
"439 1010 OFFCURVE",
"580 1170 OFFCURVE",
"747 1170 CURVE SMOOTH",
"948 1170 OFFCURVE",
"991 1044 OFFCURVE",
"955 875 CURVE SMOOTH",
"796 129 LINE",
"522 129 LINE",
"495 0 LINE",
"935 0 LINE",
"1122 882 LINE SMOOTH",
"1177 1140 OFFCURVE",
"1094 1310 OFFCURVE",
"835 1310 CURVE SMOOTH"
);
}
);
width = 1228;
}
);
unicode = 05DE;
},
{
glyphname = "finalnun-hb";
lastChange = "2013-03-12 07:21:39 +0200";
layers = (
{
anchors = (
{
name = bottom;
position = "{-365, 250}";
},
{
name = bottomleft;
position = "{-105, 0}";
},
{
name = center;
position = "{-31, 665}";
},
{
name = top;
position = "{345, 1118}";
},
{
name = topleft;
position = "{243, 1160}";
}
);
layerId = UUID0;
name = "Regular Italic";
paths = (
{
closed = 1;
nodes = (
"222 1288 LINE SMOOTH",
"220 1288 OFFCURVE",
"257 1124 OFFCURVE",
"209 898 CURVE SMOOTH",
"-86 -492 LINE",
"80 -492 LINE",
"375 898 LINE SMOOTH",
"422 1118 OFFCURVE",
"388 1288 OFFCURVE",
"388 1288 CURVE SMOOTH"
);
}
);
width = 463;
}
);
unicode = 05DF;
},
{
glyphname = "nun-hb";
lastChange = "2013-03-12 07:21:57 +0200";
layers = (
{
anchors = (
{
name = bottom;
position = "{274, -152}";
},
{
name = bottomleft;
position = "{-113, 0}";
},
{
name = center;
position = "{290, 665}";
},
{
name = top;
position = "{544, 1118}";
},
{
name = topleft;
position = "{385, 1160}";
}
);
layerId = UUID0;
name = "Regular Italic";
paths = (
{
closed = 1;
nodes = (
"459 1310 OFFCURVE",
"375 1289 OFFCURVE",
"375 1289 CURVE",
"347 1158 LINE",
"347 1158 OFFCURVE",
"411 1176 OFFCURVE",
"477 1176 CURVE SMOOTH",
"652 1176 OFFCURVE",
"649 1053 OFFCURVE",
"627 953 CURVE SMOOTH",
"492 315 LINE SMOOTH",
"468 204 OFFCURVE",
"432 129 OFFCURVE",
"432 129 CURVE SMOOTH",
"-14 129 LINE",
"-41 0 LINE",
"553 0 LINE",
"553 0 OFFCURVE",
"620 132 OFFCURVE",
"659 315 CURVE SMOOTH",
"797 967 LINE SMOOTH",
"834 1140 OFFCURVE",
"814 1310 OFFCURVE",
"558 1310 CURVE SMOOTH"
);
}
);
width = 879;
}
);
unicode = 05E0;
},
{
glyphname = "samekh-hb";
lastChange = "2013-03-10 15:58:08 +0200";
layers = (
{
anchors = (
{
name = bottom;
position = "{426, -152}";
},
{
name = bottomleft;
position = "{-117, 0}";
},
{
name = center;
position = "{599, 665}";
},
{
name = top;
position = "{696, 1118}";
},
{
name = topleft;
position = "{270, 1160}";
}
);
layerId = UUID0;
name = "Regular Italic";
paths = (
{
closed = 1;
nodes = (
"463 1310 OFFCURVE",
"250 1293 OFFCURVE",
"250 1293 CURVE",
"220 1152 LINE",
"349 1160 LINE",
"261 1081 OFFCURVE",
"150 917 OFFCURVE",
"92 645 CURVE SMOOTH",
"-7 180 OFFCURVE",
"179 -20 OFFCURVE",
"454 -20 CURVE SMOOTH",
"729 -20 OFFCURVE",
"999 180 OFFCURVE",
"1098 645 CURVE SMOOTH",
"1197 1110 OFFCURVE",
"1031 1310 OFFCURVE",
"736 1310 CURVE SMOOTH"
);
},
{
closed = 1;
nodes = (
"979 1168 OFFCURVE",
"983 911 OFFCURVE",
"926 645 CURVE SMOOTH",
"869 379 OFFCURVE",
"744 119 OFFCURVE",
"483 119 CURVE SMOOTH",
"222 119 OFFCURVE",
"207 379 OFFCURVE",
"264 645 CURVE SMOOTH",
"300 816 OFFCURVE",
"393 1045 OFFCURVE",
"527 1166 CURVE",
"527 1166 OFFCURVE",
"602 1168 OFFCURVE",
"706 1168 CURVE SMOOTH"
);
}
);
width = 1190;
}
);
unicode = 05E1;
},
{
glyphname = "ayin-hb";
lastChange = "2013-03-10 15:58:08 +0200";
layers = (
{
anchors = (
{
name = bottom;
position = "{464, -152}";
},
{
name = bottomleft;
position = "{-112, 0}";
},
{
name = center;
position = "{725, 750}";
},
{
name = top;
position = "{734, 1118}";
},
{
name = topleft;
position = "{312, 1160}";
}
);
layerId = UUID0;
name = "Regular Italic";
paths = (
{
closed = 1;
nodes = (
"301 1290 LINE",
"359 140 LINE",
"-45 79 LINE",
"-73 -52 LINE",
"308 0 LINE SMOOTH",
"884 79 OFFCURVE",
"1051 470 OFFCURVE",
"1128 727 CURVE SMOOTH",
"1296 1289 LINE",
"1130 1289 LINE",
"961 727 LINE SMOOTH",
"865 410 OFFCURVE",
"702 238 OFFCURVE",
"509 172 CURVE",
"505 450 OFFCURVE",
"503 629 OFFCURVE",
"503 708 CURVE",
"473 1290 LINE"
);
}
);
width = 1256;
}
);
unicode = 05E2;
},
{
glyphname = "finalpe-hb";
lastChange = "2013-03-12 07:22:16 +0200";
layers = (
{
anchors = (
{
name = bottom;
position = "{303, 250}";
},
{
name = bottomleft;
position = "{-104, 0}";
},
{
name = center;
position = "{607, 859}";
},
{
name = top;
position = "{717, 1118}";
},
{
name = topleft;
position = "{253, 1160}";
}
);
layerId = UUID0;
name = "Regular Italic";
paths = (
{
closed = 1;
nodes = (
"476 1310 OFFCURVE",
"191 1154 OFFCURVE",
"127 849 CURVE SMOOTH",
"73 595 OFFCURVE",
"203 456 OFFCURVE",
"421 427 CURVE SMOOTH",
"458 422 LINE",
"511 545 LINE",
"469 553 LINE SMOOTH",
"302 584 OFFCURVE",
"241 668 OFFCURVE",
"280 849 CURVE SMOOTH",
"308 985 OFFCURVE",
"426 1171 OFFCURVE",
"681 1171 CURVE SMOOTH",
"942 1171 OFFCURVE",
"957 911 OFFCURVE",
"900 645 CURVE SMOOTH",
"658 -492 LINE",
"823 -492 LINE",
"1065 645 LINE SMOOTH",
"1164 1110 OFFCURVE",
"986 1310 OFFCURVE",
"711 1310 CURVE SMOOTH"
);
}
);
width = 1206;
}
);
unicode = 05E3;
},
{
glyphname = "pe-hb";
lastChange = "2013-03-10 15:58:08 +0200";
layers = (
{
anchors = (
{
name = bottom;
position = "{407, -152}";
},
{
name = bottomleft;
position = "{-117, 0}";
},
{
name = center;
position = "{630, 847}";
},
{
name = top;
position = "{688, 1118}";
},
{
name = topleft;
position = "{245, 1160}";
}
);
layerId = UUID0;
name = "Regular Italic";
paths = (
{
closed = 1;
nodes = (
"484 1310 OFFCURVE",
"200 1154 OFFCURVE",
"135 849 CURVE SMOOTH",
"81 595 OFFCURVE",
"212 456 OFFCURVE",
"430 427 CURVE SMOOTH",
"467 422 LINE",
"520 545 LINE",
"477 553 LINE SMOOTH",
"311 584 OFFCURVE",
"250 668 OFFCURVE",
"288 849 CURVE SMOOTH",
"317 985 OFFCURVE",
"435 1172 OFFCURVE",
"690 1171 CURVE SMOOTH",
"951 1171 OFFCURVE",
"966 911 OFFCURVE",
"909 645 CURVE SMOOTH",
"852 379 OFFCURVE",
"727 119 OFFCURVE",
"465 119 CURVE SMOOTH",
"260 119 OFFCURVE",
"96 149 OFFCURVE",
"97 150 CURVE",
"66 7 LINE",
"66 7 OFFCURVE",
"237 -20 OFFCURVE",
"437 -20 CURVE SMOOTH",
"712 -20 OFFCURVE",
"982 180 OFFCURVE",
"1081 645 CURVE SMOOTH",
"1180 1110 OFFCURVE",
"994 1310 OFFCURVE",
"719 1310 CURVE SMOOTH"
);
}
);
width = 1173;
}
);
unicode = 05E4;
},
{
glyphname = "finaltsadi-hb";
lastChange = "2013-03-12 07:22:35 +0200";
layers = (
{
anchors = (
{
name = bottom;
position = "{-241, 250}";
},
{
name = bottomleft;
position = "{-104, 0}";
},
{
name = center;
position = "{592, 986}";
},
{
name = top;
position = "{594, 1118}";
},
{
name = topleft;
position = "{181, 1160}";
}
);
layerId = UUID0;
name = "Regular Italic";
paths = (
{
closed = 1;
nodes = (
"158 1290 LINE",
"275 577 LINE",
"48 -492 LINE",
"214 -492 LINE",
"412 441 LINE",
"540 474 LINE SMOOTH",
"808 540 OFFCURVE",
"892 746 OFFCURVE",
"935 950 CURVE SMOOTH",
"1007 1289 LINE",
"841 1289 LINE",
"756 890 LINE SMOOTH",
"722 729 OFFCURVE",
"647 642 OFFCURVE",
"548 612 CURVE SMOOTH",
"431 574 LINE",
"432 605 OFFCURVE",
"430 638 OFFCURVE",
"425 676 CURVE SMOOTH",
"335 1290 LINE"
);
}
);
width = 959;
}
);
unicode = 05E5;
},
{
glyphname = "tsadi-hb";
lastChange = "2013-03-10 15:58:08 +0200";
layers = (
{
anchors = (
{
name = bottom;
position = "{393, -152}";
},
{
name = bottomleft;
position = "{-117, 0}";
},
{
name = center;
position = "{228, 580}";
},
{
name = top;
position = "{663, 1118}";
},
{
name = topleft;
position = "{221, 1160}";
}
);
layerId = UUID0;
name = "Regular Italic";
paths = (
{
closed = 1;
nodes = (
"1004 1293 LINE",
"933 1062 LINE SMOOTH",
"866 844 OFFCURVE",
"789 688 OFFCURVE",
"667 624 CURVE",
"645 669 LINE",
"391 1290 LINE",
"202 1290 LINE",
"504 573 LINE",
"742 122 LINE",
"741 118 LINE",
"515 129 LINE",
"-35 129 LINE",
"-62 0 LINE",
"887 0 LINE",
"914 129 LINE",
"723 513 LINE",
"993 638 OFFCURVE",
"1064 950 OFFCURVE",
"1106 1086 CURVE SMOOTH",
"1170 1293 LINE"
);
}
);
width = 1125;
}
);
unicode = 05E6;
},
{
glyphname = "qof-hb";
lastChange = "2013-03-12 07:23:14 +0200";
layers = (
{
anchors = (
{
name = bottom;
position = "{557, -152}";
},
{
name = bottomleft;
position = "{-112, 0}";
},
{
name = center;
position = "{574, 665}";
},
{
name = top;
position = "{691, 1118}";
},
{
name = topleft;
position = "{318, 1160}";
}
);
layerId = UUID0;
name = "Regular Italic";
paths = (
{
closed = 1;
nodes = (
"302 1290 LINE",
"275 1162 LINE",
"1058 1162 LINE",
"811 672 LINE SMOOTH",
"736 521 OFFCURVE",
"546 156 OFFCURVE",
"521 34 CURVE SMOOTH",
"513 0 LINE",
"678 0 LINE",
"686 34 LINE SMOOTH",
"709 144 OFFCURVE",
"889 496 OFFCURVE",
"966 652 CURVE SMOOTH",
"1224 1162 LINE",
"1251 1290 LINE"
);
},
{
closed = 1;
nodes = (
"193 771 LINE",
"-75 -493 LINE",
"90 -493 LINE",
"358 771 LINE"
);
}
);
width = 1170;
}
);
unicode = 05E7;
},
{
glyphname = "resh-hb";
lastChange = "2013-03-10 16:01:50 +0200";
layers = (
{
anchors = (
{
name = bottom;
position = "{559, -152}";
},
{
name = bottomleft;
position = "{-109, 0}";
},
{
name = center;
position = "{333, 665}";
},
{
name = top;
position = "{593, 1118}";
},
{
name = topleft;
position = "{211, 1160}";
}
);
layerId = UUID0;
name = "Regular Italic";
paths = (
{
closed = 1;
nodes = (
"370 1310 OFFCURVE",
"272 1307 OFFCURVE",
"191 1303 CURVE",
"161 1162 LINE",
"243 1166 OFFCURVE",
"338 1169 OFFCURVE",
"412 1169 CURVE SMOOTH",
"590 1169 OFFCURVE",
"760 1119 OFFCURVE",
"714 902 CURVE SMOOTH",
"522 0 LINE",
"688 0 LINE",
"879 900 LINE SMOOTH",
"944 1204 OFFCURVE",
"752 1310 OFFCURVE",
"465 1310 CURVE SMOOTH"
);
}
);
width = 980;
}
);
unicode = 05E8;
},
{
glyphname = "shin-hb";
lastChange = "2013-03-10 15:58:08 +0200";
layers = (
{
anchors = (
{
name = bottom;
position = "{459, -152}";
},
{
name = bottomleft;
position = "{-117, 0}";
},
{
name = center;
position = "{761, 432}";
},
{
name = top;
position = "{846, 1160}";
},
{
name = topleft;
position = "{264, 1160}";
},
{
name = topright;
position = "{1562, 1160}";
}
);
layerId = UUID0;
name = "Regular Italic";
paths = (
{
closed = 1;
nodes = (
"816 1290 LINE",
"692 891 LINE SMOOTH",
"642 730 OFFCURVE",
"558 644 OFFCURVE",
"456 613 CURVE SMOOTH",
"314 569 LINE",
"407 1290 LINE",
"239 1290 LINE",
"72 0 LINE",
"500 0 LINE SMOOTH",
"1066 0 OFFCURVE",
"1275 470 OFFCURVE",
"1351 727 CURVE SMOOTH",
"1520 1289 LINE",
"1355 1289 LINE",
"1184 727 LINE SMOOTH",
"1055 302 OFFCURVE",
"810 129 OFFCURVE",
"554 129 CURVE SMOOTH",
"256 129 LINE",
"296 440 LINE",
"434 475 LINE SMOOTH",
"709 541 OFFCURVE",
"814 747 OFFCURVE",
"877 951 CURVE SMOOTH",
"982 1290 LINE"
);
}
);
width = 1473;
}
);
unicode = 05E9;
},
{
glyphname = "tav-hb";
lastChange = "2013-03-10 15:58:08 +0200";
layers = (
{
anchors = (
{
name = bottom;
position = "{530, -152}";
},
{
name = bottomleft;
position = "{-118, 0}";
},
{
name = center;
position = "{719, 665}";
},
{
name = top;
position = "{748, 1118}";
},
{
name = topleft;
position = "{321, 1160}";
}
);
layerId = UUID0;
name = "Regular Italic";
paths = (
{
closed = 1;
nodes = (
"573 1310 OFFCURVE",
"287 1278 OFFCURVE",
"287 1278 CURVE",
"257 1137 LINE",
"257 1137 OFFCURVE",
"318 1143 OFFCURVE",
"401 1150 CURVE",
"219 297 LINE SMOOTH",
"191 162 OFFCURVE",
"112 127 OFFCURVE",
"40 127 CURVE SMOOTH",
"11 127 OFFCURVE",
"-17 134 OFFCURVE",
"-39 137 CURVE",
"-68 0 LINE",
"-45 -4 OFFCURVE",
"-13 -14 OFFCURVE",
"29 -14 CURVE SMOOTH",
"229 -14 OFFCURVE",
"347 116 OFFCURVE",
"390 320 CURVE SMOOTH",
"569 1163 LINE",
"627 1166 OFFCURVE",
"684 1169 OFFCURVE",
"729 1169 CURVE SMOOTH",
"907 1169 OFFCURVE",
"1075 1119 OFFCURVE",
"1029 902 CURVE SMOOTH",
"837 0 LINE",
"1004 0 LINE",
"1196 900 LINE SMOOTH",
"1260 1204 OFFCURVE",
"1069 1310 OFFCURVE",
"782 1310 CURVE SMOOTH"
);
}
);
width = 1296;
}
);
unicode = 05EA;
},
{
glyphname = zero;
lastChange = "2013-03-10 15:35:19 +0200";
layers = (
{
layerId = UUID0;
name = "Regular Italic";
paths = (
{
closed = 1;
nodes = (
"1092 1328 OFFCURVE",
"970 1485 OFFCURVE",
"727 1485 CURVE SMOOTH",
"496 1485 OFFCURVE",
"312 1318 OFFCURVE",
"203 991 CURVE SMOOTH",
"148 828 OFFCURVE",
"121 657 OFFCURVE",
"121 477 CURVE SMOOTH",
"121 154 OFFCURVE",
"250 -20 OFFCURVE",
"485 -20 CURVE SMOOTH",
"724 -20 OFFCURVE",
"909 150 OFFCURVE",
"1013 475 CURVE SMOOTH",
"1066 638 OFFCURVE",
"1092 817 OFFCURVE",
"1092 1014 CURVE SMOOTH"
);
},
{
closed = 1;
nodes = (
"852 1341 OFFCURVE",
"920 1233 OFFCURVE",
"920 1018 CURVE SMOOTH",
"920 859 OFFCURVE",
"901 708 OFFCURVE",
"863 565 CURVE SMOOTH",
"826 422 OFFCURVE",
"776 313 OFFCURVE",
"713 237 CURVE SMOOTH",
"650 161 OFFCURVE",
"581 123 OFFCURVE",
"504 123 CURVE SMOOTH",
"356 123 OFFCURVE",
"293 250 OFFCURVE",
"293 479 CURVE SMOOTH",
"293 623 OFFCURVE",
"313 764 OFFCURVE",
"352 902 CURVE SMOOTH",
"392 1041 OFFCURVE",
"444 1148 OFFCURVE",
"508 1225 CURVE SMOOTH",
"572 1302 OFFCURVE",
"642 1341 OFFCURVE",
"717 1341 CURVE SMOOTH"
);
}
);
width = 1128;
}
);
unicode = 0030;
},
{
glyphname = one;
lastChange = "2013-03-10 15:35:19 +0200";
layers = (
{
layerId = UUID0;
name = "Regular Italic";
paths = (
{
closed = 1;
nodes = (
"901 1462 LINE",
"752 1462 LINE",
"303 1178 LINE",
"383 1051 LINE",
"561 1161 LINE",
"620 1200 OFFCURVE",
"667 1237 OFFCURVE",
"700 1272 CURVE",
"681 1207 OFFCURVE",
"651 1087 OFFCURVE",
"612 913 CURVE",
"416 0 LINE",
"588 0 LINE"
);
}
);
width = 1128;
}
);
unicode = 0031;
},
{
glyphname = two;
lastChange = "2013-03-10 15:35:19 +0200";
layers = (
{
layerId = UUID0;
name = "Regular Italic";
paths = (
{
closed = 1;
nodes = (
"940 154 LINE",
"262 154 LINE",
"262 162 LINE",
"614 469 LINE SMOOTH",
"749 587 OFFCURVE",
"847 681 OFFCURVE",
"908 750 CURVE SMOOTH",
"969 819 OFFCURVE",
"1013 885 OFFCURVE",
"1039 947 CURVE SMOOTH",
"1066 1009 OFFCURVE",
"1079 1077 OFFCURVE",
"1079 1151 CURVE SMOOTH",
"1079 1254 OFFCURVE",
"1045 1335 OFFCURVE",
"976 1394 CURVE SMOOTH",
"908 1453 OFFCURVE",
"815 1483 OFFCURVE",
"698 1483 CURVE SMOOTH",
"550 1483 OFFCURVE",
"412 1432 OFFCURVE",
"285 1329 CURVE",
"367 1214 LINE",
"486 1305 OFFCURVE",
"577 1339 OFFCURVE",
"680 1339 CURVE SMOOTH",
"817 1339 OFFCURVE",
"903 1256 OFFCURVE",
"903 1124 CURVE SMOOTH",
"903 924 OFFCURVE",
"780 815 OFFCURVE",
"508 567 CURVE",
"43 147 LINE",
"12 0 LINE",
"911 0 LINE"
);
}
);
width = 1128;
}
);
unicode = 0032;
},
{
glyphname = three;
lastChange = "2013-03-10 15:35:19 +0200";
layers = (
{
layerId = UUID0;
name = "Regular Italic";
paths = (
{
closed = 1;
nodes = (
"1073 1259 OFFCURVE",
"1040 1338 OFFCURVE",
"975 1396 CURVE SMOOTH",
"910 1454 OFFCURVE",
"817 1483 OFFCURVE",
"698 1483 CURVE SMOOTH",
"545 1483 OFFCURVE",
"404 1435 OFFCURVE",
"274 1339 CURVE",
"354 1221 LINE",
"485 1309 OFFCURVE",
"579 1341 OFFCURVE",
"686 1341 CURVE SMOOTH",
"818 1341 OFFCURVE",
"901 1264 OFFCURVE",
"901 1141 CURVE SMOOTH",
"901 1048 OFFCURVE",
"865 972 OFFCURVE",
"792 914 CURVE SMOOTH",
"719 856 OFFCURVE",
"628 827 OFFCURVE",
"518 827 CURVE SMOOTH",
"379 827 LINE",
"348 684 LINE",
"479 684 LINE SMOOTH",
"667 684 OFFCURVE",
"778 593 OFFCURVE",
"778 418 CURVE SMOOTH",
"778 234 OFFCURVE",
"652 121 OFFCURVE",
"436 121 CURVE SMOOTH",
"379 121 OFFCURVE",
"316 130 OFFCURVE",
"246 147 CURVE SMOOTH",
"176 165 OFFCURVE",
"110 190 OFFCURVE",
"47 223 CURVE",
"47 59 LINE",
"164 6 OFFCURVE",
"292 -20 OFFCURVE",
"432 -20 CURVE",
"760 -22 OFFCURVE",
"961 166 OFFCURVE",
"958 430 CURVE",
"958 513 OFFCURVE",
"934 583 OFFCURVE",
"887 638 CURVE SMOOTH",
"840 694 OFFCURVE",
"775 730 OFFCURVE",
"692 745 CURVE",
"692 754 LINE",
"811 775 OFFCURVE",
"905 822 OFFCURVE",
"972 894 CURVE SMOOTH",
"1039 967 OFFCURVE",
"1073 1055 OFFCURVE",
"1073 1159 CURVE SMOOTH"
);
}
);
width = 1128;
}
);
unicode = 0033;
},
{
glyphname = four;
lastChange = "2013-03-10 15:35:19 +0200";
layers = (
{
layerId = UUID0;
name = "Regular Italic";
paths = (
{
closed = 1;
nodes = (
"1100 487 LINE",
"868 487 LINE",
"1075 1470 LINE",
"879 1470 LINE",
"45 492 LINE",
"16 334 LINE",
"672 334 LINE",
"598 0 LINE",
"762 0 LINE",
"834 334 LINE",
"1067 334 LINE"
);
},
{
closed = 1;
nodes = (
"219 487 LINE",
"752 1112 LINE",
"767 1131 OFFCURVE",
"791 1163 OFFCURVE",
"824 1208 CURVE SMOOTH",
"857 1253 OFFCURVE",
"880 1286 OFFCURVE",
"891 1305 CURVE",
"899 1305 LINE",
"843 1110 OFFCURVE",
"804 962 OFFCURVE",
"783 860 CURVE SMOOTH",
"705 487 LINE"
);
}
);
width = 1128;
}
);
unicode = 0034;
},
{
glyphname = five;
lastChange = "2013-03-10 15:35:19 +0200";
layers = (
{
layerId = UUID0;
name = "Regular Italic";
paths = (
{
closed = 1;
nodes = (
"533 893 OFFCURVE",
"472 885 OFFCURVE",
"414 870 CURVE",
"541 1309 LINE",
"1063 1309 LINE",
"1096 1462 LINE",
"428 1462 LINE",
"231 778 LINE",
"305 721 LINE",
"365 737 OFFCURVE",
"411 747 OFFCURVE",
"444 751 CURVE SMOOTH",
"477 756 OFFCURVE",
"509 758 OFFCURVE",
"541 758 CURVE SMOOTH",
"628 758 OFFCURVE",
"696 733 OFFCURVE",
"745 684 CURVE SMOOTH",
"794 635 OFFCURVE",
"819 569 OFFCURVE",
"819 485 CURVE SMOOTH",
"819 370 OFFCURVE",
"783 281 OFFCURVE",
"712 217 CURVE SMOOTH",
"641 153 OFFCURVE",
"541 121 OFFCURVE",
"414 121 CURVE SMOOTH",
"301 121 OFFCURVE",
"189 155 OFFCURVE",
"80 223 CURVE",
"80 59 LINE",
"171 6 OFFCURVE",
"281 -20 OFFCURVE",
"410 -20 CURVE SMOOTH",
"646 -20 OFFCURVE",
"825 60 OFFCURVE",
"922 223 CURVE SMOOTH",
"971 304 OFFCURVE",
"995 399 OFFCURVE",
"995 506 CURVE SMOOTH",
"995 625 OFFCURVE",
"959 719 OFFCURVE",
"887 788 CURVE",
"816 858 OFFCURVE",
"719 893 OFFCURVE",
"598 893 CURVE SMOOTH"
);
}
);
width = 1128;
}
);
unicode = 0035;
},
{
glyphname = six;
lastChange = "2013-03-10 15:35:19 +0200";
layers = (
{
layerId = UUID0;
name = "Regular Italic";
paths = (
{
closed = 1;
nodes = (
"133 139 OFFCURVE",
"271 -20 OFFCURVE",
"514 -20 CURVE SMOOTH",
"710 -20 OFFCURVE",
"867 77 OFFCURVE",
"955 254 CURVE SMOOTH",
"1000 343 OFFCURVE",
"1022 442 OFFCURVE",
"1022 549 CURVE SMOOTH",
"1022 664 OFFCURVE",
"992 754 OFFCURVE",
"932 819 CURVE SMOOTH",
"872 885 OFFCURVE",
"791 918 OFFCURVE",
"688 918 CURVE SMOOTH",
"547 918 OFFCURVE",
"427 850 OFFCURVE",
"348 745 CURVE",
"340 745 LINE",
"431 1137 OFFCURVE",
"626 1337 OFFCURVE",
"909 1337 CURVE SMOOTH",
"977 1337 OFFCURVE",
"1034 1330 OFFCURVE",
"1079 1315 CURVE",
"1114 1460 LINE",
"1065 1475 OFFCURVE",
"1004 1483 OFFCURVE",
"930 1483 CURVE SMOOTH",
"685 1483 OFFCURVE",
"494 1385 OFFCURVE",
"357 1190 CURVE SMOOTH",
"288 1093 OFFCURVE",
"234 976 OFFCURVE",
"193 839 CURVE SMOOTH",
"153 702 OFFCURVE",
"133 563 OFFCURVE",
"133 424 CURVE SMOOTH"
);
},
{
closed = 1;
nodes = (
"383 121 OFFCURVE",
"299 233 OFFCURVE",
"299 416 CURVE SMOOTH",
"299 481 OFFCURVE",
"307 533 OFFCURVE",
"323 571 CURVE SMOOTH",
"339 609 OFFCURVE",
"363 644 OFFCURVE",
"395 675 CURVE SMOOTH",
"459 739 OFFCURVE",
"545 780 OFFCURVE",
"633 780 CURVE SMOOTH",
"780 780 OFFCURVE",
"854 697 OFFCURVE",
"854 532 CURVE",
"857 306 OFFCURVE",
"720 115 OFFCURVE",
"532 121 CURVE"
);
}
);
width = 1128;
}
);
unicode = 0036;
},
{
glyphname = seven;
lastChange = "2013-03-10 15:35:19 +0200";
layers = (
{
layerId = UUID0;
name = "Regular Italic";
paths = (
{
closed = 1;
nodes = (
"354 0 LINE",
"1118 1323 LINE",
"1145 1462 LINE",
"254 1462 LINE",
"223 1313 LINE",
"942 1313 LINE",
"174 0 LINE"
);
}
);
width = 1128;
}
);
unicode = 0037;
},
{
glyphname = eight;
lastChange = "2013-03-10 15:35:19 +0200";
layers = (
{
layerId = UUID0;
name = "Regular Italic";
paths = (
{
closed = 1;
nodes = (
"495 1489 OFFCURVE",
"306 1323 OFFCURVE",
"311 1102 CURVE",
"311 974 OFFCURVE",
"360 878 OFFCURVE",
"487 786 CURVE",
"219 685 OFFCURVE",
"96 543 OFFCURVE",
"96 346 CURVE SMOOTH",
"96 233 OFFCURVE",
"132 144 OFFCURVE",
"204 78 CURVE SMOOTH",
"276 13 OFFCURVE",
"375 -20 OFFCURVE",
"502 -20 CURVE",
"806 -25 OFFCURVE",
"1002 150 OFFCURVE",
"999 395 CURVE",
"999 472 OFFCURVE",
"981 539 OFFCURVE",
"946 597 CURVE SMOOTH",
"911 655 OFFCURVE",
"851 710 OFFCURVE",
"766 762 CURVE",
"891 815 OFFCURVE",
"980 874 OFFCURVE",
"1032 938 CURVE SMOOTH",
"1084 1002 OFFCURVE",
"1110 1077 OFFCURVE",
"1110 1163 CURVE SMOOTH",
"1110 1262 OFFCURVE",
"1077 1341 OFFCURVE",
"1012 1398 CURVE SMOOTH",
"947 1456 OFFCURVE",
"857 1485 OFFCURVE",
"741 1485 CURVE"
);
},
{
closed = 1;
nodes = (
"759 620 OFFCURVE",
"825 523 OFFCURVE",
"825 391 CURVE SMOOTH",
"825 310 OFFCURVE",
"797 244 OFFCURVE",
"742 195 CURVE SMOOTH",
"687 146 OFFCURVE",
"613 121 OFFCURVE",
"520 121 CURVE SMOOTH",
"445 121 OFFCURVE",
"385 142 OFFCURVE",
"339 184 CURVE SMOOTH",
"293 226 OFFCURVE",
"270 283 OFFCURVE",
"270 354 CURVE SMOOTH",
"270 433 OFFCURVE",
"295 501 OFFCURVE",
"346 556 CURVE SMOOTH",
"397 612 OFFCURVE",
"485 660 OFFCURVE",
"608 700 CURVE"
);
},
{
closed = 1;
nodes = (
"857 1341 OFFCURVE",
"940 1265 OFFCURVE",
"940 1145 CURVE SMOOTH",
"940 1077 OFFCURVE",
"918 1019 OFFCURVE",
"873 971 CURVE SMOOTH",
"828 924 OFFCURVE",
"752 880 OFFCURVE",
"645 840 CURVE",
"528 912 OFFCURVE",
"479 991 OFFCURVE",
"479 1100 CURVE SMOOTH",
"479 1173 OFFCURVE",
"502 1232 OFFCURVE",
"547 1275 CURVE SMOOTH",
"592 1319 OFFCURVE",
"653 1341 OFFCURVE",
"729 1341 CURVE SMOOTH"
);
}
);
width = 1128;
}
);
unicode = 0038;
},
{
glyphname = nine;
lastChange = "2013-03-10 15:35:19 +0200";
layers = (
{
layerId = UUID0;
name = "Regular Italic";
paths = (
{
closed = 1;
nodes = (
"1067 1327 OFFCURVE",
"928 1483 OFFCURVE",
"688 1483 CURVE SMOOTH",
"592 1483 OFFCURVE",
"505 1459 OFFCURVE",
"428 1411 CURVE SMOOTH",
"351 1364 OFFCURVE",
"291 1297 OFFCURVE",
"248 1212 CURVE SMOOTH",
"205 1127 OFFCURVE",
"184 1034 OFFCURVE",
"184 932 CURVE SMOOTH",
"184 679 OFFCURVE",
"312 545 OFFCURVE",
"537 545 CURVE SMOOTH",
"669 545 OFFCURVE",
"782 607 OFFCURVE",
"850 707 CURVE",
"860 707 LINE",
"775 307 OFFCURVE",
"613 125 OFFCURVE",
"344 125 CURVE SMOOTH",
"269 125 OFFCURVE",
"187 141 OFFCURVE",
"98 172 CURVE",
"98 14 LINE",
"169 -9 OFFCURVE",
"249 -20 OFFCURVE",
"340 -20 CURVE SMOOTH",
"569 -20 OFFCURVE",
"742 71 OFFCURVE",
"863 267 CURVE SMOOTH",
"924 366 OFFCURVE",
"974 486 OFFCURVE",
"1011 627 CURVE SMOOTH",
"1048 769 OFFCURVE",
"1067 905 OFFCURVE",
"1067 1034 CURVE SMOOTH"
);
},
{
closed = 1;
nodes = (
"749 1341 OFFCURVE",
"803 1315 OFFCURVE",
"842 1264 CURVE SMOOTH",
"881 1213 OFFCURVE",
"901 1144 OFFCURVE",
"901 1057 CURVE SMOOTH",
"901 937 OFFCURVE",
"875 863 OFFCURVE",
"815 792 CURVE SMOOTH",
"756 721 OFFCURVE",
"668 682 OFFCURVE",
"567 682 CURVE SMOOTH",
"423 682 OFFCURVE",
"350 773 OFFCURVE",
"350 938 CURVE SMOOTH",
"350 1056 OFFCURVE",
"380 1153 OFFCURVE",
"441 1228 CURVE SMOOTH",
"502 1303 OFFCURVE",
"582 1341 OFFCURVE",
"682 1341 CURVE SMOOTH"
);
}
);
width = 1128;
}
);
unicode = 0039;
},
{
glyphname = fraction;
lastChange = "2013-03-10 15:35:20 +0200";
layers = (
{
layerId = UUID0;
name = "Regular Italic";
paths = (
{
closed = 1;
nodes = (
"598 1462 LINE",
"-487 0 LINE",
"-334 0 LINE",
"752 1462 LINE"
);
}
);
width = 268;
}
);
unicode = 2044;
},
{
glyphname = asterisk;
lastChange = "2013-03-10 15:35:19 +0200";
layers = (
{
layerId = UUID0;
name = "Regular Italic";
paths = (
{
closed = 1;
nodes = (
"682 1563 LINE",
"641 1163 LINE",
"270 1348 LINE",
"215 1194 LINE",
"588 1085 LINE",
"279 801 LINE",
"395 680 LINE",
"653 1024 LINE",
"766 618 LINE",
"932 670 LINE",
"752 1053 LINE",
"1145 1006 LINE",
"1153 1163 LINE",
"731 1145 LINE",
"854 1528 LINE"
);
}
);
width = 1130;
}
);
unicode = 002A;
},
{
glyphname = backslash;
lastChange = "2013-03-10 15:35:19 +0200";
layers = (
{
layerId = UUID0;
name = "Regular Italic";
paths = (
{
closed = 1;
nodes = (
"221 1462 LINE",
"438 0 LINE",
"592 0 LINE",
"375 1462 LINE"
);
}
);
width = 717;
}
);
unicode = 005C;
},
{
glyphname = bullet;
lastChange = "2013-03-10 15:35:19 +0200";
layers = (
{
layerId = UUID0;
name = "Regular Italic";
paths = (
{
closed = 1;
nodes = (
"199 560 OFFCURVE",
"262 492 OFFCURVE",
"381 492 CURVE SMOOTH",
"466 492 OFFCURVE",
"534 522 OFFCURVE",
"583 581 CURVE SMOOTH",
"632 640 OFFCURVE",
"657 717 OFFCURVE",
"657 811 CURVE SMOOTH",
"657 934 OFFCURVE",
"594 1001 OFFCURVE",
"471 1001 CURVE SMOOTH",
"388 1001 OFFCURVE",
"321 972 OFFCURVE",
"272 915 CURVE SMOOTH",
"223 858 OFFCURVE",
"199 781 OFFCURVE",
"199 684 CURVE SMOOTH"
);
}
);
width = 774;
}
);
unicode = 2022;
},
{
glyphname = colon;
lastChange = "2013-03-10 15:35:19 +0200";
layers = (
{
layerId = UUID0;
name = "Regular Italic";
paths = (
{
closed = 1;
nodes = (
"43 6 OFFCURVE",
"82 -29 OFFCURVE",
"143 -29 CURVE SMOOTH",
"188 -29 OFFCURVE",
"224 -13 OFFCURVE",
"251 18 CURVE SMOOTH",
"278 50 OFFCURVE",
"291 90 OFFCURVE",
"291 137 CURVE SMOOTH",
"291 208 OFFCURVE",
"252 242 OFFCURVE",
"195 242 CURVE SMOOTH",
"100 242 OFFCURVE",
"43 177 OFFCURVE",
"43 74 CURVE SMOOTH"
);
},
{
closed = 1;
nodes = (
"203 891 OFFCURVE",
"242 854 OFFCURVE",
"303 854 CURVE SMOOTH",
"346 854 OFFCURVE",
"382 869 OFFCURVE",
"409 900 CURVE SMOOTH",
"437 931 OFFCURVE",
"451 971 OFFCURVE",
"451 1020 CURVE SMOOTH",
"451 1089 OFFCURVE",
"419 1124 OFFCURVE",
"354 1124 CURVE SMOOTH",
"259 1124 OFFCURVE",
"203 1059 OFFCURVE",
"203 956 CURVE SMOOTH"
);
}
);
width = 518;
}
);
unicode = 003A;
},
{
glyphname = comma;
lastChange = "2013-03-10 15:35:19 +0200";
layers = (
{
layerId = UUID0;
name = "Regular Italic";
paths = (
{
closed = 1;
nodes = (
"104 238 LINE",
"52 94 OFFCURVE",
"-16 -73 OFFCURVE",
"-100 -264 CURVE",
"29 -264 LINE",
"134 -101 OFFCURVE",
"224 58 OFFCURVE",
"299 215 CURVE",
"291 238 LINE"
);
}
);
width = 492;
}
);
unicode = 002C;
},
{
glyphname = exclam;
lastChange = "2013-03-10 15:35:19 +0200";
layers = (
{
layerId = UUID0;
name = "Regular Italic";
paths = (
{
closed = 1;
nodes = (
"348 1462 LINE",
"263 961 OFFCURVE",
"205 608 OFFCURVE",
"172 403 CURVE",
"281 403 LINE",
"555 1462 LINE"
);
},
{
closed = 1;
nodes = (
"43 10 OFFCURVE",
"82 -29 OFFCURVE",
"147 -29 CURVE SMOOTH",
"191 -29 OFFCURVE",
"226 -13 OFFCURVE",
"252 18 CURVE SMOOTH",
"278 49 OFFCURVE",
"291 88 OFFCURVE",
"291 133 CURVE SMOOTH",
"291 205 OFFCURVE",
"250 242 OFFCURVE",
"190 242 CURVE SMOOTH",
"99 242 OFFCURVE",
"43 179 OFFCURVE",
"43 78 CURVE SMOOTH"
);
}
);
width = 530;
}
);
unicode = 0021;
},
{
glyphname = exclamdown;
lastChange = "2013-03-10 15:35:19 +0200";
layers = (
{
layerId = UUID0;
name = "Regular Italic";
paths = (
{
closed = 1;
nodes = (
"-14 -373 LINE",
"193 -373 LINE",
"369 684 LINE",
"260 684 LINE"
);
},
{
closed = 1;
nodes = (
"250 882 OFFCURVE",
"288 848 OFFCURVE",
"352 848 CURVE SMOOTH",
"395 848 OFFCURVE",
"430 863 OFFCURVE",
"457 894 CURVE SMOOTH",
"484 925 OFFCURVE",
"498 965 OFFCURVE",
"498 1012 CURVE SMOOTH",
"498 1084 OFFCURVE",
"460 1118 OFFCURVE",
"401 1118 CURVE SMOOTH",
"308 1118 OFFCURVE",
"250 1051 OFFCURVE",
"250 950 CURVE SMOOTH"
);
}
);
width = 530;
}
);
unicode = 00A1;
},
{
glyphname = numbersign;
lastChange = "2013-03-10 15:35:19 +0200";
layers = (
{
layerId = UUID0;
name = "Regular Italic";
paths = (
{
closed = 1;
nodes = (
"1327 899 LINE",
"1339 1026 LINE",
"1075 1026 LINE",
"1200 1462 LINE",
"1067 1462 LINE",
"940 1026 LINE",
"635 1026 LINE",
"760 1462 LINE",
"621 1462 LINE",
"498 1026 LINE",
"197 1026 LINE",
"184 899 LINE",
"461 899 LINE",
"360 559 LINE",
"76 559 LINE",
"63 430 LINE",
"324 430 LINE",
"203 0 LINE",
"336 0 LINE",
"463 430 LINE",
"766 430 LINE",
"637 0 LINE",
"776 0 LINE",
"901 430 LINE",
"1210 430 LINE",
"1223 559 LINE",
"938 559 LINE",
"1036 899 LINE"
);
},
{
closed = 1;
nodes = (
"596 899 LINE",
"899 899 LINE",
"803 559 LINE",
"500 559 LINE"
);
}
);
width = 1323;
}
);
unicode = 0023;
},
{
glyphname = period;
lastChange = "2013-03-10 15:35:19 +0200";
layers = (
{
layerId = UUID0;
name = "Regular Italic";
paths = (
{
closed = 1;
nodes = (
"43 6 OFFCURVE",
"82 -29 OFFCURVE",
"143 -29 CURVE SMOOTH",
"188 -29 OFFCURVE",
"224 -13 OFFCURVE",
"251 18 CURVE SMOOTH",
"278 50 OFFCURVE",
"291 90 OFFCURVE",
"291 137 CURVE SMOOTH",
"291 208 OFFCURVE",
"252 242 OFFCURVE",
"195 242 CURVE SMOOTH",
"100 242 OFFCURVE",
"43 177 OFFCURVE",
"43 74 CURVE SMOOTH"
);
}
);
width = 518;
}
);
unicode = 002E;
},
{
glyphname = question;
lastChange = "2013-03-10 15:35:19 +0200";
layers = (
{
layerId = UUID0;
name = "Regular Italic";
paths = (
{
closed = 1;
nodes = (
"395 403 LINE",
"410 472 OFFCURVE",
"433 526 OFFCURVE",
"462 563 CURVE SMOOTH",
"491 601 OFFCURVE",
"548 650 OFFCURVE",
"631 711 CURVE SMOOTH",
"738 791 OFFCURVE",
"813 865 OFFCURVE",
"856 934 CURVE SMOOTH",
"900 1003 OFFCURVE",
"922 1079 OFFCURVE",
"922 1161 CURVE SMOOTH",
"922 1366 OFFCURVE",
"794 1483 OFFCURVE",
"571 1483 CURVE SMOOTH",
"516 1483 OFFCURVE",
"456 1475 OFFCURVE",
"389 1458 CURVE SMOOTH",
"322 1441 OFFCURVE",
"258 1416 OFFCURVE",
"197 1382 CURVE",
"258 1253 LINE",
"346 1294 OFFCURVE",
"445 1335 OFFCURVE",
"553 1335 CURVE SMOOTH",
"681 1335 OFFCURVE",
"752 1265 OFFCURVE",
"752 1141 CURVE SMOOTH",
"752 1058 OFFCURVE",
"719 994 OFFCURVE",
"666 935 CURVE SMOOTH",
"639 906 OFFCURVE",
"583 858 OFFCURVE",
"498 791 CURVE SMOOTH",
"421 730 OFFCURVE",
"366 672 OFFCURVE",
"332 616 CURVE SMOOTH",
"299 561 OFFCURVE",
"275 490 OFFCURVE",
"260 403 CURVE"
);
},
{
closed = 1;
nodes = (
"158 6 OFFCURVE",
"197 -29 OFFCURVE",
"258 -29 CURVE SMOOTH",
"301 -29 OFFCURVE",
"337 -14 OFFCURVE",
"364 17 CURVE SMOOTH",
"392 48 OFFCURVE",
"406 88 OFFCURVE",
"406 137 CURVE SMOOTH",
"406 208 OFFCURVE",
"368 242 OFFCURVE",
"309 242 CURVE SMOOTH",
"214 242 OFFCURVE",
"158 177 OFFCURVE",
"158 74 CURVE SMOOTH"
);
}
);
width = 874;
}
);
unicode = 003F;
},
{
glyphname = questiondown;
lastChange = "2013-03-10 15:35:19 +0200";
layers = (
{
layerId = UUID0;
name = "Regular Italic";
paths = (
{
closed = 1;
nodes = (
"522 680 LINE",
"507 613 OFFCURVE",
"486 562 OFFCURVE",
"459 525 CURVE SMOOTH",
"432 489 OFFCURVE",
"375 438 OFFCURVE",
"287 373 CURVE SMOOTH",
"181 294 OFFCURVE",
"106 219 OFFCURVE",
"62 150 CURVE SMOOTH",
"18 81 OFFCURVE",
"-4 5 OFFCURVE",
"-4 -78 CURVE SMOOTH",
"-4 -283 OFFCURVE",
"122 -399 OFFCURVE",
"346 -399 CURVE SMOOTH",
"462 -399 OFFCURVE",
"601 -363 OFFCURVE",
"721 -299 CURVE",
"659 -170 LINE",
"571 -211 OFFCURVE",
"472 -252 OFFCURVE",
"365 -252 CURVE SMOOTH",
"237 -252 OFFCURVE",
"166 -181 OFFCURVE",
"166 -57 CURVE SMOOTH",
"166 42 OFFCURVE",
"219 133 OFFCURVE",
"325 218 CURVE SMOOTH",
"420 293 LINE SMOOTH",
"497 355 OFFCURVE",
"552 413 OFFCURVE",
"585 468 CURVE SMOOTH",
"618 523 OFFCURVE",
"642 593 OFFCURVE",
"657 680 CURVE"
);
},
{
closed = 1;
nodes = (
"760 1078 OFFCURVE",
"722 1112 OFFCURVE",
"659 1112 CURVE SMOOTH",
"614 1112 OFFCURVE",
"579 1096 OFFCURVE",
"552 1064 CURVE SMOOTH",
"525 1033 OFFCURVE",
"512 993 OFFCURVE",
"512 946 CURVE SMOOTH",
"512 877 OFFCURVE",
"551 842 OFFCURVE",
"608 842 CURVE SMOOTH",
"703 842 OFFCURVE",
"760 907 OFFCURVE",
"760 1010 CURVE SMOOTH"
);
}
);
width = 874;
}
);
unicode = 00BF;
},
{
glyphname = quotedbl;
lastChange = "2013-03-10 15:35:19 +0200";
layers = (
{
layerId = UUID0;
name = "Regular Italic";
paths = (
{
closed = 1;
nodes = (
"297 1462 LINE",
"225 934 LINE",
"332 934 LINE",
"485 1462 LINE"
);
},
{
closed = 1;
nodes = (
"645 1462 LINE",
"573 934 LINE",
"680 934 LINE",
"834 1462 LINE"
);
}
);
width = 791;
}
);
unicode = 0022;
},
{
glyphname = quotesingle;
lastChange = "2013-03-10 15:35:19 +0200";
layers = (
{
layerId = UUID0;
name = "Regular Italic";
paths = (
{
closed = 1;
nodes = (
"297 1462 LINE",
"225 934 LINE",
"332 934 LINE",
"485 1462 LINE"
);
}
);
width = 444;
}
);
unicode = 0027;
},
{
glyphname = semicolon;
lastChange = "2013-03-10 15:35:19 +0200";
layers = (
{
layerId = UUID0;
name = "Regular Italic";
paths = (
{
closed = 1;
nodes = (
"104 238 LINE",
"52 94 OFFCURVE",
"-16 -73 OFFCURVE",
"-100 -264 CURVE",
"29 -264 LINE",
"134 -101 OFFCURVE",
"224 58 OFFCURVE",
"299 215 CURVE",
"291 238 LINE"
);
},
{
closed = 1;
nodes = (
"203 891 OFFCURVE",
"242 854 OFFCURVE",
"303 854 CURVE SMOOTH",
"346 854 OFFCURVE",
"382 869 OFFCURVE",
"409 900 CURVE SMOOTH",
"437 931 OFFCURVE",
"451 971 OFFCURVE",
"451 1020 CURVE SMOOTH",
"451 1089 OFFCURVE",
"419 1124 OFFCURVE",
"354 1124 CURVE SMOOTH",
"259 1124 OFFCURVE",
"203 1059 OFFCURVE",
"203 956 CURVE SMOOTH"
);
}
);
width = 518;
}
);
unicode = 003B;
},
{
glyphname = slash;
lastChange = "2013-03-10 15:35:19 +0200";
layers = (
{
layerId = UUID0;
name = "Regular Italic";
paths = (
{
closed = 1;
nodes = (
"719 1462 LINE",
"-94 0 LINE",
"80 0 LINE",
"893 1462 LINE"
);
}
);
width = 717;
}
);
unicode = 002F;
},
{
glyphname = underscore;
lastChange = "2013-03-10 15:35:19 +0200";
layers = (
{
layerId = UUID0;
name = "Regular Italic";
paths = (
{
closed = 1;
nodes = (
"653 -184 LINE",
"-158 -184 LINE",
"-188 -324 LINE",
"623 -324 LINE"
);
}
);
width = 807;
}
);
unicode = 005F;
},
{
glyphname = braceleft;
lastChange = "2013-03-10 15:35:19 +0200";
layers = (
{
layerId = UUID0;
name = "Regular Italic";
paths = (
{
closed = 1;
nodes = (
"465 -324 LINE",
"465 -182 LINE",
"354 -182 OFFCURVE",
"309 -151 OFFCURVE",
"309 -80 CURVE SMOOTH",
"309 -53 OFFCURVE",
"314 -21 OFFCURVE",
"324 18 CURVE",
"371 229 LINE",
"383 277 OFFCURVE",
"389 321 OFFCURVE",
"389 360 CURVE SMOOTH",
"389 475 OFFCURVE",
"339 546 OFFCURVE",
"238 573 CURVE",
"238 578 LINE",
"377 601 OFFCURVE",
"459 676 OFFCURVE",
"496 840 CURVE SMOOTH",
"567 1161 LINE SMOOTH",
"580 1219 OFFCURVE",
"602 1260 OFFCURVE",
"633 1284 CURVE SMOOTH",
"664 1309 OFFCURVE",
"714 1321 OFFCURVE",
"784 1321 CURVE",
"815 1462 LINE",
"782 1462 LINE SMOOTH",
"668 1462 OFFCURVE",
"583 1441 OFFCURVE",
"527 1398 CURVE SMOOTH",
"472 1355 OFFCURVE",
"433 1281 OFFCURVE",
"410 1174 CURVE SMOOTH",
"342 848 LINE SMOOTH",
"313 709 OFFCURVE",
"216 657 OFFCURVE",
"59 657 CURVE",
"27 514 LINE",
"166 514 OFFCURVE",
"236 466 OFFCURVE",
"236 371 CURVE",
"241 343 OFFCURVE",
"214 236 OFFCURVE",
"170 41 CURVE SMOOTH",
"157 -18 OFFCURVE",
"150 -65 OFFCURVE",
"150 -100 CURVE SMOOTH",
"150 -259 OFFCURVE",
"254 -324 OFFCURVE",
"442 -324 CURVE SMOOTH"
);
}
);
width = 715;
}
);
unicode = 007B;
},
{
glyphname = braceright;
lastChange = "2013-03-10 15:35:19 +0200";
layers = (
{
layerId = UUID0;
name = "Regular Italic";
paths = (
{
closed = 1;
nodes = (
"274 1462 LINE",
"246 1321 LINE",
"378 1321 OFFCURVE",
"426 1290 OFFCURVE",
"426 1219 CURVE SMOOTH",
"426 1196 OFFCURVE",
"421 1163 OFFCURVE",
"412 1120 CURVE",
"362 907 LINE SMOOTH",
"350 859 OFFCURVE",
"344 815 OFFCURVE",
"344 776 CURVE SMOOTH",
"344 663 OFFCURVE",
"394 593 OFFCURVE",
"494 565 CURVE",
"494 559 LINE",
"351 535 OFFCURVE",
"269 455 OFFCURVE",
"236 299 CURVE",
"164 -23 LINE SMOOTH",
"151 -81 OFFCURVE",
"128 -122 OFFCURVE",
"93 -146 CURVE SMOOTH",
"58 -170 OFFCURVE",
"3 -182 OFFCURVE",
"-74 -182 CURVE",
"-74 -324 LINE",
"-61 -324 LINE SMOOTH",
"60 -324 OFFCURVE",
"148 -303 OFFCURVE",
"203 -261 CURVE SMOOTH",
"258 -220 OFFCURVE",
"298 -144 OFFCURVE",
"322 -35 CURVE",
"389 291 LINE SMOOTH",
"418 430 OFFCURVE",
"513 481 OFFCURVE",
"672 481 CURVE",
"705 625 LINE",
"566 625 OFFCURVE",
"496 673 OFFCURVE",
"496 768 CURVE SMOOTH",
"496 797 OFFCURVE",
"501 834 OFFCURVE",
"512 879 CURVE",
"561 1098 LINE SMOOTH",
"575 1160 OFFCURVE",
"582 1207 OFFCURVE",
"582 1239 CURVE SMOOTH",
"582 1396 OFFCURVE",
"477 1462 OFFCURVE",
"285 1462 CURVE SMOOTH"
);
}
);
width = 715;
}
);
unicode = 007D;
},
{
glyphname = bracketleft;
lastChange = "2013-03-10 15:35:19 +0200";
layers = (
{
layerId = UUID0;
name = "Regular Italic";
paths = (
{
closed = 1;
nodes = (
"403 -182 LINE",
"176 -182 LINE",
"494 1321 LINE",
"721 1321 LINE",
"752 1462 LINE",
"365 1462 LINE",
"-16 -324 LINE",
"371 -324 LINE"
);
}
);
width = 586;
}
);
unicode = 005B;
},
{
glyphname = bracketright;
lastChange = "2013-03-10 15:35:19 +0200";
layers = (
{
layerId = UUID0;
name = "Regular Italic";
paths = (
{
closed = 1;
nodes = (
"-150 -324 LINE",
"238 -324 LINE",
"618 1462 LINE",
"229 1462 LINE",
"199 1321 LINE",
"426 1321 LINE",
"106 -182 LINE",
"-119 -182 LINE"
);
}
);
width = 586;
}
);
unicode = 005D;
},
{
glyphname = parenleft;
lastChange = "2013-03-10 15:35:19 +0200";
layers = (
{
layerId = UUID0;
name = "Regular Italic";
paths = (
{
closed = 1;
nodes = (
"82 52 OFFCURVE",
"131 -147 OFFCURVE",
"229 -324 CURVE",
"360 -324 LINE",
"284 -151 OFFCURVE",
"246 48 OFFCURVE",
"246 274 CURVE SMOOTH",
"246 698 OFFCURVE",
"415 1102 OFFCURVE",
"743 1462 CURVE",
"586 1462 LINE",
"410 1279 OFFCURVE",
"282 1091 OFFCURVE",
"202 899 CURVE SMOOTH",
"122 707 OFFCURVE",
"82 498 OFFCURVE",
"82 272 CURVE SMOOTH"
);
}
);
width = 584;
}
);
unicode = 0028;
},
{
glyphname = parenright;
lastChange = "2013-03-10 15:35:19 +0200";
layers = (
{
layerId = UUID0;
name = "Regular Italic";
paths = (
{
closed = 1;
nodes = (
"500 1083 OFFCURVE",
"451 1283 OFFCURVE",
"354 1462 CURVE",
"223 1462 LINE",
"298 1291 OFFCURVE",
"336 1091 OFFCURVE",
"336 864 CURVE SMOOTH",
"336 439 OFFCURVE",
"171 43 OFFCURVE",
"-160 -324 CURVE",
"-4 -324 LINE",
"170 -144 OFFCURVE",
"297 42 OFFCURVE",
"378 234 CURVE SMOOTH",
"459 427 OFFCURVE",
"500 637 OFFCURVE",
"500 864 CURVE SMOOTH"
);
}
);
width = 584;
}
);
unicode = 0029;
},
{
glyphname = emdash;
lastChange = "2013-03-10 15:35:20 +0200";
layers = (
{
layerId = UUID0;
name = "Regular Italic";
paths = (
{
closed = 1;
nodes = (
"1862 469 LINE",
"1896 629 LINE",
"90 629 LINE",
"55 469 LINE"
);
}
);
width = 1966;
}
);
unicode = 2014;
},
{
glyphname = endash;
lastChange = "2013-03-10 15:35:20 +0200";
layers = (
{
layerId = UUID0;
name = "Regular Italic";
paths = (
{
closed = 1;
nodes = (
"879 469 LINE",
"913 629 LINE",
"90 629 LINE",
"55 469 LINE"
);
}
);
width = 983;
}
);
unicode = 2013;
},
{
glyphname = hyphen;
lastChange = "2013-03-10 15:35:19 +0200";
layers = (
{
layerId = UUID0;
name = "Regular Italic";
paths = (
{
closed = 1;
nodes = (
"535 469 LINE",
"569 627 LINE",
"90 627 LINE",
"55 469 LINE"
);
}
);
width = 639;
}
);
unicode = 002D;
},
{
glyphname = guillemotleft;
lastChange = "2013-03-10 15:35:19 +0200";
layers = (
{
layerId = UUID0;
name = "Regular Italic";
paths = (
{
closed = 1;
nodes = (
"88 555 LINE",
"319 113 LINE",
"432 162 LINE",
"260 549 LINE",
"557 877 LINE",
"479 958 LINE",
"88 584 LINE"
);
},
{
closed = 1;
nodes = (
"483 510 LINE",
"698 113 LINE",
"811 162 LINE",
"653 512 LINE",
"936 877 LINE",
"850 946 LINE",
"483 541 LINE"
);
}
);
width = 958;
}
);
unicode = 00AB;
},
{
glyphname = guillemotright;
lastChange = "2013-03-10 15:35:19 +0200";
layers = (
{
layerId = UUID0;
name = "Regular Italic";
paths = (
{
closed = 1;
nodes = (
"872 514 LINE",
"639 961 LINE",
"526 911 LINE",
"698 520 LINE",
"401 197 LINE",
"479 115 LINE",
"872 485 LINE"
);
},
{
closed = 1;
nodes = (
"477 559 LINE",
"260 961 LINE",
"147 911 LINE",
"305 557 LINE",
"23 197 LINE",
"109 127 LINE",
"477 528 LINE"
);
}
);
width = 958;
}
);
unicode = 00BB;
},
{
glyphname = guilsinglleft;
lastChange = "2013-03-10 15:35:20 +0200";
layers = (
{
layerId = UUID0;
name = "Regular Italic";
paths = (
{
closed = 1;
nodes = (
"88 549 LINE",
"319 113 LINE",
"432 162 LINE",
"260 543 LINE",
"557 877 LINE",
"479 958 LINE",
"88 578 LINE"
);
}
);
width = 580;
}
);
unicode = 2039;
},
{
glyphname = guilsinglright;
lastChange = "2013-03-10 15:35:20 +0200";
layers = (
{
layerId = UUID0;
name = "Regular Italic";
paths = (
{
closed = 1;
nodes = (
"492 524 LINE",
"260 961 LINE",
"147 911 LINE",
"319 530 LINE",
"23 197 LINE",
"100 115 LINE",
"492 496 LINE"
);
}
);
width = 580;
}
);
unicode = 203A;
},
{
glyphname = quotedblbase;
lastChange = "2013-03-10 15:35:19 +0200";
layers = (
{
layerId = UUID0;
name = "Regular Italic";
paths = (
{
closed = 1;
nodes = (
"104 238 LINE",
"52 94 OFFCURVE",
"-16 -73 OFFCURVE",
"-100 -264 CURVE",
"29 -264 LINE",
"134 -101 OFFCURVE",
"224 58 OFFCURVE",
"299 215 CURVE",
"291 238 LINE"
);
},
{
closed = 1;
nodes = (
"471 238 LINE",
"429 114 OFFCURVE",
"361 -53 OFFCURVE",
"268 -264 CURVE",
"397 -264 LINE",
"514 -81 OFFCURVE",
"605 78 OFFCURVE",
"668 215 CURVE",
"659 238 LINE"
);
}
);
width = 858;
}
);
unicode = 201E;
},
{
glyphname = quotedblleft;
lastChange = "2013-03-10 15:35:20 +0200";
layers = (
{
layerId = UUID0;
name = "Regular Italic";
paths = (
{
closed = 1;
nodes = (
"688 961 LINE",
"715 1042 OFFCURVE",
"783 1209 OFFCURVE",
"891 1462 CURVE",
"764 1462 LINE",
"636 1263 OFFCURVE",
"545 1104 OFFCURVE",
"492 983 CURVE",
"500 961 LINE"
);
},
{
closed = 1;
nodes = (
"317 961 LINE",
"354 1065 OFFCURVE",
"422 1232 OFFCURVE",
"520 1462 CURVE",
"393 1462 LINE",
"278 1283 OFFCURVE",
"188 1124 OFFCURVE",
"123 983 CURVE",
"129 961 LINE"
);
}
);
width = 719;
}
);
unicode = 201C;
},
{
glyphname = quotedblright;
lastChange = "2013-03-10 15:35:20 +0200";
layers = (
{
layerId = UUID0;
name = "Regular Italic";
paths = (
{
closed = 1;
nodes = (
"328 1462 LINE",
"282 1327 OFFCURVE",
"214 1160 OFFCURVE",
"125 961 CURVE",
"254 961 LINE",
"313 1050 OFFCURVE",
"366 1136 OFFCURVE",
"413 1221 CURVE SMOOTH",
"460 1306 OFFCURVE",
"497 1379 OFFCURVE",
"524 1440 CURVE",
"516 1462 LINE"
);
},
{
closed = 1;
nodes = (
"696 1462 LINE",
"677 1407 OFFCURVE",
"648 1331 OFFCURVE",
"609 1233 CURVE SMOOTH",
"570 1136 OFFCURVE",
"532 1045 OFFCURVE",
"494 961 CURVE",
"621 961 LINE",
"741 1143 OFFCURVE",
"832 1303 OFFCURVE",
"895 1440 CURVE",
"885 1462 LINE"
);
}
);
width = 719;
}
);
unicode = 201D;
},
{
glyphname = quoteleft;
lastChange = "2013-03-10 15:35:20 +0200";
layers = (
{
layerId = UUID0;
name = "Regular Italic";
paths = (
{
closed = 1;
nodes = (
"317 961 LINE",
"354 1065 OFFCURVE",
"422 1232 OFFCURVE",
"520 1462 CURVE",
"393 1462 LINE",
"278 1283 OFFCURVE",
"188 1124 OFFCURVE",
"123 983 CURVE",
"129 961 LINE"
);
}
);
width = 348;
}
);
unicode = 2018;
},
{
glyphname = quoteright;
lastChange = "2013-03-10 15:35:20 +0200";
layers = (
{
layerId = UUID0;
name = "Regular Italic";
paths = (
{
closed = 1;
nodes = (
"328 1462 LINE",
"282 1327 OFFCURVE",
"214 1160 OFFCURVE",
"125 961 CURVE",
"254 961 LINE",
"313 1050 OFFCURVE",
"366 1136 OFFCURVE",
"413 1221 CURVE SMOOTH",
"460 1306 OFFCURVE",
"497 1379 OFFCURVE",
"524 1440 CURVE",
"516 1462 LINE"
);
}
);
width = 348;
}
);
unicode = 2019;
},
{
glyphname = quotesinglbase;
lastChange = "2013-03-10 15:35:20 +0200";
layers = (
{
layerId = UUID0;
name = "Regular Italic";
paths = (
{
closed = 1;
nodes = (
"104 238 LINE",
"52 94 OFFCURVE",
"-16 -73 OFFCURVE",
"-100 -264 CURVE",
"29 -264 LINE",
"134 -101 OFFCURVE",
"224 58 OFFCURVE",
"299 215 CURVE",
"291 238 LINE"
);
}
);
width = 492;
}
);
unicode = 201A;
},
{
glyphname = "geresh-hb";
lastChange = "2013-03-12 15:08:07 +0200";
layers = (
{
layerId = UUID0;
name = "Regular Italic";
paths = (
{
closed = 1;
nodes = (
"277 1290 LINE",
"231 1155 OFFCURVE",
"163 988 OFFCURVE",
"74 789 CURVE",
"203 789 LINE",
"262 878 OFFCURVE",
"315 964 OFFCURVE",
"362 1049 CURVE SMOOTH",
"409 1134 OFFCURVE",
"446 1207 OFFCURVE",
"473 1268 CURVE",
"465 1290 LINE"
);
}
);
width = 348;
}
);
unicode = 05F3;
},
{
glyphname = "gershayim-hb";
lastChange = "2013-03-12 15:07:39 +0200";
layers = (
{
layerId = UUID0;
name = "Regular Italic";
paths = (
{
closed = 1;
nodes = (
"277 1290 LINE",
"231 1155 OFFCURVE",
"163 988 OFFCURVE",
"74 789 CURVE",
"203 789 LINE",
"262 878 OFFCURVE",
"315 964 OFFCURVE",
"362 1049 CURVE SMOOTH",
"409 1134 OFFCURVE",
"446 1207 OFFCURVE",
"473 1268 CURVE",
"465 1290 LINE"
);
},
{
closed = 1;
nodes = (
"645 1290 LINE",
"626 1235 OFFCURVE",
"597 1159 OFFCURVE",
"558 1061 CURVE SMOOTH",
"519 964 OFFCURVE",
"481 873 OFFCURVE",
"443 789 CURVE",
"570 789 LINE",
"690 971 OFFCURVE",
"781 1131 OFFCURVE",
"844 1268 CURVE",
"834 1290 LINE"
);
}
);
width = 717;
}
);
unicode = 05F4;
},
{
glyphname = "maqaf-hb";
lastChange = "2013-03-10 15:59:02 +0200";
layers = (
{
layerId = UUID0;
name = "Regular Italic";
paths = (
{
closed = 1;
nodes = (
"100 1290 LINE",
"68 1138 LINE",
"559 1138 LINE",
"591 1290 LINE"
);
}
);
width = 659;
}
);
unicode = 05BE;
},
{
glyphname = .notdef;
lastChange = "2013-03-10 15:35:19 +0200";
layers = (
{
layerId = UUID0;
name = "Regular Italic";
paths = (
{
closed = 1;
nodes = (
"193 0 LINE",
"1034 0 LINE",
"1034 1462 LINE",
"193 1462 LINE"
);
},
{
closed = 1;
nodes = (
"297 1358 LINE",
"930 1358 LINE",
"930 104 LINE",
"297 104 LINE"
);
}
);
width = 1229;
}
);
},
{
glyphname = florin;
lastChange = "2013-03-10 15:35:20 +0200";
layers = (
{
layerId = UUID0;
name = "Regular Italic";
paths = (
{
closed = 1;
nodes = (
"306 -492 OFFCURVE",
"409 -380 OFFCURVE",
"461 -129 CURVE",
"666 840 LINE",
"903 840 LINE",
"928 965 LINE",
"690 965 LINE",
"723 1120 LINE SMOOTH",
"741 1205 OFFCURVE",
"766 1263 OFFCURVE",
"797 1296 CURVE SMOOTH",
"828 1329 OFFCURVE",
"873 1346 OFFCURVE",
"932 1346 CURVE SMOOTH",
"973 1346 OFFCURVE",
"1018 1336 OFFCURVE",
"1069 1317 CURVE",
"1112 1446 LINE",
"1091 1456 OFFCURVE",
"1061 1465 OFFCURVE",
"1023 1472 CURVE SMOOTH",
"985 1479 OFFCURVE",
"952 1483 OFFCURVE",
"924 1483 CURVE SMOOTH",
"816 1483 OFFCURVE",
"733 1455 OFFCURVE",
"676 1398 CURVE SMOOTH",
"619 1341 OFFCURVE",
"578 1248 OFFCURVE",
"553 1118 CURVE SMOOTH",
"524 971 LINE",
"319 905 LINE",
"307 840 LINE",
"498 840 LINE",
"297 -113 LINE SMOOTH",
"264 -272 OFFCURVE",
"204 -352 OFFCURVE",
"117 -352 CURVE SMOOTH",
"82 -352 OFFCURVE",
"45 -345 OFFCURVE",
"4 -330 CURVE",
"4 -471 LINE",
"40 -485 OFFCURVE",
"81 -492 OFFCURVE",
"127 -492 CURVE SMOOTH"
);
}
);
width = 1128;
}
);
unicode = 0192;
},
{
glyphname = Euro;
lastChange = "2013-03-10 15:35:20 +0200";
layers = (
{
layerId = UUID0;
name = "Regular Italic";
paths = (
{
closed = 1;
nodes = (
"1007 1329 OFFCURVE",
"1084 1303 OFFCURVE",
"1159 1251 CURVE",
"1239 1389 LINE",
"1146 1454 OFFCURVE",
"1057 1481 OFFCURVE",
"938 1481 CURVE SMOOTH",
"662 1481 OFFCURVE",
"438 1288 OFFCURVE",
"309 932 CURVE",
"150 932 LINE",
"123 799 LINE",
"274 799 LINE",
"259 743 OFFCURVE",
"249 688 OFFCURVE",
"244 635 CURVE",
"90 635 LINE",
"63 504 LINE",
"233 504 LINE",
"233 492 LINE SMOOTH",
"233 329 OFFCURVE",
"272 202 OFFCURVE",
"349 113 CURVE SMOOTH",
"427 24 OFFCURVE",
"537 -20 OFFCURVE",
"678 -20 CURVE SMOOTH",
"779 -20 OFFCURVE",
"871 0 OFFCURVE",
"956 39 CURVE",
"956 186 LINE",
"867 149 OFFCURVE",
"782 131 OFFCURVE",
"700 131 CURVE SMOOTH",
"502 131 OFFCURVE",
"403 255 OFFCURVE",
"403 504 CURVE",
"764 504 LINE",
"793 635 LINE",
"412 635 LINE",
"419 701 OFFCURVE",
"430 756 OFFCURVE",
"444 799 CURVE",
"885 799 LINE",
"911 932 LINE",
"485 932 LINE",
"585 1197 OFFCURVE",
"741 1329 OFFCURVE",
"928 1329 CURVE SMOOTH"
);
}
);
width = 1128;
}
);
unicode = 20AC;
},
{
glyphname = cent;
lastChange = "2013-03-10 15:35:19 +0200";
layers = (
{
layerId = UUID0;
name = "Regular Italic";
paths = (
{
closed = 1;
nodes = (
"623 178 LINE",
"732 181 OFFCURVE",
"827 203 OFFCURVE",
"909 244 CURVE",
"909 387 LINE",
"826 350 OFFCURVE",
"743 319 OFFCURVE",
"647 319 CURVE SMOOTH",
"568 319 OFFCURVE",
"507 343 OFFCURVE",
"463 392 CURVE SMOOTH",
"419 441 OFFCURVE",
"397 507 OFFCURVE",
"397 590 CURVE SMOOTH",
"397 697 OFFCURVE",
"414 795 OFFCURVE",
"449 886 CURVE SMOOTH",
"484 977 OFFCURVE",
"533 1048 OFFCURVE",
"594 1099 CURVE SMOOTH",
"656 1150 OFFCURVE",
"724 1176 OFFCURVE",
"799 1176 CURVE SMOOTH",
"872 1176 OFFCURVE",
"945 1159 OFFCURVE",
"1018 1124 CURVE",
"1065 1266 LINE",
"1000 1293 OFFCURVE",
"927 1309 OFFCURVE",
"848 1315 CURVE",
"885 1483 LINE",
"762 1483 LINE",
"727 1313 LINE",
"534 1285 OFFCURVE",
"373 1146 OFFCURVE",
"288 934 CURVE SMOOTH",
"246 828 OFFCURVE",
"225 713 OFFCURVE",
"225 590 CURVE SMOOTH",
"225 385 OFFCURVE",
"324 240 OFFCURVE",
"500 195 CURVE",
"457 -20 LINE",
"582 -20 LINE"
);
}
);
width = 1128;
}
);
unicode = 00A2;
},
{
glyphname = dollar;
lastChange = "2013-03-10 15:35:19 +0200";
layers = (
{
layerId = UUID0;
name = "Regular Italic";
paths = (
{
closed = 1;
nodes = (
"942 564 OFFCURVE",
"921 623 OFFCURVE",
"878 670 CURVE SMOOTH",
"836 717 OFFCURVE",
"765 758 OFFCURVE",
"666 795 CURVE",
"760 1235 LINE",
"845 1229 OFFCURVE",
"927 1205 OFFCURVE",
"1008 1163 CURVE",
"1071 1298 LINE",
"988 1341 OFFCURVE",
"894 1366 OFFCURVE",
"788 1374 CURVE",
"827 1552 LINE",
"694 1552 LINE",
"655 1376 LINE",
"528 1365 OFFCURVE",
"428 1327 OFFCURVE",
"356 1263 CURVE SMOOTH",
"284 1199 OFFCURVE",
"248 1114 OFFCURVE",
"248 1008 CURVE SMOOTH",
"248 856 OFFCURVE",
"327 761 OFFCURVE",
"512 696 CURVE",
"414 244 LINE",
"365 244 OFFCURVE",
"310 251 OFFCURVE",
"247 266 CURVE SMOOTH",
"185 281 OFFCURVE",
"127 303 OFFCURVE",
"72 330 CURVE",
"72 176 LINE",
"152 137 OFFCURVE",
"257 113 OFFCURVE",
"387 104 CURVE",
"338 -119 LINE",
"471 -119 LINE",
"520 106 LINE",
"651 121 OFFCURVE",
"754 162 OFFCURVE",
"829 229 CURVE SMOOTH",
"904 296 OFFCURVE",
"942 384 OFFCURVE",
"942 492 CURVE SMOOTH"
);
},
{
closed = 1;
nodes = (
"635 649 LINE",
"743 606 OFFCURVE",
"782 551 OFFCURVE",
"782 479 CURVE SMOOTH",
"782 418 OFFCURVE",
"761 366 OFFCURVE",
"719 325 CURVE SMOOTH",
"677 284 OFFCURVE",
"620 259 OFFCURVE",
"549 250 CURVE"
);
},
{
closed = 1;
nodes = (
"543 842 LINE",
"446 877 OFFCURVE",
"401 939 OFFCURVE",
"401 1010 CURVE SMOOTH",
"401 1141 OFFCURVE",
"483 1220 OFFCURVE",
"627 1235 CURVE"
);
}
);
width = 1128;
}
);
unicode = 0024;
},
{
glyphname = sterling;
lastChange = "2013-03-10 15:35:19 +0200";
layers = (
{
layerId = UUID0;
name = "Regular Italic";
paths = (
{
closed = 1;
nodes = (
"605 1481 OFFCURVE",
"462 1363 OFFCURVE",
"412 1128 CURVE",
"336 778 LINE",
"135 778 LINE",
"109 651 LINE",
"309 651 LINE",
"262 430 LINE SMOOTH",
"227 268 OFFCURVE",
"141 172 OFFCURVE",
"4 141 CURVE",
"-23 0 LINE",
"930 0 LINE",
"963 154 LINE",
"238 154 LINE",
"345 211 OFFCURVE",
"399 301 OFFCURVE",
"428 432 CURVE SMOOTH",
"475 651 LINE",
"846 651 LINE",
"872 778 LINE",
"502 778 LINE",
"571 1104 LINE SMOOTH",
"604 1262 OFFCURVE",
"692 1341 OFFCURVE",
"834 1341 CURVE SMOOTH",
"922 1341 OFFCURVE",
"1015 1315 OFFCURVE",
"1112 1262 CURVE",
"1178 1395 LINE",
"1077 1452 OFFCURVE",
"965 1481 OFFCURVE",
"842 1481 CURVE SMOOTH"
);
}
);
width = 1128;
}
);
unicode = 00A3;
},
{
glyphname = uni20AA;
lastChange = "2013-03-10 15:59:20 +0200";
layers = (
{
layerId = UUID0;
name = "Regular Italic";
paths = (
{
closed = 1;
nodes = (
"1420 1289 LINE",
"1301 727 LINE SMOOTH",
"1210 300 OFFCURVE",
"966 129 OFFCURVE",
"710 129 CURVE SMOOTH",
"587 129 LINE",
"752 903 LINE",
"586 903 LINE",
"394 0 LINE",
"656 0 LINE SMOOTH",
"1222 0 OFFCURVE",
"1413 469 OFFCURVE",
"1468 727 CURVE SMOOTH",
"1587 1289 LINE"
);
},
{
closed = 1;
nodes = (
"297 1289 LINE",
"23 0 LINE",
"189 0 LINE",
"436 1160 LINE",
"725 1161 LINE SMOOTH",
"903 1162 OFFCURVE",
"1009 1119 OFFCURVE",
"963 902 CURVE SMOOTH",
"853 387 LINE",
"1019 387 LINE",
"1128 900 LINE SMOOTH",
"1193 1204 OFFCURVE",
"1062 1289 OFFCURVE",
"775 1289 CURVE SMOOTH"
);
}
);
width = 1604;
}
);
unicode = 20AA;
},
{
glyphname = yen;
lastChange = "2013-03-10 15:35:19 +0200";
layers = (
{
layerId = UUID0;
name = "Regular Italic";
paths = (
{
closed = 1;
nodes = (
"403 1462 LINE",
"240 1462 LINE",
"442 692 LINE",
"217 692 LINE",
"188 559 LINE",
"479 559 LINE",
"446 399 LINE",
"156 399 LINE",
"127 266 LINE",
"418 266 LINE",
"362 0 LINE",
"516 0 LINE",
"573 266 LINE",
"868 266 LINE",
"897 399 LINE",
"600 399 LINE",
"633 559 LINE",
"930 559 LINE",
"958 692 LINE",
"727 692 LINE",
"1260 1462 LINE",
"1073 1462 LINE",
"582 715 LINE"
);
}
);
width = 1128;
}
);
unicode = 00A5;
},
{
glyphname = asciitilde;
lastChange = "2013-03-10 15:35:19 +0200";
layers = (
{
layerId = UUID0;
name = "Regular Italic";
paths = (
{
closed = 1;
nodes = (
"380 713 OFFCURVE",
"411 709 OFFCURVE",
"441 701 CURVE SMOOTH",
"471 693 OFFCURVE",
"511 678 OFFCURVE",
"561 657 CURVE",
"657 614 OFFCURVE",
"735 592 OFFCURVE",
"831 592 CURVE SMOOTH",
"927 592 OFFCURVE",
"1008 629 OFFCURVE",
"1075 702 CURVE",
"1075 852 LINE",
"1007 779 OFFCURVE",
"913 731 OFFCURVE",
"840 731 CURVE SMOOTH",
"773 731 OFFCURVE",
"714 750 OFFCURVE",
"629 786 CURVE SMOOTH",
"572 811 OFFCURVE",
"524 828 OFFCURVE",
"485 837 CURVE SMOOTH",
"446 847 OFFCURVE",
"404 852 OFFCURVE",
"358 852 CURVE SMOOTH",
"261 852 OFFCURVE",
"180 816 OFFCURVE",
"115 743 CURVE",
"115 592 LINE",
"148 627 OFFCURVE",
"186 655 OFFCURVE",
"229 678 CURVE SMOOTH",
"272 701 OFFCURVE",
"312 713 OFFCURVE",
"348 713 CURVE SMOOTH"
);
}
);
width = 1128;
}
);
unicode = 007E;
},
{
glyphname = divide;
lastChange = "2013-03-10 15:35:20 +0200";
layers = (
{
layerId = UUID0;
name = "Regular Italic";
paths = (
{
closed = 1;
nodes = (
"1047 651 LINE",
"1047 793 LINE",
"127 793 LINE",
"127 651 LINE"
);
},
{
closed = 1;
nodes = (
"475 294 OFFCURVE",
"517 252 OFFCURVE",
"586 252 CURVE SMOOTH",
"655 252 OFFCURVE",
"698 296 OFFCURVE",
"698 373 CURVE SMOOTH",
"698 453 OFFCURVE",
"657 494 OFFCURVE",
"586 494 CURVE SMOOTH",
"512 494 OFFCURVE",
"475 454 OFFCURVE",
"475 373 CURVE SMOOTH"
);
},
{
closed = 1;
nodes = (
"475 992 OFFCURVE",
"517 950 OFFCURVE",
"586 950 CURVE SMOOTH",
"655 950 OFFCURVE",
"698 994 OFFCURVE",
"698 1071 CURVE SMOOTH",
"698 1151 OFFCURVE",
"657 1192 OFFCURVE",
"586 1192 CURVE SMOOTH",
"512 1192 OFFCURVE",
"475 1152 OFFCURVE",
"475 1071 CURVE SMOOTH"
);
}
);
width = 1128;
}
);
unicode = 00F7;
},
{
glyphname = equal;
lastChange = "2013-03-10 15:35:19 +0200";
layers = (
{
layerId = UUID0;
name = "Regular Italic";
paths = (
{
closed = 1;
nodes = (
"1047 858 LINE",
"1047 997 LINE",
"127 997 LINE",
"127 858 LINE"
);
},
{
closed = 1;
nodes = (
"1047 444 LINE",
"1047 586 LINE",
"127 586 LINE",
"127 444 LINE"
);
}
);
width = 1128;
}
);
unicode = 003D;
},
{
glyphname = greater;
lastChange = "2013-03-10 15:35:19 +0200";
layers = (
{
layerId = UUID0;
name = "Regular Italic";
paths = (
{
closed = 1;
nodes = (
"121 242 LINE",
"1040 664 LINE",
"1040 762 LINE",
"121 1241 LINE",
"121 1092 LINE",
"866 721 LINE",
"121 393 LINE"
);
}
);
width = 1128;
}
);
unicode = 003E;
},
{
glyphname = integral;
lastChange = "2013-03-10 15:35:20 +0200";
layers = (
{
layerId = UUID0;
name = "Regular Italic";
paths = (
{
closed = 1;
nodes = (
"448 1556 OFFCURVE",
"340 1433 OFFCURVE",
"340 1186 CURVE SMOOTH",
"340 -121 LINE SMOOTH",
"340 -276 OFFCURVE",
"275 -358 OFFCURVE",
"150 -358 CURVE SMOOTH",
"116 -358 OFFCURVE",
"79 -351 OFFCURVE",
"39 -338 CURVE",
"39 -477 LINE",
"76 -487 OFFCURVE",
"117 -492 OFFCURVE",
"164 -492 CURVE SMOOTH",
"383 -492 OFFCURVE",
"498 -362 OFFCURVE",
"498 -115 CURVE SMOOTH",
"498 1186 LINE SMOOTH",
"498 1345 OFFCURVE",
"557 1425 OFFCURVE",
"676 1425 CURVE SMOOTH",
"718 1425 OFFCURVE",
"755 1418 OFFCURVE",
"786 1403 CURVE",
"786 1540 LINE",
"759 1551 OFFCURVE",
"719 1556 OFFCURVE",
"664 1556 CURVE SMOOTH"
);
}
);
width = 786;
}
);
unicode = 222B;
},
{
glyphname = less;
lastChange = "2013-03-10 15:35:19 +0200";
layers = (
{
layerId = UUID0;
name = "Regular Italic";
paths = (
{
closed = 1;
nodes = (
"1040 393 LINE",
"293 721 LINE",
"1040 1092 LINE",
"1040 1241 LINE",
"121 762 LINE",
"121 664 LINE",
"1040 242 LINE"
);
}
);
width = 1128;
}
);
unicode = 003C;
},
{
glyphname = logicalnot;
lastChange = "2013-03-10 15:35:19 +0200";
layers = (
{
layerId = UUID0;
name = "Regular Italic";
paths = (
{
closed = 1;
nodes = (
"127 793 LINE",
"127 651 LINE",
"907 651 LINE",
"907 264 LINE",
"1047 264 LINE",
"1047 793 LINE"
);
}
);
width = 1128;
}
);
unicode = 00AC;
},
{
glyphname = notequal;
lastChange = "2013-03-10 15:35:20 +0200";
layers = (
{
layerId = UUID0;
name = "Regular Italic";
paths = (
{
closed = 1;
nodes = (
"274 219 LINE",
"403 166 LINE",
"532 444 LINE",
"1047 444 LINE",
"1047 586 LINE",
"598 586 LINE",
"727 858 LINE",
"1047 858 LINE",
"1047 997 LINE",
"793 997 LINE",
"899 1225 LINE",
"770 1282 LINE",
"637 997 LINE",
"127 997 LINE",
"127 858 LINE",
"571 858 LINE",
"444 586 LINE",
"127 586 LINE",
"127 444 LINE",
"379 444 LINE"
);
}
);
width = 1128;
}
);
unicode = 2260;
},
{
glyphname = percent;
lastChange = "2013-03-10 15:35:19 +0200";
layers = (
{
layerId = UUID0;
name = "Regular Italic";
paths = (
{
closed = 1;
nodes = (
"1317 1462 LINE",
"231 0 LINE",
"383 0 LINE",
"1468 1462 LINE"
);
},
{
closed = 1;
nodes = (
"1357 772 OFFCURVE",
"1393 717 OFFCURVE",
"1393 606 CURVE SMOOTH",
"1393 537 OFFCURVE",
"1381 458 OFFCURVE",
"1358 369 CURVE SMOOTH",
"1335 280 OFFCURVE",
"1307 214 OFFCURVE",
"1272 171 CURVE SMOOTH",
"1237 128 OFFCURVE",
"1198 106 OFFCURVE",
"1155 106 CURVE SMOOTH",
"1084 106 OFFCURVE",
"1049 164 OFFCURVE",
"1049 279 CURVE SMOOTH",
"1049 356 OFFCURVE",
"1059 436 OFFCURVE",
"1080 519 CURVE SMOOTH",
"1101 602 OFFCURVE",
"1129 664 OFFCURVE",
"1164 707 CURVE SMOOTH",
"1199 750 OFFCURVE",
"1239 772 OFFCURVE",
"1284 772 CURVE SMOOTH"
);
},
{
closed = 1;
nodes = (
"1532 798 OFFCURVE",
"1451 897 OFFCURVE",
"1296 897 CURVE SMOOTH",
"1144 897 OFFCURVE",
"1027 796 OFFCURVE",
"959 592 CURVE SMOOTH",
"926 491 OFFCURVE",
"909 385 OFFCURVE",
"909 274 CURVE SMOOTH",
"909 81 OFFCURVE",
"994 -20 OFFCURVE",
"1141 -20 CURVE SMOOTH",
"1256 -20 OFFCURVE",
"1351 50 OFFCURVE",
"1418 167 CURVE SMOOTH",
"1452 226 OFFCURVE",
"1479 299 OFFCURVE",
"1500 385 CURVE SMOOTH",
"1521 471 OFFCURVE",
"1532 550 OFFCURVE",
"1532 621 CURVE SMOOTH"
);
},
{
closed = 1;
nodes = (
"615 1358 OFFCURVE",
"651 1303 OFFCURVE",
"651 1192 CURVE SMOOTH",
"651 1145 OFFCURVE",
"645 1087 OFFCURVE",
"632 1020 CURVE SMOOTH",
"619 953 OFFCURVE",
"602 895 OFFCURVE",
"581 845 CURVE SMOOTH",
"540 746 OFFCURVE",
"483 692 OFFCURVE",
"414 692 CURVE SMOOTH",
"343 692 OFFCURVE",
"307 749 OFFCURVE",
"307 864 CURVE SMOOTH",
"307 943 OFFCURVE",
"318 1024 OFFCURVE",
"339 1107 CURVE SMOOTH",
"360 1190 OFFCURVE",
"389 1253 OFFCURVE",
"424 1295 CURVE SMOOTH",
"459 1337 OFFCURVE",
"499 1358 OFFCURVE",
"543 1358 CURVE SMOOTH"
);
},
{
closed = 1;
nodes = (
"791 1383 OFFCURVE",
"710 1483 OFFCURVE",
"555 1483 CURVE SMOOTH",
"403 1483 OFFCURVE",
"286 1382 OFFCURVE",
"218 1178 CURVE SMOOTH",
"185 1077 OFFCURVE",
"168 971 OFFCURVE",
"168 860 CURVE SMOOTH",
"168 667 OFFCURVE",
"254 565 OFFCURVE",
"399 565 CURVE SMOOTH",
"515 565 OFFCURVE",
"609 634 OFFCURVE",
"676 751 CURVE SMOOTH",
"710 810 OFFCURVE",
"738 882 OFFCURVE",
"759 968 CURVE SMOOTH",
"780 1055 OFFCURVE",
"791 1134 OFFCURVE",
"791 1206 CURVE SMOOTH"
);
}
);
width = 1624;
}
);
unicode = 0025;
},
{
glyphname = perthousand;
lastChange = "2013-03-10 15:35:20 +0200";
layers = (
{
layerId = UUID0;
name = "Regular Italic";
paths = (
{
closed = 1;
nodes = (
"1317 1462 LINE",
"231 0 LINE",
"383 0 LINE",
"1468 1462 LINE"
);
},
{
closed = 1;
nodes = (
"2020 772 OFFCURVE",
"2056 717 OFFCURVE",
"2056 606 CURVE SMOOTH",
"2056 559 OFFCURVE",
"2050 501 OFFCURVE",
"2037 434 CURVE SMOOTH",
"2024 367 OFFCURVE",
"2007 309 OFFCURVE",
"1986 259 CURVE SMOOTH",
"1945 160 OFFCURVE",
"1888 106 OFFCURVE",
"1819 106 CURVE SMOOTH",
"1748 106 OFFCURVE",
"1712 164 OFFCURVE",
"1712 279 CURVE SMOOTH",
"1712 360 OFFCURVE",
"1723 441 OFFCURVE",
"1744 523 CURVE SMOOTH",
"1765 605 OFFCURVE",
"1794 667 OFFCURVE",
"1829 709 CURVE SMOOTH",
"1864 751 OFFCURVE",
"1904 772 OFFCURVE",
"1948 772 CURVE SMOOTH"
);
},
{
closed = 1;
nodes = (
"2195 798 OFFCURVE",
"2115 897 OFFCURVE",
"1960 897 CURVE SMOOTH",
"1808 897 OFFCURVE",
"1691 796 OFFCURVE",
"1623 592 CURVE SMOOTH",
"1590 491 OFFCURVE",
"1573 385 OFFCURVE",
"1573 274 CURVE SMOOTH",
"1573 81 OFFCURVE",
"1659 -20 OFFCURVE",
"1804 -20 CURVE SMOOTH",
"1919 -20 OFFCURVE",
"2014 50 OFFCURVE",
"2081 167 CURVE SMOOTH",
"2115 226 OFFCURVE",
"2142 299 OFFCURVE",
"2163 385 CURVE SMOOTH",
"2184 471 OFFCURVE",
"2195 550 OFFCURVE",
"2195 621 CURVE SMOOTH"
);
},
{
closed = 1;
nodes = (
"615 1358 OFFCURVE",
"651 1303 OFFCURVE",
"651 1192 CURVE SMOOTH",
"651 1145 OFFCURVE",
"645 1087 OFFCURVE",
"632 1020 CURVE SMOOTH",
"619 953 OFFCURVE",
"602 895 OFFCURVE",
"581 845 CURVE SMOOTH",
"540 746 OFFCURVE",
"483 692 OFFCURVE",
"414 692 CURVE SMOOTH",
"343 692 OFFCURVE",
"307 749 OFFCURVE",
"307 864 CURVE SMOOTH",
"307 943 OFFCURVE",
"318 1024 OFFCURVE",
"339 1107 CURVE SMOOTH",
"360 1190 OFFCURVE",
"389 1253 OFFCURVE",
"424 1295 CURVE SMOOTH",
"459 1337 OFFCURVE",
"499 1358 OFFCURVE",
"543 1358 CURVE SMOOTH"
);
},
{
closed = 1;
nodes = (
"791 1383 OFFCURVE",
"710 1483 OFFCURVE",
"555 1483 CURVE SMOOTH",
"403 1483 OFFCURVE",
"286 1382 OFFCURVE",
"218 1178 CURVE SMOOTH",
"185 1077 OFFCURVE",
"168 971 OFFCURVE",
"168 860 CURVE SMOOTH",
"168 667 OFFCURVE",
"254 565 OFFCURVE",
"399 565 CURVE SMOOTH",
"515 565 OFFCURVE",
"609 634 OFFCURVE",
"676 751 CURVE SMOOTH",
"710 810 OFFCURVE",
"738 882 OFFCURVE",
"759 968 CURVE SMOOTH",
"780 1055 OFFCURVE",
"791 1134 OFFCURVE",
"791 1206 CURVE SMOOTH"
);
},
{
closed = 1;
nodes = (
"1357 772 OFFCURVE",
"1393 717 OFFCURVE",
"1393 606 CURVE SMOOTH",
"1393 537 OFFCURVE",
"1381 458 OFFCURVE",
"1358 369 CURVE SMOOTH",
"1335 280 OFFCURVE",
"1307 214 OFFCURVE",
"1272 171 CURVE SMOOTH",
"1237 128 OFFCURVE",
"1198 106 OFFCURVE",
"1155 106 CURVE SMOOTH",
"1084 106 OFFCURVE",
"1049 164 OFFCURVE",
"1049 279 CURVE SMOOTH",
"1049 356 OFFCURVE",
"1059 436 OFFCURVE",
"1080 519 CURVE SMOOTH",
"1101 602 OFFCURVE",
"1129 664 OFFCURVE",
"1164 707 CURVE SMOOTH",
"1199 750 OFFCURVE",
"1239 772 OFFCURVE",
"1284 772 CURVE SMOOTH"
);
},
{
closed = 1;
nodes = (
"1532 798 OFFCURVE",
"1451 897 OFFCURVE",
"1296 897 CURVE SMOOTH",
"1144 897 OFFCURVE",
"1027 796 OFFCURVE",
"959 592 CURVE SMOOTH",
"926 491 OFFCURVE",
"909 385 OFFCURVE",
"909 274 CURVE SMOOTH",
"909 81 OFFCURVE",
"994 -20 OFFCURVE",
"1141 -20 CURVE SMOOTH",
"1256 -20 OFFCURVE",
"1351 50 OFFCURVE",
"1418 167 CURVE SMOOTH",
"1452 226 OFFCURVE",
"1479 299 OFFCURVE",
"1500 385 CURVE SMOOTH",
"1521 471 OFFCURVE",
"1532 550 OFFCURVE",
"1532 621 CURVE SMOOTH"
);
}
);
width = 2288;
}
);
unicode = 2030;
},
{
glyphname = plus;
lastChange = "2013-03-10 15:35:19 +0200";
layers = (
{
layerId = UUID0;
name = "Regular Italic";
paths = (
{
closed = 1;
nodes = (
"516 264 LINE",
"657 264 LINE",
"657 651 LINE",
"1047 651 LINE",
"1047 793 LINE",
"657 793 LINE",
"657 1184 LINE",
"516 1184 LINE",
"516 793 LINE",
"127 793 LINE",
"127 651 LINE",
"516 651 LINE"
);
}
);
width = 1128;
}
);
unicode = 002B;
},
{
glyphname = plusminus;
lastChange = "2013-03-10 15:35:19 +0200";
layers = (
{
layerId = UUID0;
name = "Regular Italic";
paths = (
{
closed = 1;
nodes = (
"516 256 LINE",
"657 256 LINE",
"657 643 LINE",
"1047 643 LINE",
"1047 784 LINE",
"657 784 LINE",
"657 1176 LINE",
"516 1176 LINE",
"516 784 LINE",
"127 784 LINE",
"127 643 LINE",
"516 643 LINE"
);
},
{
closed = 1;
nodes = (
"1047 0 LINE",
"1047 141 LINE",
"127 141 LINE",
"127 0 LINE"
);
}
);
width = 1128;
}
);
unicode = 00B1;
},
{
glyphname = lozenge;
lastChange = "2013-03-10 15:35:20 +0200";
layers = (
{
layerId = UUID0;
name = "Regular Italic";
paths = (
{
closed = 1;
nodes = (
"674 1475 LINE",
"602 1475 LINE",
"152 735 LINE",
"602 0 LINE",
"674 0 LINE",
"1126 737 LINE"
);
},
{
closed = 1;
nodes = (
"639 211 LINE",
"326 737 LINE",
"639 1262 LINE",
"952 737 LINE"
);
}
);
width = 1194;
}
);
unicode = 25CA;
},
{
glyphname = ampersand;
lastChange = "2013-03-10 15:35:19 +0200";
layers = (
{
layerId = UUID0;
name = "Regular Italic";
paths = (
{
closed = 1;
nodes = (
"845 1348 OFFCURVE",
"903 1285 OFFCURVE",
"903 1182 CURVE SMOOTH",
"903 1105 OFFCURVE",
"858 1045 OFFCURVE",
"789 993 CURVE SMOOTH",
"754 967 OFFCURVE",
"691 930 OFFCURVE",
"598 883 CURVE",
"543 960 OFFCURVE",
"516 1038 OFFCURVE",
"516 1118 CURVE SMOOTH",
"516 1265 OFFCURVE",
"597 1348 OFFCURVE",
"737 1348 CURVE SMOOTH"
);
},
{
closed = 1;
nodes = (
"398 119 OFFCURVE",
"340 140 OFFCURVE",
"295 183 CURVE SMOOTH",
"251 226 OFFCURVE",
"229 283 OFFCURVE",
"229 354 CURVE SMOOTH",
"229 451 OFFCURVE",
"269 528 OFFCURVE",
"344 593 CURVE SMOOTH",
"381 626 OFFCURVE",
"443 664 OFFCURVE",
"528 709 CURVE",
"834 276 LINE",
"758 215 OFFCURVE",
"693 174 OFFCURVE",
"639 152 CURVE SMOOTH",
"585 130 OFFCURVE",
"529 119 OFFCURVE",
"471 119 CURVE SMOOTH"
);
},
{
closed = 1;
nodes = (
"66 229 OFFCURVE",
"100 140 OFFCURVE",
"167 76 CURVE SMOOTH",
"234 12 OFFCURVE",
"324 -20 OFFCURVE",
"436 -20 CURVE SMOOTH",
"527 -20 OFFCURVE",
"610 -6 OFFCURVE",
"683 23 CURVE SMOOTH",
"756 52 OFFCURVE",
"833 99 OFFCURVE",
"913 166 CURVE",
"1030 0 LINE",
"1231 0 LINE",
"1028 270 LINE",
"1149 387 OFFCURVE",
"1244 525 OFFCURVE",
"1311 682 CURVE",
"1143 682 LINE",
"1095 559 OFFCURVE",
"1029 460 OFFCURVE",
"944 387 CURVE",
"666 776 LINE",
"881 887 OFFCURVE",
"1067 987 OFFCURVE",
"1067 1194 CURVE SMOOTH",
"1067 1283 OFFCURVE",
"1038 1353 OFFCURVE",
"979 1406 CURVE SMOOTH",
"921 1459 OFFCURVE",
"842 1485 OFFCURVE",
"743 1485 CURVE SMOOTH",
"626 1485 OFFCURVE",
"533 1451 OFFCURVE",
"462 1384 CURVE SMOOTH",
"391 1317 OFFCURVE",
"356 1229 OFFCURVE",
"356 1120 CURVE SMOOTH",
"356 1024 OFFCURVE",
"390 921 OFFCURVE",
"459 811 CURVE",
"317 743 OFFCURVE",
"216 672 OFFCURVE",
"156 599 CURVE SMOOTH",
"96 526 OFFCURVE",
"66 441 OFFCURVE",
"66 342 CURVE SMOOTH"
);
}
);
width = 1372;
}
);
unicode = 0026;
},
{
glyphname = asciicircum;
lastChange = "2013-03-10 15:35:19 +0200";
layers = (
{
layerId = UUID0;
name = "Regular Italic";
paths = (
{
closed = 1;
nodes = (
"213 553 LINE",
"680 1300 LINE",
"881 553 LINE",
"1026 553 LINE",
"760 1473 LINE",
"651 1473 LINE",
"53 553 LINE"
);
}
);
width = 1059;
}
);
unicode = 005E;
},
{
glyphname = at;
lastChange = "2013-03-10 15:35:19 +0200";
layers = (
{
layerId = UUID0;
name = "Regular Italic";
paths = (
{
closed = 1;
nodes = (
"1682 1213 OFFCURVE",
"1449 1464 OFFCURVE",
"1067 1460 CURVE",
"888 1460 OFFCURVE",
"726 1419 OFFCURVE",
"581 1337 CURVE SMOOTH",
"436 1255 OFFCURVE",
"322 1139 OFFCURVE",
"237 989 CURVE SMOOTH",
"153 840 OFFCURVE",
"111 678 OFFCURVE",
"111 504 CURVE SMOOTH",
"111 290 OFFCURVE",
"171 122 OFFCURVE",
"291 -1 CURVE SMOOTH",
"412 -124 OFFCURVE",
"577 -186 OFFCURVE",
"786 -186 CURVE SMOOTH",
"935 -186 OFFCURVE",
"1083 -156 OFFCURVE",
"1229 -96 CURVE",
"1229 31 LINE",
"1080 -26 OFFCURVE",
"940 -55 OFFCURVE",
"809 -55 CURVE SMOOTH",
"632 -55 OFFCURVE",
"495 -6 OFFCURVE",
"399 93 CURVE SMOOTH",
"304 192 OFFCURVE",
"256 332 OFFCURVE",
"256 512 CURVE SMOOTH",
"256 664 OFFCURVE",
"289 803 OFFCURVE",
"354 928 CURVE SMOOTH",
"420 1054 OFFCURVE",
"512 1153 OFFCURVE",
"631 1224 CURVE SMOOTH",
"750 1295 OFFCURVE",
"886 1331 OFFCURVE",
"1038 1331 CURVE SMOOTH",
"1361 1331 OFFCURVE",
"1536 1155 OFFCURVE",
"1536 836 CURVE SMOOTH",
"1536 751 OFFCURVE",
"1524 670 OFFCURVE",
"1499 592 CURVE SMOOTH",
"1474 515 OFFCURVE",
"1441 454 OFFCURVE",
"1398 409 CURVE SMOOTH",
"1356 364 OFFCURVE",
"1309 342 OFFCURVE",
"1257 342 CURVE SMOOTH",
"1189 342 OFFCURVE",
"1155 381 OFFCURVE",
"1155 459 CURVE",
"1153 490 OFFCURVE",
"1163 547 OFFCURVE",
"1186 631 CURVE SMOOTH",
"1209 715 OFFCURVE",
"1241 838 OFFCURVE",
"1284 999 CURVE",
"1225 1023 OFFCURVE",
"1175 1039 OFFCURVE",
"1133 1047 CURVE SMOOTH",
"1092 1055 OFFCURVE",
"1049 1059 OFFCURVE",
"1006 1059 CURVE SMOOTH",
"913 1059 OFFCURVE",
"826 1035 OFFCURVE",
"745 987 CURVE SMOOTH",
"665 939 OFFCURVE",
"602 873 OFFCURVE",
"557 788 CURVE SMOOTH",
"512 703 OFFCURVE",
"489 609 OFFCURVE",
"489 504 CURVE SMOOTH",
"489 325 OFFCURVE",
"582 219 OFFCURVE",
"735 219 CURVE SMOOTH",
"855 219 OFFCURVE",
"952 280 OFFCURVE",
"1026 403 CURVE",
"1034 403 LINE",
"1045 280 OFFCURVE",
"1116 219 OFFCURVE",
"1247 219 CURVE SMOOTH",
"1328 219 OFFCURVE",
"1402 246 OFFCURVE",
"1469 301 CURVE SMOOTH",
"1536 356 OFFCURVE",
"1587 431 OFFCURVE",
"1624 528 CURVE SMOOTH",
"1661 625 OFFCURVE",
"1679 733 OFFCURVE",
"1679 852 CURVE"
);
},
{
closed = 1;
nodes = (
"1028 938 OFFCURVE",
"1070 930 OFFCURVE",
"1112 915 CURVE",
"1042 657 LINE SMOOTH",
"985 447 OFFCURVE",
"895 342 OFFCURVE",
"770 342 CURVE SMOOTH",
"683 342 OFFCURVE",
"639 394 OFFCURVE",
"639 518 CURVE SMOOTH",
"639 594 OFFCURVE",
"654 665 OFFCURVE",
"685 730 CURVE SMOOTH",
"716 795 OFFCURVE",
"758 846 OFFCURVE",
"811 883 CURVE SMOOTH",
"864 920 OFFCURVE",
"922 938 OFFCURVE",
"985 938 CURVE SMOOTH"
);
}
);
width = 1735;
}
);
unicode = 0040;
},
{
glyphname = bar;
lastChange = "2013-03-10 15:35:19 +0200";
layers = (
{
layerId = UUID0;
name = "Regular Italic";
paths = (
{
closed = 1;
nodes = (
"541 -496 LINE",
"680 -496 LINE",
"680 1556 LINE",
"541 1556 LINE"
);
}
);
width = 1128;
}
);
unicode = 007C;
},
{
glyphname = copyright;
lastChange = "2013-03-10 15:35:19 +0200";
layers = (
{
layerId = UUID0;
name = "Regular Italic";
paths = (
{
closed = 1;
nodes = (
"984 1059 OFFCURVE",
"1047 1041 OFFCURVE",
"1118 1006 CURVE",
"1178 1126 LINE",
"1099 1166 OFFCURVE",
"1017 1186 OFFCURVE",
"930 1186 CURVE SMOOTH",
"803 1186 OFFCURVE",
"703 1145 OFFCURVE",
"630 1063 CURVE SMOOTH",
"557 982 OFFCURVE",
"520 872 OFFCURVE",
"520 733 CURVE SMOOTH",
"520 440 OFFCURVE",
"666 274 OFFCURVE",
"922 274 CURVE SMOOTH",
"960 274 OFFCURVE",
"995 277 OFFCURVE",
"1026 284 CURVE SMOOTH",
"1057 291 OFFCURVE",
"1095 303 OFFCURVE",
"1139 322 CURVE",
"1139 444 LINE",
"1053 415 OFFCURVE",
"983 401 OFFCURVE",
"928 401 CURVE SMOOTH",
"757 401 OFFCURVE",
"670 506 OFFCURVE",
"670 731 CURVE SMOOTH",
"670 936 OFFCURVE",
"761 1059 OFFCURVE",
"928 1059 CURVE SMOOTH"
);
},
{
closed = 1;
nodes = (
"139 599 OFFCURVE",
"171 475 OFFCURVE",
"236 360 CURVE SMOOTH",
"301 245 OFFCURVE",
"392 152 OFFCURVE",
"509 83 CURVE SMOOTH",
"626 14 OFFCURVE",
"753 -20 OFFCURVE",
"891 -20 CURVE SMOOTH",
"1028 -20 OFFCURVE",
"1153 14 OFFCURVE",
"1268 81 CURVE SMOOTH",
"1383 148 OFFCURVE",
"1474 239 OFFCURVE",
"1541 354 CURVE SMOOTH",
"1608 469 OFFCURVE",
"1642 595 OFFCURVE",
"1642 731 CURVE SMOOTH",
"1642 870 OFFCURVE",
"1607 997 OFFCURVE",
"1538 1114 CURVE SMOOTH",
"1469 1231 OFFCURVE",
"1376 1321 OFFCURVE",
"1261 1386 CURVE SMOOTH",
"1146 1451 OFFCURVE",
"1022 1483 OFFCURVE",
"891 1483 CURVE SMOOTH",
"756 1483 OFFCURVE",
"631 1449 OFFCURVE",
"514 1382 CURVE SMOOTH",
"397 1315 OFFCURVE",
"306 1223 OFFCURVE",
"239 1106 CURVE SMOOTH",
"172 989 OFFCURVE",
"139 864 OFFCURVE",
"139 731 CURVE SMOOTH"
);
},
{
closed = 1;
nodes = (
"244 848 OFFCURVE",
"273 956 OFFCURVE",
"331 1055 CURVE SMOOTH",
"390 1154 OFFCURVE",
"469 1233 OFFCURVE",
"568 1291 CURVE SMOOTH",
"667 1349 OFFCURVE",
"775 1378 OFFCURVE",
"891 1378 CURVE SMOOTH",
"1008 1378 OFFCURVE",
"1116 1349 OFFCURVE",
"1215 1290 CURVE SMOOTH",
"1314 1232 OFFCURVE",
"1393 1153 OFFCURVE",
"1451 1054 CURVE SMOOTH",
"1509 955 OFFCURVE",
"1538 847 OFFCURVE",
"1538 731 CURVE SMOOTH",
"1538 614 OFFCURVE",
"1509 505 OFFCURVE",
"1450 406 CURVE SMOOTH",
"1392 307 OFFCURVE",
"1313 229 OFFCURVE",
"1214 171 CURVE SMOOTH",
"1115 113 OFFCURVE",
"1007 84 OFFCURVE",
"891 84 CURVE SMOOTH",
"776 84 OFFCURVE",
"669 113 OFFCURVE",
"568 170 CURVE",
"468 228 OFFCURVE",
"389 307 OFFCURVE",
"331 407 CURVE SMOOTH",
"273 508 OFFCURVE",
"244 616 OFFCURVE",
"244 731 CURVE SMOOTH"
);
}
);
width = 1704;
}
);
unicode = 00A9;
},
{
glyphname = dagger;
lastChange = "2013-03-10 15:35:19 +0200";
layers = (
{
layerId = UUID0;
name = "Regular Italic";
paths = (
{
closed = 1;
nodes = (
"971 1169 LINE",
"645 1137 LINE",
"788 1556 LINE",
"582 1556 LINE",
"545 1137 LINE",
"252 1169 LINE",
"217 995 LINE",
"522 1028 LINE",
"250 0 LINE",
"457 0 LINE",
"623 1026 LINE",
"936 995 LINE"
);
}
);
width = 954;
}
);
unicode = 2020;
},
{
glyphname = daggerdbl;
lastChange = "2013-03-10 15:35:19 +0200";
layers = (
{
layerId = UUID0;
name = "Regular Italic";
paths = (
{
closed = 1;
nodes = (
"635 786 LINE",
"649 1069 LINE",
"963 1036 LINE",
"1001 1210 LINE",
"674 1178 LINE",
"807 1556 LINE",
"600 1556 LINE",
"573 1178 LINE",
"262 1210 LINE",
"223 1036 LINE",
"547 1069 LINE",
"444 786 LINE",
"426 487 LINE",
"115 518 LINE",
"78 346 LINE",
"401 377 LINE",
"268 0 LINE",
"475 0 LINE",
"502 377 LINE",
"817 346 LINE",
"854 518 LINE",
"528 487 LINE"
);
}
);
width = 975;
}
);
unicode = 2021;
},
{
glyphname = degree;
lastChange = "2013-03-10 15:35:19 +0200";
layers = (
{
layerId = UUID0;
name = "Regular Italic";
paths = (
{
closed = 1;
nodes = (
"215 1086 OFFCURVE",
"245 1013 OFFCURVE",
"305 952 CURVE SMOOTH",
"365 892 OFFCURVE",
"439 862 OFFCURVE",
"526 862 CURVE SMOOTH",
"613 862 OFFCURVE",
"687 892 OFFCURVE",
"747 952 CURVE SMOOTH",
"808 1013 OFFCURVE",
"838 1086 OFFCURVE",
"838 1171 CURVE",
"843 1339 OFFCURVE",
"691 1488 OFFCURVE",
"526 1483 CURVE",
"439 1483 OFFCURVE",
"366 1452 OFFCURVE",
"305 1391 CURVE SMOOTH",
"245 1330 OFFCURVE",
"215 1256 OFFCURVE",
"215 1171 CURVE SMOOTH"
);
},
{
closed = 1;
nodes = (
"328 1226 OFFCURVE",
"348 1272 OFFCURVE",
"387 1311 CURVE SMOOTH",
"426 1350 OFFCURVE",
"473 1370 OFFCURVE",
"526 1370 CURVE SMOOTH",
"581 1370 OFFCURVE",
"627 1350 OFFCURVE",
"665 1311 CURVE SMOOTH",
"704 1272 OFFCURVE",
"723 1226 OFFCURVE",
"723 1171 CURVE SMOOTH",
"723 1118 OFFCURVE",
"704 1072 OFFCURVE",
"666 1033 CURVE SMOOTH",
"628 994 OFFCURVE",
"581 975 OFFCURVE",
"526 975 CURVE SMOOTH",
"471 975 OFFCURVE",
"425 994 OFFCURVE",
"386 1033 CURVE SMOOTH",
"347 1072 OFFCURVE",
"328 1118 OFFCURVE",
"328 1171 CURVE SMOOTH"
);
}
);
width = 877;
}
);
unicode = 00B0;
},
{
glyphname = paragraph;
lastChange = "2013-03-10 15:35:19 +0200";
layers = (
{
layerId = UUID0;
name = "Regular Italic";
paths = (
{
closed = 1;
nodes = (
"1206 1556 LINE",
"649 1556 LINE SMOOTH",
"340 1556 OFFCURVE",
"199 1389 OFFCURVE",
"199 1042 CURVE SMOOTH",
"199 707 OFFCURVE",
"330 541 OFFCURVE",
"618 541 CURVE SMOOTH",
"674 541 OFFCURVE",
"723 547 OFFCURVE",
"764 559 CURVE",
"764 -260 LINE",
"879 -260 LINE",
"879 1401 LINE",
"1092 1401 LINE",
"1092 -260 LINE",
"1206 -260 LINE"
);
}
);
width = 1341;
}
);
unicode = 00B6;
},
{
glyphname = registered;
lastChange = "2013-03-10 15:35:19 +0200";
layers = (
{
layerId = UUID0;
name = "Regular Italic";
paths = (
{
closed = 1;
nodes = (
"139 599 OFFCURVE",
"171 475 OFFCURVE",
"236 360 CURVE SMOOTH",
"301 245 OFFCURVE",
"392 152 OFFCURVE",
"509 83 CURVE SMOOTH",
"626 14 OFFCURVE",
"753 -20 OFFCURVE",
"891 -20 CURVE SMOOTH",
"1028 -20 OFFCURVE",
"1153 14 OFFCURVE",
"1268 81 CURVE SMOOTH",
"1383 148 OFFCURVE",
"1474 239 OFFCURVE",
"1541 354 CURVE SMOOTH",
"1608 469 OFFCURVE",
"1642 595 OFFCURVE",
"1642 731 CURVE SMOOTH",
"1642 870 OFFCURVE",
"1607 997 OFFCURVE",
"1538 1114 CURVE SMOOTH",
"1469 1231 OFFCURVE",
"1376 1321 OFFCURVE",
"1261 1386 CURVE SMOOTH",
"1146 1451 OFFCURVE",
"1022 1483 OFFCURVE",
"891 1483 CURVE SMOOTH",
"756 1483 OFFCURVE",
"631 1449 OFFCURVE",
"514 1382 CURVE SMOOTH",
"397 1315 OFFCURVE",
"306 1223 OFFCURVE",
"239 1106 CURVE SMOOTH",
"172 989 OFFCURVE",
"139 864 OFFCURVE",
"139 731 CURVE SMOOTH"
);
},
{
closed = 1;
nodes = (
"244 848 OFFCURVE",
"273 956 OFFCURVE",
"331 1055 CURVE SMOOTH",
"390 1154 OFFCURVE",
"469 1233 OFFCURVE",
"568 1291 CURVE SMOOTH",
"667 1349 OFFCURVE",
"775 1378 OFFCURVE",
"891 1378 CURVE SMOOTH",
"1008 1378 OFFCURVE",
"1116 1349 OFFCURVE",
"1215 1290 CURVE SMOOTH",
"1314 1232 OFFCURVE",
"1393 1153 OFFCURVE",
"1451 1054 CURVE SMOOTH",
"1509 955 OFFCURVE",
"1538 847 OFFCURVE",
"1538 731 CURVE SMOOTH",
"1538 614 OFFCURVE",
"1509 505 OFFCURVE",
"1450 406 CURVE SMOOTH",
"1392 307 OFFCURVE",
"1313 229 OFFCURVE",
"1214 171 CURVE SMOOTH",
"1115 113 OFFCURVE",
"1007 84 OFFCURVE",
"891 84 CURVE SMOOTH",
"776 84 OFFCURVE",
"669 113 OFFCURVE",
"568 170 CURVE",
"468 228 OFFCURVE",
"389 307 OFFCURVE",
"331 407 CURVE SMOOTH",
"273 508 OFFCURVE",
"244 616 OFFCURVE",
"244 731 CURVE SMOOTH"
);
},
{
closed = 1;
nodes = (
"1194 1088 OFFCURVE",
"1091 1171 OFFCURVE",
"874 1171 CURVE SMOOTH",
"645 1171 LINE",
"645 291 LINE",
"772 291 LINE",
"772 643 LINE",
"885 643 LINE",
"1092 291 LINE",
"1241 291 LINE",
"1014 676 LINE",
"1127 723 OFFCURVE",
"1194 811 OFFCURVE",
"1194 915 CURVE SMOOTH"
);
},
{
closed = 1;
nodes = (
"772 1049 LINE",
"862 1049 LINE SMOOTH",
"998 1049 OFFCURVE",
"1059 1012 OFFCURVE",
"1059 911 CURVE SMOOTH",
"1059 812 OFFCURVE",
"994 762 OFFCURVE",
"864 762 CURVE SMOOTH",
"772 762 LINE"
);
}
);
width = 1704;
}
);
unicode = 00AE;
},
{
glyphname = section;
lastChange = "2013-03-10 15:35:19 +0200";
layers = (
{
layerId = UUID0;
name = "Regular Italic";
paths = (
{
closed = 1;
nodes = (
"174 705 OFFCURVE",
"193 650 OFFCURVE",
"230 603 CURVE SMOOTH",
"267 557 OFFCURVE",
"332 514 OFFCURVE",
"424 473 CURVE SMOOTH",
"560 412 OFFCURVE",
"627 361 OFFCURVE",
"627 297 CURVE SMOOTH",
"627 184 OFFCURVE",
"529 123 OFFCURVE",
"352 123 CURVE SMOOTH",
"301 123 OFFCURVE",
"249 130 OFFCURVE",
"195 145 CURVE SMOOTH",
"142 160 OFFCURVE",
"96 178 OFFCURVE",
"59 201 CURVE",
"59 53 LINE",
"138 12 OFFCURVE",
"237 -8 OFFCURVE",
"354 -8 CURVE SMOOTH",
"490 -8 OFFCURVE",
"596 20 OFFCURVE",
"672 77 CURVE SMOOTH",
"748 134 OFFCURVE",
"786 214 OFFCURVE",
"786 315 CURVE SMOOTH",
"786 394 OFFCURVE",
"748 457 OFFCURVE",
"672 504 CURVE",
"820 579 OFFCURVE",
"905 694 OFFCURVE",
"905 823 CURVE SMOOTH",
"905 908 OFFCURVE",
"869 974 OFFCURVE",
"804 1026 CURVE SMOOTH",
"771 1053 OFFCURVE",
"722 1081 OFFCURVE",
"655 1110 CURVE SMOOTH",
"572 1147 OFFCURVE",
"518 1177 OFFCURVE",
"493 1200 CURVE SMOOTH",
"468 1223 OFFCURVE",
"455 1251 OFFCURVE",
"455 1284 CURVE SMOOTH",
"455 1376 OFFCURVE",
"542 1434 OFFCURVE",
"678 1434 CURVE SMOOTH",
"757 1434 OFFCURVE",
"845 1414 OFFCURVE",
"944 1374 CURVE",
"997 1497 LINE",
"909 1542 OFFCURVE",
"802 1565 OFFCURVE",
"676 1565 CURVE SMOOTH",
"559 1565 OFFCURVE",
"465 1539 OFFCURVE",
"396 1486 CURVE SMOOTH",
"327 1433 OFFCURVE",
"293 1365 OFFCURVE",
"293 1280 CURVE SMOOTH",
"293 1191 OFFCURVE",
"333 1124 OFFCURVE",
"412 1077 CURVE",
"253 1006 OFFCURVE",
"174 904 OFFCURVE",
"174 770 CURVE SMOOTH"
);
},
{
closed = 1;
nodes = (
"605 971 OFFCURVE",
"667 937 OFFCURVE",
"700 906 CURVE SMOOTH",
"733 876 OFFCURVE",
"750 841 OFFCURVE",
"750 801 CURVE SMOOTH",
"750 710 OFFCURVE",
"682 622 OFFCURVE",
"575 563 CURVE",
"476 606 OFFCURVE",
"410 643 OFFCURVE",
"376 674 CURVE SMOOTH",
"343 705 OFFCURVE",
"326 744 OFFCURVE",
"326 791 CURVE SMOOTH",
"326 838 OFFCURVE",
"344 881 OFFCURVE",
"379 922 CURVE SMOOTH",
"414 963 OFFCURVE",
"459 993 OFFCURVE",
"514 1010 CURVE"
);
}
);
width = 995;
}
);
unicode = 00A7;
},
{
glyphname = trademark;
lastChange = "2013-03-10 15:35:20 +0200";
layers = (
{
layerId = UUID0;
name = "Regular Italic";
paths = (
{
closed = 1;
nodes = (
"438 1358 LINE",
"637 1358 LINE",
"637 1462 LINE",
"121 1462 LINE",
"121 1358 LINE",
"317 1358 LINE",
"317 741 LINE",
"438 741 LINE"
);
},
{
closed = 1;
nodes = (
"1110 741 LINE",
"1307 1292 LINE",
"1313 1292 LINE",
"1310 1260 OFFCURVE",
"1309 1220 OFFCURVE",
"1309 1171 CURVE SMOOTH",
"1309 741 LINE",
"1430 741 LINE",
"1430 1462 LINE",
"1260 1462 LINE",
"1067 905 LINE",
"885 1462 LINE",
"705 1462 LINE",
"705 741 LINE",
"823 741 LINE",
"823 1171 LINE SMOOTH",
"823 1217 OFFCURVE",
"822 1257 OFFCURVE",
"819 1292 CURVE",
"825 1292 LINE",
"1014 741 LINE"
);
}
);
width = 1534;
}
);
unicode = 2122;
},
{
glyphname = acute;
lastChange = "2013-03-10 15:35:19 +0200";
layers = (
{
layerId = UUID0;
name = "Regular Italic";
paths = (
{
closed = 1;
nodes = (
"532 1241 LINE",
"637 1241 LINE",
"687 1277 OFFCURVE",
"746 1329 OFFCURVE",
"814 1397 CURVE SMOOTH",
"882 1465 OFFCURVE",
"929 1515 OFFCURVE",
"954 1548 CURVE",
"954 1569 LINE",
"764 1569 LINE",
"739 1530 OFFCURVE",
"704 1480 OFFCURVE",
"657 1419 CURVE SMOOTH",
"611 1358 OFFCURVE",
"569 1308 OFFCURVE",
"532 1268 CURVE"
);
}
);
width = 1135;
}
);
unicode = 00B4;
},
{
glyphname = breve;
lastChange = "2013-03-10 15:35:20 +0200";
layers = (
{
layerId = UUID0;
name = "Regular Italic";
paths = (
{
closed = 1;
nodes = (
"944 1509 LINE",
"921 1426 OFFCURVE",
"854 1384 OFFCURVE",
"741 1384 CURVE SMOOTH",
"618 1384 OFFCURVE",
"575 1430 OFFCURVE",
"575 1509 CURVE",
"477 1509 LINE",
"475 1487 LINE",
"475 1466 LINE SMOOTH",
"475 1395 OFFCURVE",
"497 1340 OFFCURVE",
"542 1300 CURVE SMOOTH",
"587 1261 OFFCURVE",
"648 1241 OFFCURVE",
"723 1241 CURVE SMOOTH",
"899 1241 OFFCURVE",
"1006 1325 OFFCURVE",
"1051 1509 CURVE"
);
}
);
width = 1135;
}
);
unicode = 02D8;
},
{
glyphname = caron;
lastChange = "2013-03-10 15:35:20 +0200";
layers = (
{
layerId = UUID0;
name = "Regular Italic";
paths = (
{
closed = 1;
nodes = (
"467 1542 LINE",
"510 1476 LINE SMOOTH",
"571 1383 OFFCURVE",
"612 1304 OFFCURVE",
"635 1241 CURVE",
"795 1241 LINE",
"816 1276 OFFCURVE",
"855 1322 OFFCURVE",
"910 1379 CURVE SMOOTH",
"966 1436 OFFCURVE",
"1023 1491 OFFCURVE",
"1081 1542 CURVE",
"1081 1569 LINE",
"975 1569 LINE",
"893 1516 OFFCURVE",
"811 1453 OFFCURVE",
"729 1380 CURVE",
"673 1456 OFFCURVE",
"622 1526 OFFCURVE",
"567 1569 CURVE",
"467 1569 LINE"
);
}
);
width = 1135;
}
);
unicode = 02C7;
},
{
glyphname = cedilla;
lastChange = "2013-03-10 15:35:19 +0200";
layers = (
{
layerId = UUID0;
name = "Regular Italic";
paths = (
{
closed = 1;
nodes = (
"211 -198 OFFCURVE",
"167 -146 OFFCURVE",
"80 -121 CURVE",
"141 0 LINE",
"35 0 LINE",
"-66 -182 LINE",
"14 -193 OFFCURVE",
"72 -218 OFFCURVE",
"72 -279 CURVE SMOOTH",
"72 -352 OFFCURVE",
"14 -389 OFFCURVE",
"-102 -389 CURVE SMOOTH",
"-122 -389 OFFCURVE",
"-145 -387 OFFCURVE",
"-170 -383 CURVE",
"-170 -483 LINE",
"-140 -489 OFFCURVE",
"-111 -492 OFFCURVE",
"-84 -492 CURVE SMOOTH",
"5 -492 OFFCURVE",
"76 -472 OFFCURVE",
"130 -433 CURVE SMOOTH",
"184 -394 OFFCURVE",
"211 -341 OFFCURVE",
"211 -276 CURVE SMOOTH"
);
}
);
width = 420;
}
);
unicode = 00B8;
},
{
glyphname = circumflex;
lastChange = "2013-03-10 15:35:20 +0200";
layers = (
{
layerId = UUID0;
name = "Regular Italic";
paths = (
{
closed = 1;
nodes = (
"1014 1268 LINE",
"972 1334 LINE",
"911 1425 OFFCURVE",
"869 1503 OFFCURVE",
"844 1569 CURVE",
"686 1569 LINE",
"671 1543 OFFCURVE",
"643 1508 OFFCURVE",
"603 1465 CURVE SMOOTH",
"564 1422 OFFCURVE",
"496 1357 OFFCURVE",
"399 1268 CURVE",
"399 1241 LINE",
"508 1241 LINE",
"580 1288 OFFCURVE",
"661 1351 OFFCURVE",
"750 1430 CURVE",
"819 1336 OFFCURVE",
"873 1273 OFFCURVE",
"911 1241 CURVE",
"1014 1241 LINE"
);
}
);
width = 1135;
}
);
unicode = 02C6;
},
{
glyphname = dieresis;
lastChange = "2013-03-10 15:35:19 +0200";
layers = (
{
layerId = UUID0;
name = "Regular Italic";
paths = (
{
closed = 1;
nodes = (
"457 1325 OFFCURVE",
"492 1294 OFFCURVE",
"539 1294 CURVE SMOOTH",
"565 1294 OFFCURVE",
"588 1305 OFFCURVE",
"607 1328 CURVE SMOOTH",
"627 1351 OFFCURVE",
"637 1378 OFFCURVE",
"637 1411 CURVE SMOOTH",
"637 1464 OFFCURVE",
"611 1491 OFFCURVE",
"559 1491 CURVE SMOOTH",
"498 1491 OFFCURVE",
"457 1439 OFFCURVE",
"457 1378 CURVE SMOOTH"
);
},
{
closed = 1;
nodes = (
"821 1325 OFFCURVE",
"856 1294 OFFCURVE",
"903 1294 CURVE SMOOTH",
"929 1294 OFFCURVE",
"952 1305 OFFCURVE",
"971 1328 CURVE SMOOTH",
"991 1351 OFFCURVE",
"1001 1378 OFFCURVE",
"1001 1411 CURVE SMOOTH",
"1001 1464 OFFCURVE",
"975 1491 OFFCURVE",
"924 1491 CURVE SMOOTH",
"861 1491 OFFCURVE",
"821 1439 OFFCURVE",
"821 1378 CURVE SMOOTH"
);
}
);
width = 1135;
}
);
unicode = 00A8;
},
{
glyphname = dotaccent;
lastChange = "2013-03-10 15:35:20 +0200";
layers = (
{
layerId = UUID0;
name = "Regular Italic";
paths = (
{
closed = 1;
nodes = (
"324 1316 OFFCURVE",
"365 1282 OFFCURVE",
"416 1282 CURVE SMOOTH",
"445 1282 OFFCURVE",
"470 1295 OFFCURVE",
"492 1320 CURVE SMOOTH",
"515 1345 OFFCURVE",
"526 1376 OFFCURVE",
"526 1413 CURVE SMOOTH",
"526 1473 OFFCURVE",
"497 1503 OFFCURVE",
"438 1503 CURVE SMOOTH",
"371 1503 OFFCURVE",
"324 1447 OFFCURVE",
"324 1376 CURVE SMOOTH"
);
}
);
width = 498;
}
);
unicode = 02D9;
},
{
glyphname = grave;
lastChange = "2013-03-10 15:35:19 +0200";
layers = (
{
layerId = UUID0;
name = "Regular Italic";
paths = (
{
closed = 1;
nodes = (
"903 1266 LINE",
"834 1377 OFFCURVE",
"785 1478 OFFCURVE",
"756 1569 CURVE",
"575 1569 LINE",
"575 1548 LINE",
"594 1508 OFFCURVE",
"625 1457 OFFCURVE",
"670 1395 CURVE SMOOTH",
"715 1333 OFFCURVE",
"758 1282 OFFCURVE",
"799 1241 CURVE",
"903 1241 LINE"
);
}
);
width = 1135;
}
);
unicode = 0060;
},
{
glyphname = hungarumlaut;
lastChange = "2013-03-10 15:35:20 +0200";
layers = (
{
layerId = UUID0;
name = "Regular Italic";
paths = (
{
closed = 1;
nodes = (
"397 1241 LINE",
"483 1241 LINE",
"529 1274 OFFCURVE",
"585 1323 OFFCURVE",
"650 1387 CURVE SMOOTH",
"715 1451 OFFCURVE",
"765 1505 OFFCURVE",
"799 1548 CURVE",
"799 1569 LINE",
"627 1569 LINE",
"596 1519 OFFCURVE",
"557 1464 OFFCURVE",
"510 1403 CURVE SMOOTH",
"464 1343 OFFCURVE",
"426 1298 OFFCURVE",
"397 1268 CURVE"
);
},
{
closed = 1;
nodes = (
"739 1241 LINE",
"825 1241 LINE",
"871 1274 OFFCURVE",
"927 1323 OFFCURVE",
"992 1387 CURVE SMOOTH",
"1057 1451 OFFCURVE",
"1107 1505 OFFCURVE",
"1141 1548 CURVE",
"1141 1569 LINE",
"969 1569 LINE",
"940 1522 OFFCURVE",
"902 1469 OFFCURVE",
"855 1409 CURVE SMOOTH",
"809 1349 OFFCURVE",
"770 1302 OFFCURVE",
"739 1268 CURVE"
);
}
);
width = 1135;
}
);
unicode = 02DD;
},
{
glyphname = ogonek;
lastChange = "2013-03-10 15:35:20 +0200";
layers = (
{
layerId = UUID0;
name = "Regular Italic";
paths = (
{
closed = 1;
nodes = (
"68 0 LINE",
"7 -39 OFFCURVE",
"-36 -71 OFFCURVE",
"-63 -97 CURVE SMOOTH",
"-90 -124 OFFCURVE",
"-110 -152 OFFCURVE",
"-124 -181 CURVE SMOOTH",
"-138 -211 OFFCURVE",
"-145 -244 OFFCURVE",
"-145 -279 CURVE SMOOTH",
"-145 -383 OFFCURVE",
"-78 -440 OFFCURVE",
"33 -440 CURVE SMOOTH",
"78 -440 OFFCURVE",
"115 -435 OFFCURVE",
"143 -426 CURVE",
"143 -319 LINE",
"116 -325 OFFCURVE",
"89 -328 OFFCURVE",
"63 -328 CURVE SMOOTH",
"17 -328 OFFCURVE",
"-6 -305 OFFCURVE",
"-6 -258 CURVE SMOOTH",
"-6 -202 OFFCURVE",
"23 -151 OFFCURVE",
"68 -102 CURVE SMOOTH",
"91 -77 OFFCURVE",
"129 -43 OFFCURVE",
"184 0 CURVE"
);
}
);
width = 373;
}
);
unicode = 02DB;
},
{
glyphname = ring;
lastChange = "2013-03-10 15:35:20 +0200";
layers = (
{
layerId = UUID0;
name = "Regular Italic";
paths = (
{
closed = 1;
nodes = (
"989 1583 OFFCURVE",
"905 1665 OFFCURVE",
"770 1665 CURVE SMOOTH",
"707 1665 OFFCURVE",
"654 1645 OFFCURVE",
"613 1606 CURVE SMOOTH",
"572 1567 OFFCURVE",
"551 1517 OFFCURVE",
"551 1454 CURVE SMOOTH",
"551 1323 OFFCURVE",
"635 1241 OFFCURVE",
"770 1241 CURVE SMOOTH",
"902 1241 OFFCURVE",
"989 1324 OFFCURVE",
"989 1456 CURVE SMOOTH"
);
},
{
closed = 1;
nodes = (
"885 1382 OFFCURVE",
"838 1339 OFFCURVE",
"770 1339 CURVE SMOOTH",
"695 1339 OFFCURVE",
"655 1382 OFFCURVE",
"655 1454 CURVE SMOOTH",
"655 1525 OFFCURVE",
"705 1569 OFFCURVE",
"770 1569 CURVE SMOOTH",
"838 1569 OFFCURVE",
"885 1525 OFFCURVE",
"885 1454 CURVE SMOOTH"
);
}
);
width = 1182;
}
);
unicode = 02DA;
},
{
glyphname = tilde;
lastChange = "2013-03-10 15:35:20 +0200";
layers = (
{
layerId = UUID0;
name = "Regular Italic";
paths = (
{
closed = 1;
nodes = (
"949 1243 OFFCURVE",
"1027 1329 OFFCURVE",
"1071 1501 CURVE",
"971 1501 LINE",
"936 1417 OFFCURVE",
"909 1384 OFFCURVE",
"850 1384 CURVE SMOOTH",
"778 1384 OFFCURVE",
"684 1499 OFFCURVE",
"567 1499 CURVE SMOOTH",
"452 1499 OFFCURVE",
"375 1413 OFFCURVE",
"336 1241 CURVE",
"436 1241 LINE",
"465 1318 OFFCURVE",
"494 1356 OFFCURVE",
"553 1356 CURVE SMOOTH",
"638 1356 OFFCURVE",
"731 1243 OFFCURVE",
"838 1243 CURVE SMOOTH"
);
}
);
width = 1135;
}
);
unicode = 02DC;
},
{
glyphname = "sheva-hb";
lastChange = "2013-03-10 15:58:23 +0200";
layers = (
{
anchors = (
{
name = _bottom;
position = "{674, -112}";
},
{
name = bottom_1;
position = "{70, 0}";
},
{
name = bottom_2;
position = "{70, 0}";
},
{
name = top_1;
position = "{70, 0}";
},
{
name = top_2;
position = "{70, 0}";
}
);
layerId = UUID0;
name = "Regular Italic";
paths = (
{
closed = 1;
nodes = (
"631 -92 OFFCURVE",
"600 -121 OFFCURVE",
"588 -179 CURVE SMOOTH",
"576 -236 OFFCURVE",
"594 -265 OFFCURVE",
"640 -265 CURVE SMOOTH",
"689 -265 OFFCURVE",
"719 -236 OFFCURVE",
"731 -179 CURVE SMOOTH",
"743 -121 OFFCURVE",
"726 -92 OFFCURVE",
"677 -92 CURVE SMOOTH"
);
},
{
closed = 1;
nodes = (
"566 -395 OFFCURVE",
"536 -424 OFFCURVE",
"524 -482 CURVE SMOOTH",
"512 -539 OFFCURVE",
"529 -568 OFFCURVE",
"575 -568 CURVE SMOOTH",
"624 -568 OFFCURVE",
"655 -539 OFFCURVE",
"667 -482 CURVE SMOOTH",
"679 -424 OFFCURVE",
"661 -395 OFFCURVE",
"612 -395 CURVE SMOOTH"
);
}
);
width = 1256;
}
);
unicode = 05B0;
},
{
glyphname = "hatafsegol-hb";
lastChange = "2013-03-10 15:58:23 +0200";
layers = (
{
anchors = (
{
name = _bottom;
position = "{673, -112}";
}
);
layerId = UUID0;
name = "Regular Italic";
paths = (
{
closed = 1;
nodes = (
"975 -92 OFFCURVE",
"944 -121 OFFCURVE",
"932 -179 CURVE SMOOTH",
"920 -236 OFFCURVE",
"938 -265 OFFCURVE",
"984 -265 CURVE SMOOTH",
"1033 -265 OFFCURVE",
"1063 -236 OFFCURVE",
"1075 -179 CURVE SMOOTH",
"1087 -121 OFFCURVE",
"1070 -92 OFFCURVE",
"1021 -92 CURVE SMOOTH"
);
},
{
closed = 1;
nodes = (
"451 -395 OFFCURVE",
"421 -424 OFFCURVE",
"409 -482 CURVE SMOOTH",
"397 -539 OFFCURVE",
"414 -568 OFFCURVE",
"460 -568 CURVE SMOOTH",
"509 -568 OFFCURVE",
"540 -539 OFFCURVE",
"552 -482 CURVE SMOOTH",
"564 -424 OFFCURVE",
"546 -395 OFFCURVE",
"497 -395 CURVE SMOOTH"
);
},
{
closed = 1;
nodes = (
"352 -92 OFFCURVE",
"321 -121 OFFCURVE",
"309 -179 CURVE SMOOTH",
"297 -236 OFFCURVE",
"315 -265 OFFCURVE",
"361 -265 CURVE SMOOTH",
"410 -265 OFFCURVE",
"440 -236 OFFCURVE",
"452 -179 CURVE SMOOTH",
"464 -121 OFFCURVE",
"447 -92 OFFCURVE",
"398 -92 CURVE SMOOTH"
);
},
{
closed = 1;
nodes = (
"910 -395 OFFCURVE",
"880 -424 OFFCURVE",
"868 -482 CURVE SMOOTH",
"856 -539 OFFCURVE",
"873 -568 OFFCURVE",
"919 -568 CURVE SMOOTH",
"968 -568 OFFCURVE",
"999 -539 OFFCURVE",
"1011 -482 CURVE SMOOTH",
"1023 -424 OFFCURVE",
"1005 -395 OFFCURVE",
"956 -395 CURVE SMOOTH"
);
},
{
closed = 1;
nodes = (
"682 -92 OFFCURVE",
"651 -121 OFFCURVE",
"639 -179 CURVE SMOOTH",
"627 -236 OFFCURVE",
"645 -265 OFFCURVE",
"691 -265 CURVE SMOOTH",
"740 -265 OFFCURVE",
"770 -236 OFFCURVE",
"782 -179 CURVE SMOOTH",
"794 -121 OFFCURVE",
"777 -92 OFFCURVE",
"728 -92 CURVE SMOOTH"
);
}
);
width = 1256;
}
);
unicode = 05B1;
},
{
glyphname = "hatafpatah-hb";
lastChange = "2013-03-10 15:58:23 +0200";
layers = (
{
anchors = (
{
name = _bottom;
position = "{674, -112}";
}
);
layerId = UUID0;
name = "Regular Italic";
paths = (
{
closed = 1;
nodes = (
"357 -137 LINE",
"340 -219 LINE",
"750 -219 LINE",
"767 -137 LINE"
);
},
{
closed = 1;
nodes = (
"842 -395 OFFCURVE",
"812 -424 OFFCURVE",
"800 -482 CURVE SMOOTH",
"788 -539 OFFCURVE",
"805 -568 OFFCURVE",
"851 -568 CURVE SMOOTH",
"900 -568 OFFCURVE",
"931 -539 OFFCURVE",
"943 -482 CURVE SMOOTH",
"955 -424 OFFCURVE",
"937 -395 OFFCURVE",
"888 -395 CURVE SMOOTH"
);
},
{
closed = 1;
nodes = (
"907 -92 OFFCURVE",
"876 -121 OFFCURVE",
"864 -179 CURVE SMOOTH",
"852 -236 OFFCURVE",
"870 -265 OFFCURVE",
"916 -265 CURVE SMOOTH",
"965 -265 OFFCURVE",
"995 -236 OFFCURVE",
"1007 -179 CURVE SMOOTH",
"1019 -121 OFFCURVE",
"1002 -92 OFFCURVE",
"953 -92 CURVE SMOOTH"
);
}
);
width = 1256;
}
);
unicode = 05B2;
},
{
glyphname = "hatafqamats-hb";
lastChange = "2013-03-10 15:58:23 +0200";
layers = (
{
anchors = (
{
name = _bottom;
position = "{674, -112}";
}
);
layerId = UUID0;
name = "Regular Italic";
paths = (
{
closed = 1;
nodes = (
"357 -137 LINE",
"340 -219 LINE",
"504 -219 LINE",
"454 -451 LINE",
"536 -451 LINE",
"586 -219 LINE",
"750 -219 LINE",
"767 -137 LINE"
);
},
{
closed = 1;
nodes = (
"842 -395 OFFCURVE",
"812 -424 OFFCURVE",
"800 -482 CURVE SMOOTH",
"788 -539 OFFCURVE",
"805 -568 OFFCURVE",
"851 -568 CURVE SMOOTH",
"900 -568 OFFCURVE",
"931 -539 OFFCURVE",
"943 -482 CURVE SMOOTH",
"955 -424 OFFCURVE",
"937 -395 OFFCURVE",
"888 -395 CURVE SMOOTH"
);
},
{
closed = 1;
nodes = (
"907 -92 OFFCURVE",
"876 -121 OFFCURVE",
"864 -179 CURVE SMOOTH",
"852 -236 OFFCURVE",
"870 -265 OFFCURVE",
"916 -265 CURVE SMOOTH",
"965 -265 OFFCURVE",
"995 -236 OFFCURVE",
"1007 -179 CURVE SMOOTH",
"1019 -121 OFFCURVE",
"1002 -92 OFFCURVE",
"953 -92 CURVE SMOOTH"
);
}
);
width = 1256;
}
);
unicode = 05B3;
},
{
glyphname = "hiriq-hb";
lastChange = "2013-03-10 15:58:23 +0200";
layers = (
{
anchors = (
{
name = _bottom;
position = "{642, -112}";
}
);
layerId = UUID0;
name = "Regular Italic";
paths = (
{
closed = 1;
nodes = (
"598 -92 OFFCURVE",
"568 -121 OFFCURVE",
"556 -179 CURVE SMOOTH",
"544 -236 OFFCURVE",
"562 -265 OFFCURVE",
"608 -265 CURVE SMOOTH",
"657 -265 OFFCURVE",
"687 -236 OFFCURVE",
"699 -179 CURVE SMOOTH",
"711 -121 OFFCURVE",
"693 -92 OFFCURVE",
"644 -92 CURVE SMOOTH"
);
}
);
width = 1256;
}
);
unicode = 05B4;
},
{
glyphname = "tsere-hb";
lastChange = "2013-03-10 15:58:23 +0200";
layers = (
{
anchors = (
{
name = _bottom;
position = "{642, -112}";
}
);
layerId = UUID0;
name = "Regular Italic";
paths = (
{
closed = 1;
nodes = (
"763 -92 OFFCURVE",
"733 -121 OFFCURVE",
"721 -179 CURVE SMOOTH",
"709 -236 OFFCURVE",
"727 -265 OFFCURVE",
"773 -265 CURVE SMOOTH",
"822 -265 OFFCURVE",
"852 -236 OFFCURVE",
"864 -179 CURVE SMOOTH",
"876 -121 OFFCURVE",
"858 -92 OFFCURVE",
"809 -92 CURVE SMOOTH"
);
},
{
closed = 1;
nodes = (
"433 -92 OFFCURVE",
"403 -121 OFFCURVE",
"391 -179 CURVE SMOOTH",
"379 -236 OFFCURVE",
"397 -265 OFFCURVE",
"443 -265 CURVE SMOOTH",
"492 -265 OFFCURVE",
"522 -236 OFFCURVE",
"534 -179 CURVE SMOOTH",
"546 -121 OFFCURVE",
"528 -92 OFFCURVE",
"479 -92 CURVE SMOOTH"
);
}
);
width = 1256;
}
);
unicode = 05B5;
},
{
glyphname = "segol-hb";
lastChange = "2013-03-10 15:58:23 +0200";
layers = (
{
anchors = (
{
name = _bottom;
position = "{674, -112}";
}
);
layerId = UUID0;
name = "Regular Italic";
paths = (
{
closed = 1;
nodes = (
"797 -92 OFFCURVE",
"766 -121 OFFCURVE",
"754 -179 CURVE SMOOTH",
"742 -236 OFFCURVE",
"760 -265 OFFCURVE",
"806 -265 CURVE SMOOTH",
"855 -265 OFFCURVE",
"885 -236 OFFCURVE",
"897 -179 CURVE SMOOTH",
"909 -121 OFFCURVE",
"892 -92 OFFCURVE",
"843 -92 CURVE SMOOTH"
);
},
{
closed = 1;
nodes = (
"566 -395 OFFCURVE",
"536 -424 OFFCURVE",
"524 -482 CURVE SMOOTH",
"512 -539 OFFCURVE",
"529 -568 OFFCURVE",
"575 -568 CURVE SMOOTH",
"624 -568 OFFCURVE",
"655 -539 OFFCURVE",
"667 -482 CURVE SMOOTH",
"679 -424 OFFCURVE",
"661 -395 OFFCURVE",
"612 -395 CURVE SMOOTH"
);
},
{
closed = 1;
nodes = (
"467 -92 OFFCURVE",
"436 -121 OFFCURVE",
"424 -179 CURVE SMOOTH",
"412 -236 OFFCURVE",
"430 -265 OFFCURVE",
"476 -265 CURVE SMOOTH",
"525 -265 OFFCURVE",
"555 -236 OFFCURVE",
"567 -179 CURVE SMOOTH",
"579 -121 OFFCURVE",
"562 -92 OFFCURVE",
"513 -92 CURVE SMOOTH"
);
}
);
width = 1256;
}
);
unicode = 05B6;
},
{
glyphname = "patah-hb";
lastChange = "2013-03-10 15:58:23 +0200";
layers = (
{
anchors = (
{
name = _bottom;
position = "{635, -137}";
}
);
layerId = UUID0;
name = "Regular Italic";
paths = (
{
closed = 1;
nodes = (
"430 -128 LINE",
"412 -210 LINE",
"822 -210 LINE",
"840 -128 LINE"
);
}
);
width = 1256;
}
);
unicode = 05B7;
},
{
glyphname = "qamats-hb";
lastChange = "2013-03-10 15:58:23 +0200";
layers = (
{
anchors = (
{
name = _bottom;
position = "{659, -137}";
}
);
layerId = UUID0;
name = "Regular Italic";
paths = (
{
closed = 1;
nodes = (
"454 -128 LINE",
"437 -210 LINE",
"601 -210 LINE",
"552 -442 LINE",
"634 -442 LINE",
"683 -210 LINE",
"847 -210 LINE",
"864 -128 LINE"
);
}
);
width = 1256;
}
);
unicode = 05B8;
},
{
glyphname = "holam-hb";
lastChange = "2013-03-10 15:58:23 +0200";
layers = (
{
anchors = (
{
name = _topleft;
position = "{552, 1118}";
}
);
layerId = UUID0;
name = "Regular Italic";
paths = (
{
closed = 1;
nodes = (
"598 1564 OFFCURVE",
"568 1535 OFFCURVE",
"556 1477 CURVE SMOOTH",
"544 1420 OFFCURVE",
"562 1391 OFFCURVE",
"608 1391 CURVE SMOOTH",
"657 1391 OFFCURVE",
"687 1420 OFFCURVE",
"699 1477 CURVE SMOOTH",
"711 1535 OFFCURVE",
"693 1564 OFFCURVE",
"644 1564 CURVE SMOOTH"
);
}
);
width = 1256;
}
);
unicode = 05B9;
},
{
glyphname = "holamhaser-hb";
lastChange = "2013-03-10 15:58:23 +0200";
layers = (
{
anchors = (
{
name = _topleft;
position = "{551, 1118}";
}
);
layerId = UUID0;
name = "Regular Italic";
paths = (
{
closed = 1;
nodes = (
"598 1564 OFFCURVE",
"568 1535 OFFCURVE",
"556 1477 CURVE SMOOTH",
"544 1420 OFFCURVE",
"562 1391 OFFCURVE",
"608 1391 CURVE SMOOTH",
"657 1391 OFFCURVE",
"687 1420 OFFCURVE",
"699 1477 CURVE SMOOTH",
"711 1535 OFFCURVE",
"693 1564 OFFCURVE",
"644 1564 CURVE SMOOTH"
);
}
);
width = 600;
}
);
unicode = 05BA;
},
{
glyphname = "qubuts-hb";
lastChange = "2013-03-10 15:58:23 +0200";
layers = (
{
anchors = (
{
name = _bottom;
position = "{674, -112}";
}
);
layerId = UUID0;
name = "Regular Italic";
paths = (
{
closed = 1;
nodes = (
"732 -395 OFFCURVE",
"702 -424 OFFCURVE",
"690 -482 CURVE SMOOTH",
"678 -539 OFFCURVE",
"695 -568 OFFCURVE",
"741 -568 CURVE SMOOTH",
"790 -568 OFFCURVE",
"821 -539 OFFCURVE",
"833 -482 CURVE SMOOTH",
"845 -424 OFFCURVE",
"827 -395 OFFCURVE",
"778 -395 CURVE SMOOTH"
);
},
{
closed = 1;
nodes = (
"467 -92 OFFCURVE",
"436 -121 OFFCURVE",
"424 -179 CURVE SMOOTH",
"412 -236 OFFCURVE",
"430 -265 OFFCURVE",
"476 -265 CURVE SMOOTH",
"525 -265 OFFCURVE",
"555 -236 OFFCURVE",
"567 -179 CURVE SMOOTH",
"579 -121 OFFCURVE",
"562 -92 OFFCURVE",
"513 -92 CURVE SMOOTH"
);
},
{
closed = 1;
nodes = (
"598 -243 OFFCURVE",
"568 -272 OFFCURVE",
"556 -330 CURVE SMOOTH",
"544 -387 OFFCURVE",
"562 -416 OFFCURVE",
"608 -416 CURVE SMOOTH",
"657 -416 OFFCURVE",
"687 -387 OFFCURVE",
"699 -330 CURVE SMOOTH",
"711 -272 OFFCURVE",
"693 -243 OFFCURVE",
"644 -243 CURVE SMOOTH"
);
}
);
width = 1256;
}
);
unicode = 05BB;
},
{
glyphname = "dagesh-hb";
lastChange = "2013-03-10 15:58:23 +0200";
layers = (
{
anchors = (
{
name = _center;
position = "{628, 648}";
}
);
layerId = UUID0;
name = "Regular Italic";
paths = (
{
closed = 1;
nodes = (
"598 735 OFFCURVE",
"568 706 OFFCURVE",
"556 648 CURVE SMOOTH",
"544 591 OFFCURVE",
"562 562 OFFCURVE",
"608 562 CURVE SMOOTH",
"657 562 OFFCURVE",
"687 591 OFFCURVE",
"699 648 CURVE SMOOTH",
"711 706 OFFCURVE",
"693 735 OFFCURVE",
"644 735 CURVE SMOOTH"
);
}
);
width = 1256;
}
);
unicode = 05BC;
},
{
glyphname = uni05BD;
lastChange = "2013-03-10 15:58:23 +0200";
layers = (
{
anchors = (
{
name = _bottom;
position = "{669, -137}";
}
);
layerId = UUID0;
name = "Regular Italic";
paths = (
{
closed = 1;
nodes = (
"613 -157 LINE",
"539 -509 LINE",
"642 -509 LINE",
"716 -157 LINE"
);
}
);
width = 1256;
}
);
unicode = 05BD;
},
{
glyphname = "shindot-hb";
lastChange = "2013-03-10 15:58:23 +0200";
layers = (
{
anchors = (
{
name = _topright;
position = "{612, 1118}";
}
);
layerId = UUID0;
name = "Regular Italic";
paths = (
{
closed = 1;
nodes = (
"544 1564 OFFCURVE",
"514 1535 OFFCURVE",
"502 1477 CURVE SMOOTH",
"490 1420 OFFCURVE",
"508 1391 OFFCURVE",
"554 1391 CURVE SMOOTH",
"603 1391 OFFCURVE",
"633 1420 OFFCURVE",
"645 1477 CURVE SMOOTH",
"657 1535 OFFCURVE",
"639 1564 OFFCURVE",
"590 1564 CURVE SMOOTH"
);
}
);
width = 1256;
}
);
unicode = 05C1;
},
{
glyphname = "sindot-hb";
lastChange = "2013-03-10 15:58:23 +0200";
layers = (
{
anchors = (
{
name = _topleft;
position = "{552, 1118}";
}
);
layerId = UUID0;
name = "Regular Italic";
paths = (
{
closed = 1;
nodes = (
"598 1564 OFFCURVE",
"568 1535 OFFCURVE",
"556 1477 CURVE SMOOTH",
"544 1420 OFFCURVE",
"562 1391 OFFCURVE",
"608 1391 CURVE SMOOTH",
"657 1391 OFFCURVE",
"687 1420 OFFCURVE",
"699 1477 CURVE SMOOTH",
"711 1535 OFFCURVE",
"693 1564 OFFCURVE",
"644 1564 CURVE SMOOTH"
);
}
);
width = 1256;
}
);
unicode = 05C2;
},
{
glyphname = "qamatsqatan-hb";
lastChange = "2013-03-10 15:58:23 +0200";
layers = (
{
anchors = (
{
name = _bottom;
position = "{372, 20}";
}
);
layerId = UUID0;
name = "Regular Italic";
paths = (
{
closed = 1;
nodes = (
"146 -110 LINE",
"125 -210 LINE",
"281 -210 LINE",
"232 -444 LINE",
"325 -444 LINE",
"374 -210 LINE",
"535 -210 LINE",
"556 -110 LINE"
);
}
);
width = 600;
}
);
unicode = 05C7;
},
{
glyphname = overscore;
lastChange = "2013-03-10 15:35:19 +0200";
layers = (
{
layerId = UUID0;
name = "Regular Italic";
paths = (
{
closed = 1;
nodes = (
"1047 1688 LINE",
"260 1688 LINE",
"227 1556 LINE",
"1012 1556 LINE"
);
}
);
width = 782;
}
);
unicode = 00AF;
},
